<?xml version="1.0" encoding="UTF-8" standalone="no"?>
<!-- Created with Inkscape (http://www.inkscape.org/) -->

<svg
   width="143.96727mm"
   height="48.192688mm"
   viewBox="0 0 143.96727 48.192688"
   version="1.1"
   id="svg1"
   inkscape:version="1.4 (e7c3feb100, 2024-10-09)"
   sodipodi:docname="header.svg"
   inkscape:export-filename="header.png"
   inkscape:export-xdpi="338.74368"
   inkscape:export-ydpi="338.74368"
   xmlns:inkscape="http://www.inkscape.org/namespaces/inkscape"
   xmlns:sodipodi="http://sodipodi.sourceforge.net/DTD/sodipodi-0.dtd"
   xmlns="http://www.w3.org/2000/svg"
   xmlns:svg="http://www.w3.org/2000/svg">
  <sodipodi:namedview
     id="namedview1"
     pagecolor="#ffffff"
     bordercolor="#000000"
     borderopacity="0.25"
     inkscape:showpageshadow="2"
     inkscape:pageopacity="0.0"
     inkscape:pagecheckerboard="0"
     inkscape:deskcolor="#d1d1d1"
     inkscape:document-units="mm"
     inkscape:zoom="0.73673541"
     inkscape:cx="427.56191"
     inkscape:cy="186.63417"
     inkscape:window-width="1914"
     inkscape:window-height="1044"
     inkscape:window-x="0"
     inkscape:window-y="30"
     inkscape:window-maximized="1"
     inkscape:current-layer="layer1" />
  <defs
     id="defs1">
    <rect
       x="46.322189"
       y="789.98303"
       width="847.08264"
       height="126.28365"
       id="rect38-8" />
    <filter
       style="color-interpolation-filters:sRGB"
       inkscape:label="Drop Shadow"
       id="filter142"
       x="-0.022325046"
       y="-0.075332701"
       width="1.0490288"
       height="1.1654408">
      <feFlood
         result="flood"
         in="SourceGraphic"
         flood-opacity="0.498039"
         flood-color="rgb(0,0,0)"
         id="feFlood141" />
      <feGaussianBlur
         result="blur"
         in="SourceGraphic"
         stdDeviation="3.000000"
         id="feGaussianBlur141" />
      <feOffset
         result="offset"
         in="blur"
         dx="2.000000"
         dy="2.000000"
         id="feOffset141" />
      <feComposite
         result="comp1"
         operator="out"
         in="flood"
         in2="offset"
         id="feComposite141" />
      <feComposite
         result="comp2"
         operator="atop"
         in="comp1"
         in2="SourceGraphic"
         id="feComposite142" />
    </filter>
    <filter
       style="color-interpolation-filters:sRGB"
       inkscape:label="Drop Shadow"
       id="filter573"
       x="-0.21335209"
       y="-0.10744739"
       width="1.4965328"
       height="1.2416092">
      <feFlood
         result="flood"
         in="SourceGraphic"
         flood-opacity="0.498039"
         flood-color="rgb(0,0,0)"
         id="feFlood572" />
      <feGaussianBlur
         result="blur"
         in="SourceGraphic"
         stdDeviation="1.000000"
         id="feGaussianBlur572" />
      <feOffset
         result="offset"
         in="blur"
         dx="1.000000"
         dy="1.000000"
         id="feOffset572" />
      <feComposite
         result="comp1"
         operator="out"
         in="flood"
         in2="offset"
         id="feComposite572" />
      <feComposite
         result="comp2"
         operator="atop"
         in="comp1"
         in2="SourceGraphic"
         id="feComposite573" />
    </filter>
    <filter
       style="color-interpolation-filters:sRGB"
       inkscape:label="Drop Shadow"
       id="filter575"
       x="-0.21465306"
       y="-0.26925979"
       width="1.4688292"
       height="1.5042918">
      <feFlood
         result="flood"
         in="SourceGraphic"
         flood-opacity="0.498039"
         flood-color="rgb(0,0,0)"
         id="feFlood573" />
      <feGaussianBlur
         result="blur"
         in="SourceGraphic"
         stdDeviation="1.000000"
         id="feGaussianBlur573" />
      <feOffset
         result="offset"
         in="blur"
         dx="1.000000"
         dy="1.000000"
         id="feOffset573" />
      <feComposite
         result="comp1"
         operator="out"
         in="flood"
         in2="offset"
         id="feComposite574" />
      <feComposite
         result="comp2"
         operator="atop"
         in="comp1"
         in2="SourceGraphic"
         id="feComposite575" />
    </filter>
    <filter
       style="color-interpolation-filters:sRGB"
       inkscape:label="Drop Shadow"
       id="filter575-7"
       x="-0.21465306"
       y="-0.26925979"
       width="1.4688292"
       height="1.5042918">
      <feFlood
         result="flood"
         in="SourceGraphic"
         flood-opacity="0.498039"
         flood-color="rgb(0,0,0)"
         id="feFlood573-1" />
      <feGaussianBlur
         result="blur"
         in="SourceGraphic"
         stdDeviation="1.000000"
         id="feGaussianBlur573-6" />
      <feOffset
         result="offset"
         in="blur"
         dx="1.000000"
         dy="1.000000"
         id="feOffset573-5" />
      <feComposite
         result="comp1"
         operator="out"
         in="flood"
         in2="offset"
         id="feComposite574-5" />
      <feComposite
         result="comp2"
         operator="atop"
         in="comp1"
         in2="SourceGraphic"
         id="feComposite575-4" />
    </filter>
    <inkscape:path-effect
       effect="spiro"
       id="path-effect575"
       is_visible="true"
       lpeversion="1" />
  </defs>
  <g
     inkscape:label="Layer 1"
     inkscape:groupmode="layer"
     id="layer1"
     transform="translate(118.00416,-98.954167)">
    <text
       xml:space="preserve"
       transform="matrix(0.29569396,0,0,0.29569396,-239.87747,-111.3404)"
       id="text37-0"
       style="font-style:italic;font-variant:normal;font-weight:normal;font-stretch:normal;font-size:146.667px;line-height:0;font-family:Oswald;-inkscape-font-specification:'Oswald, Italic';font-variant-ligatures:normal;font-variant-caps:normal;font-variant-numeric:normal;font-variant-east-asian:normal;text-align:center;letter-spacing:4.47394px;white-space:pre;shape-inside:url(#rect38-8);display:inline;fill:#404040;fill-opacity:1;stroke:#404040;stroke-width:5.99404;stroke-dasharray:none;stroke-dashoffset:0;stroke-opacity:1;filter:url(#filter142)"
       x="859.81494"
       y="0"><tspan
         x="420.9036"
         y="834.41498"
         id="tspan8"><tspan
           style="font-style:normal;font-weight:703;font-size:131.236px;line-height:0px;font-family:'Cooper Hewitt';-inkscape-font-specification:'Cooper Hewitt,  weight=703';text-align:end;text-anchor:end"
           id="tspan5">in  </tspan><tspan
           style="font-style:normal;font-weight:703;font-family:'Cooper Hewitt';-inkscape-font-specification:'Cooper Hewitt,  weight=703';fill:#ff5047;stroke:#ff5047"
           id="tspan6">ci</tspan><tspan
           style="font-style:normal;font-weight:703;font-size:131.236px;line-height:0px;font-family:'Cooper Hewitt';-inkscape-font-specification:'Cooper Hewitt,  weight=703';text-align:end;text-anchor:end"
           id="tspan7">ght</tspan></tspan></text>
    <path
       style="fill:none;fill-opacity:1;stroke:#ff5047;stroke-width:3.5;stroke-linecap:butt;stroke-linejoin:miter;stroke-miterlimit:4;stroke-dasharray:none;stroke-dashoffset:0;stroke-opacity:1;filter:url(#filter573)"
       d="m -68.87339,102.97658 c -0.22824,0.0923 -0.45648,0.18457 -0.68431,0.27686 -0.22785,0.0924 -0.45532,0.18478 -0.6821,0.27734 -0.22676,0.0925 -0.45276,0.1852 -0.67769,0.2781 -0.22503,0.0929 -0.44887,0.18593 -0.67127,0.27931 -0.22251,0.0934 -0.44355,0.18699 -0.66272,0.28091 -0.21919,0.094 -0.43663,0.18829 -0.65203,0.28299 -0.21527,0.0947 -0.42844,0.18976 -0.63926,0.28531 -0.21073,0.0956 -0.419,0.19153 -0.62447,0.28809 -0.20557,0.0965 -0.40823,0.19362 -0.60784,0.29121 -0.19973,0.0976 -0.39625,0.19587 -0.58946,0.29473 -0.1931,0.0988 -0.382903,0.1983 -0.569014,0.29849 -0.18611,0.10019 -0.368497,0.20101 -0.547019,0.30262 -0.178521,0.10162 -0.353052,0.20398 -0.523374,0.30706 -0.170347,0.10315 -0.336512,0.20708 -0.498199,0.31186 -0.161759,0.10468 -0.318971,0.2103 -0.47161,0.31677 -0.152638,0.10647 -0.30058,0.21375 -0.443781,0.32199 -0.143103,0.10826 -0.281341,0.21744 -0.414591,0.32747 -0.133178,0.11013 -0.261393,0.22118 -0.384453,0.3332 -0.122936,0.11197 -0.240739,0.22498 -0.353192,0.339 -0.112452,0.11401 -0.219528,0.22896 -0.321277,0.34498 -0.101653,0.11604 -0.197857,0.2331 -0.288488,0.35113 -0.09066,0.1181 -0.175768,0.23725 -0.255332,0.35743 -0.07944,0.12013 -0.153265,0.2414 -0.221445,0.36372 -0.06818,0.12231 -0.130692,0.24563 -0.187487,0.37008 -0.05679,0.12446 -0.107851,0.24999 -0.153236,0.37652 -0.04541,0.12659 -0.08498,0.25428 -0.119013,0.38301 -0.03391,0.12868 -0.06219,0.25848 -0.08483,0.38935 -0.02265,0.13086 -0.03952,0.26273 -0.05097,0.3957 -0.01135,0.13298 -0.01707,0.26702 -0.01731,0.40202 -3.61e-4,0.13505 0.0049,0.27115 0.01555,0.40826 0.01066,0.13704 0.02674,0.27517 0.04798,0.41428 0.02134,0.13911 0.04796,0.27915 0.07961,0.4202 0.03165,0.14106 0.06846,0.28308 0.110259,0.42596 0.04177,0.14295 0.08851,0.28684 0.139909,0.4316 0.05153,0.14471 0.107796,0.29038 0.168542,0.43689 0.06074,0.14651 0.12609,0.29382 0.195689,0.44199 0.0697,0.14819 0.143578,0.29717 0.221669,0.44687 0.07797,0.14974 0.16012,0.30027 0.245969,0.45149 0.08597,0.15118 0.175714,0.30313 0.268958,0.45574 0.09324,0.15261 0.190018,0.30581 0.290073,0.4597 0.09996,0.15387 0.203224,0.30836 0.309437,0.46334 0.106184,0.15504 0.215289,0.31062 0.32702,0.4667 0.111855,0.15603 0.226214,0.31261 0.34281,0.4696 0.116695,0.15701 0.235653,0.31437 0.356531,0.47217 0.120879,0.1578 0.243799,0.31598 0.368208,0.47436 0.124477,0.15847 0.25061,0.31726 0.377936,0.47619 0.1273,0.159 0.255864,0.31824 0.385402,0.47766 0.129467,0.15934 0.259881,0.31892 0.390878,0.47862 0.130901,0.15968 0.262411,0.3194 0.394089,0.47922 0.131678,0.15982 0.263455,0.31966 0.395159,0.47942 0.131679,0.15982 0.263163,0.31961 0.394063,0.47929 0.13102,0.15962 0.26134,0.31919 0.39088,0.47861 0.12944,0.15941 0.25813,0.31859 0.38543,0.4776 0.1273,0.159 0.25343,0.31778 0.37784,0.47617 0.12448,0.15847 0.2473,0.31663 0.36827,0.47445 0.12091,0.15772 0.23984,0.31515 0.35653,0.47217 0.1166,0.15699 0.23099,0.31349 0.34272,0.46958 0.11173,0.15608 0.22093,0.31168 0.32714,0.46665 0.10619,0.15504 0.20945,0.30953 0.30941,0.4634 0.10008,0.15382 0.19683,0.30709 0.29007,0.4597 0.0932,0.15262 0.18302,0.3045 0.26887,0.45572 0.0859,0.15125 0.168,0.30176 0.24609,0.45145 0.078,0.14975 0.15194,0.29874 0.22154,0.44692 0.0697,0.14812 0.13505,0.29549 0.19579,0.442 0.0607,0.14652 0.11704,0.29212 0.16845,0.43688 0.0515,0.14478 0.0982,0.28866 0.14003,0.43155 0.0417,0.14293 0.0785,0.28495 0.11023,0.42602 0.0317,0.14099 0.0583,0.28109 0.0796,0.42021 0.0212,0.1391 0.0374,0.27716 0.048,0.41427 0.0106,0.13711 0.0158,0.2732 0.0156,0.4082 -2.7e-4,0.13506 -0.006,0.26908 -0.0174,0.40207 -0.0113,0.13294 -0.0283,0.26485 -0.0509,0.39571 -0.0226,0.13085 -0.0509,0.26064 -0.0848,0.38937 -0.034,0.12871 -0.0737,0.25636 -0.11899,0.38296 -0.0454,0.12657 -0.0965,0.25209 -0.15325,0.37653 -0.0568,0.12444 -0.11932,0.2478 -0.18749,0.3701 -0.0682,0.1223 -0.14209,0.24353 -0.22155,0.36371 -0.0795,0.12019 -0.16456,0.23931 -0.25522,0.3574 -0.0906,0.11809 -0.18684,0.23513 -0.28849,0.35115 -0.10174,0.11601 -0.20884,0.23101 -0.32128,0.345 -0.11245,0.114 -0.23025,0.22699 -0.3533,0.33899 -0.12295,0.11203 -0.25116,0.22306 -0.38443,0.33315 -0.13317,0.11011 -0.2715,0.21925 -0.4146,0.32749 -0.1431,0.10825 -0.29106,0.21557 -0.44369,0.32203 -0.15263,0.10645 -0.30994,0.21203 -0.47162,0.31679 -0.16168,0.10476 -0.32783,0.20867 -0.49827,0.31178 -0.17034,0.10313 -0.34487,0.20548 -0.52338,0.30708 -0.178421,0.10161 -0.360924,0.20246 -0.546932,0.30265 -0.186103,0.10018 -0.375905,0.19966 -0.569113,0.2985 -0.193108,0.0989 -0.389721,0.19706 -0.589351,0.29469 -0.199629,0.0976 -0.402372,0.19469 -0.60784,0.29123 -0.205466,0.0965 -0.413756,0.19255 -0.624573,0.28808 -0.210723,0.0956 -0.423877,0.19066 -0.639269,0.28534 -0.215295,0.0947 -0.432732,0.18899 -0.651916,0.28295 -0.219287,0.094 -0.440224,0.18758 -0.66272,0.28093 -0.222397,0.0934 -0.446256,0.18645 -0.671279,0.27932 -0.22493,0.0929 -0.451024,0.18556 -0.677704,0.27812 -0.226775,0.0925 -0.454331,0.18494 -0.682177,0.27727 -0.227848,0.0923 -0.455986,0.18463 -0.684223,0.2769"
       title="sin(x)"
       id="path572" />
  </g>
</svg>
