<?xml version="1.0" standalone="no"?>
<!DOCTYPE svg PUBLIC "-//W3C//DTD SVG 20010904//EN"
 "http://www.w3.org/TR/2001/REC-SVG-20010904/DTD/svg10.dtd">
<svg version="1.0" xmlns="http://www.w3.org/2000/svg"
 width="1091.000000pt" height="340.000000pt" viewBox="0 0 1091.000000 340.000000"
 preserveAspectRatio="xMidYMid meet">
<metadata>
Created by potrace 1.16, written by Peter Selinger 2001-2019
</metadata>
<g transform="translate(0.000000,340.000000) scale(0.100000,-0.100000)"
fill="#000000" stroke="none">
<path d="M7278 3395 c-3 -3 3 -29 13 -58 23 -66 23 -118 0 -184 -22 -65 -2
-76 23 -13 22 57 21 164 -4 218 -19 42 -22 46 -32 37z"/>
<path d="M6526 3350 c-30 -76 -11 -250 29 -250 9 0 7 14 -6 53 -10 28 -18 70
-18 92 0 22 8 64 18 93 22 64 2 75 -23 12z"/>
<path d="M6649 3313 c-15 -38 -36 -92 -48 -120 -18 -45 -18 -53 -5 -53 8 0 22
16 30 35 14 33 17 35 64 35 48 0 51 -2 67 -35 9 -19 23 -35 30 -35 7 0 13 2
13 5 0 3 -21 57 -46 120 -56 139 -68 145 -105 48z m80 -70 c1 -9 -13 -13 -39
-13 -22 0 -40 2 -40 4 0 2 6 19 14 37 7 19 16 43 20 54 7 17 11 13 26 -25 11
-25 19 -51 19 -57z"/>
<path d="M6840 3260 l0 -122 65 4 c45 3 73 10 92 24 35 26 50 80 37 131 -13
53 -51 76 -129 81 l-65 4 0 -122z m141 71 c20 -16 24 -29 24 -71 0 -65 -25
-90 -91 -90 l-44 0 0 90 0 90 44 0 c28 0 52 -7 67 -19z"/>
<path d="M7090 3261 c0 -101 2 -121 15 -121 11 0 15 12 15 45 l0 45 40 0 c74
0 114 68 71 121 -14 18 -31 23 -80 27 l-61 4 0 -121z m121 68 c16 -32 -2 -65
-41 -73 -44 -8 -50 -2 -50 50 l0 44 40 0 c30 0 42 -5 51 -21z"/>
<path d="M6152 3240 c-68 -16 -142 -122 -142 -203 0 -23 -5 -40 -14 -43 -13
-5 -13 -8 0 -22 7 -9 28 -42 46 -72 48 -80 104 -114 194 -118 118 -6 189 35
247 141 25 45 26 54 18 111 -15 108 -73 190 -145 206 -21 4 -34 4 -30 -1 3 -5
11 -9 18 -9 23 0 99 -74 117 -114 22 -48 25 -133 6 -179 -80 -189 -344 -189
-424 0 -18 45 -16 131 6 178 19 43 92 115 115 115 8 0 18 5 21 10 3 6 5 10 3
9 -2 -1 -18 -5 -36 -9z"/>
<path d="M6210 3050 c0 -47 4 -80 10 -80 6 0 10 16 10 35 0 34 1 35 40 35 39
0 40 -1 40 -35 0 -19 5 -35 10 -35 6 0 10 33 10 80 0 78 -16 112 -22 48 -3
-30 -6 -33 -38 -33 -32 0 -35 3 -38 33 -6 64 -22 30 -22 -48z"/>
<path d="M3500 3102 c0 -5 7 -15 15 -22 8 -7 15 -8 15 -2 0 5 -7 15 -15 22 -8
7 -15 8 -15 2z"/>
<path d="M3759 3083 c-1 -5 -2 -15 -3 -23 -1 -9 -16 -17 -41 -21 l-40 -6 36
-2 c27 -1 39 -7 46 -23 9 -19 11 -15 11 30 1 28 -1 52 -4 52 -2 0 -5 -3 -5 -7z"/>
<path d="M3355 3070 c3 -5 8 -10 11 -10 2 0 4 5 4 10 0 6 -5 10 -11 10 -5 0
-7 -4 -4 -10z"/>
<path d="M6070 3030 c0 -6 27 -10 60 -10 33 0 60 4 60 10 0 6 -27 10 -60 10
-33 0 -60 -4 -60 -10z"/>
<path d="M6368 3029 c-10 -5 -18 -17 -18 -24 0 -20 10 -19 26 3 10 14 15 15
26 4 11 -11 7 -18 -20 -40 -45 -37 -42 -52 11 -51 23 1 33 3 22 6 -47 10 -49
14 -17 33 36 22 42 54 13 70 -23 12 -22 12 -43 -1z"/>
<path d="M6521 2974 c0 -11 3 -14 6 -6 3 7 2 16 -1 19 -3 4 -6 -2 -5 -13z"/>
<path d="M6556 2981 c-9 -14 9 -22 30 -14 14 5 16 2 12 -15 -7 -25 7 -30 16
-7 3 8 13 15 22 15 24 0 11 11 -18 15 -12 1 -30 6 -39 10 -10 3 -20 2 -23 -4z"/>
<path d="M5906 2971 c-3 -5 -16 -7 -27 -4 -16 5 -20 2 -17 -8 3 -8 12 -13 19
-11 8 1 5 -5 -6 -14 l-20 -16 20 5 c11 3 35 8 53 12 18 4 32 13 32 21 0 11 -4
12 -19 4 -30 -16 -49 -12 -27 5 11 8 15 15 9 15 -7 0 -14 -4 -17 -9z"/>
<path d="M3365 2960 c3 -5 8 -10 11 -10 2 0 4 5 4 10 0 6 -5 10 -11 10 -5 0
-7 -4 -4 -10z"/>
<path d="M6640 2954 c-22 -12 -16 -20 13 -15 4 0 7 -5 7 -11 0 -7 5 -5 11 5
15 26 -1 37 -31 21z"/>
<path d="M3610 2951 c0 -6 5 -13 10 -16 6 -3 10 1 10 9 0 9 -4 16 -10 16 -5 0
-10 -4 -10 -9z"/>
<path d="M5823 2953 c-18 -6 -16 -23 1 -23 8 0 17 -6 19 -12 3 -7 6 -3 6 9 1
24 -8 33 -26 26z"/>
<path d="M5790 2941 c0 -10 29 -36 34 -30 1 2 -6 12 -16 22 -10 9 -18 13 -18
8z"/>
<path d="M6701 2941 c-9 -6 -4 -10 18 -13 33 -5 42 6 15 16 -19 7 -16 8 -33
-3z"/>
<path d="M1316 2899 c-25 -51 -16 -186 15 -205 18 -11 21 3 8 44 -8 29 -9 58
-1 108 11 78 2 101 -22 53z"/>
<path d="M1447 2898 c10 -29 9 -156 -1 -185 -14 -39 13 -27 30 13 20 47 22
121 5 162 -16 37 -48 46 -34 10z"/>
<path d="M5711 2906 c-7 -8 -20 -12 -29 -9 -12 3 -18 -2 -19 -16 -1 -12 0 -21
2 -21 11 0 61 26 67 35 19 25 -1 35 -21 11z"/>
<path d="M6780 2900 c-9 -6 -10 -10 -3 -10 6 0 15 5 18 10 8 12 4 12 -15 0z"/>
<path d="M6820 2889 c0 -18 2 -19 15 -9 8 7 15 16 15 21 0 5 -7 9 -15 9 -9 0
-15 -9 -15 -21z"/>
<path d="M6863 2893 c-7 -3 -13 -11 -13 -19 0 -8 6 -15 13 -15 6 -1 24 -3 40
-5 15 -1 27 1 27 7 0 5 -7 9 -15 9 -8 0 -15 4 -15 9 0 11 -21 19 -37 14z"/>
<path d="M5623 2873 c-4 -10 -14 -23 -22 -30 -13 -9 -11 -10 11 -6 27 5 48 33
25 33 -8 0 -6 4 3 10 10 7 11 10 2 10 -7 0 -16 -8 -19 -17z"/>
<path d="M637 2859 c7 -7 15 -10 18 -7 3 3 -2 9 -12 12 -14 6 -15 5 -6 -5z"/>
<path d="M6940 2862 c0 -5 11 -19 25 -32 30 -28 34 -13 5 18 -22 23 -30 27
-30 14z"/>
<path d="M5526 2825 c-3 -8 -11 -14 -17 -13 -6 2 -13 -2 -16 -9 -2 -7 3 -10
14 -8 10 2 24 4 31 4 14 1 16 27 3 35 -5 3 -12 -1 -15 -9z"/>
<path d="M491 2804 c0 -11 3 -14 6 -6 3 7 2 16 -1 19 -3 4 -6 -2 -5 -13z"/>
<path d="M366 2803 c-11 -11 -6 -21 14 -26 12 -3 20 0 20 8 0 14 -25 27 -34
18z"/>
<path d="M7060 2800 c0 -5 5 -10 11 -10 5 0 7 5 4 10 -3 6 -8 10 -11 10 -2 0
-4 -4 -4 -10z"/>
<path d="M5441 2791 c-10 -7 -11 -13 -2 -27 6 -11 11 -14 11 -9 1 6 3 18 5 28
4 20 4 19 -14 8z"/>
<path d="M7098 2773 c7 -3 16 -2 19 1 4 3 -2 6 -13 5 -11 0 -14 -3 -6 -6z"/>
<path d="M1570 2751 c0 -5 -9 -11 -20 -14 -11 -3 -20 -10 -20 -16 0 -6 9 -11
20 -11 18 0 20 -7 20 -60 0 -47 3 -60 15 -60 12 0 15 16 15 85 0 69 -3 85 -15
85 -8 0 -15 -4 -15 -9z"/>
<path d="M1672 2748 c-7 -7 -12 -18 -12 -25 0 -18 27 -16 34 2 7 20 25 19 33
-1 4 -11 -1 -22 -13 -31 -19 -14 -18 -14 4 -31 20 -16 21 -19 8 -37 -14 -19
-15 -19 -35 -1 -26 23 -41 18 -30 -11 7 -18 16 -23 47 -23 21 0 43 5 50 12 15
15 16 64 2 73 -8 5 -7 11 1 21 22 26 -4 64 -44 64 -18 0 -38 -5 -45 -12z"/>
<path d="M7143 2745 c-14 -15 -1 -31 16 -20 6 3 15 -4 21 -15 11 -21 44 -27
55 -10 3 6 -5 10 -19 10 -20 0 -24 4 -19 17 4 11 3 14 -5 9 -7 -4 -15 -1 -18
8 -7 19 -15 20 -31 1z"/>
<path d="M5366 2738 c5 -8 2 -9 -9 -5 -11 4 -20 -1 -27 -13 -6 -11 -17 -20
-25 -20 -7 0 -16 -4 -19 -9 -3 -5 5 -8 19 -8 15 0 27 7 30 18 4 10 9 18 13 18
37 -6 57 13 26 25 -10 4 -13 2 -8 -6z"/>
<path d="M646 2715 c-3 -8 -1 -15 4 -15 6 0 10 7 10 15 0 8 -2 15 -4 15 -2 0
-6 -7 -10 -15z"/>
<path d="M5245 2660 c-3 -5 -1 -10 5 -10 6 0 8 -5 4 -12 -4 -7 -3 -8 4 -4 6 4
9 13 5 21 -6 18 -10 19 -18 5z"/>
<path d="M7275 2660 c-3 -5 5 -22 18 -36 16 -17 27 -22 31 -15 4 6 2 10 -5 9
-6 -2 -14 3 -16 10 -3 7 -1 12 4 11 22 -4 25 2 7 16 -23 17 -31 18 -39 5z"/>
<path d="M5195 2620 c-3 -11 -10 -18 -15 -15 -5 3 -11 1 -14 -4 -4 -5 2 -12
11 -14 14 -4 12 -5 -5 -6 -12 0 -25 -8 -28 -16 -4 -8 -12 -15 -20 -15 -8 0
-11 -6 -7 -17 5 -12 2 -15 -10 -10 -12 4 -14 2 -10 -10 5 -12 2 -15 -10 -10
-11 4 -14 2 -10 -9 7 -19 6 -19 48 21 20 19 34 38 31 44 -4 5 4 11 16 13 13 2
22 9 21 16 -2 6 6 12 18 12 14 0 19 5 17 17 -5 25 -25 27 -33 3z"/>
<path d="M6070 2510 l0 -100 49 0 c34 0 56 6 75 21 30 23 33 45 11 76 -10 14
-12 24 -5 28 15 9 12 42 -6 59 -10 11 -34 16 -70 16 l-54 0 0 -100z m105 50
c0 -22 -5 -25 -42 -28 -42 -3 -43 -2 -43 28 0 30 1 31 43 28 37 -3 42 -6 42
-28z m8 -71 c19 -31 1 -49 -48 -49 -43 0 -45 1 -45 28 0 16 3 32 7 36 13 12
76 2 86 -15z"/>
<path d="M7350 2600 c-12 -8 -10 -10 8 -10 13 0 20 4 17 10 -7 12 -6 12 -25 0z"/>
<path d="M7385 2570 c3 -5 11 -10 16 -10 6 0 7 5 4 10 -3 6 -11 10 -16 10 -6
0 -7 -4 -4 -10z"/>
<path d="M6250 2491 c0 -39 5 -73 10 -76 6 -4 10 13 10 44 0 48 13 73 42 84 7
2 9 8 5 13 -4 4 -17 3 -27 -4 -12 -7 -20 -8 -20 -2 0 5 -4 10 -10 10 -6 0 -10
-30 -10 -69z"/>
<path d="M7396 2535 c22 -17 38 -20 29 -5 -3 6 -1 10 4 10 6 0 11 -4 11 -10 0
-5 5 -10 11 -10 8 0 8 5 -1 15 -7 8 -26 15 -43 15 -29 0 -30 -1 -11 -15z"/>
<path d="M4992 2431 c-18 -25 -19 -28 -4 -27 19 1 41 24 42 44 0 20 -15 14
-38 -17z"/>
<path d="M7545 2400 c-3 -5 1 -10 9 -10 9 0 16 5 16 10 0 6 -4 10 -9 10 -6 0
-13 -4 -16 -10z"/>
<path d="M4960 2372 c0 -12 3 -12 15 -2 8 7 15 13 15 15 0 1 -7 2 -15 2 -8 0
-15 -7 -15 -15z"/>
<path d="M7579 2364 c-10 -12 -9 -13 6 -8 12 5 16 4 12 -3 -10 -16 3 -43 20
-43 8 0 12 -4 9 -9 -3 -4 5 -18 17 -29 16 -15 27 -18 37 -12 13 9 13 10 0 11
-8 1 -19 1 -24 0 -5 -1 -6 5 -3 13 3 8 -1 17 -8 20 -8 3 -12 12 -9 21 5 11 0
15 -17 15 -14 0 -19 3 -13 8 9 5 8 10 -1 19 -10 10 -16 9 -26 -3z"/>
<path d="M4916 2346 c-11 -18 -12 -26 -4 -28 17 -6 47 23 41 38 -8 20 -19 17
-37 -10z"/>
<path d="M6281 2073 c4 -164 7 -318 8 -342 0 -24 4 -41 8 -37 12 12 -4 676
-16 676 -3 0 -3 -134 0 -297z"/>
<path d="M4890 2280 c0 -5 5 -10 10 -10 6 0 10 5 10 10 0 6 -4 10 -10 10 -5 0
-10 -4 -10 -10z"/>
<path d="M4852 2260 c-14 -23 -16 -60 -3 -60 5 0 8 11 5 24 -3 16 1 26 11 28
8 2 11 8 7 15 -6 9 -11 7 -20 -7z"/>
<path d="M5532 2175 c3 -99 21 -135 26 -52 l3 47 49 0 49 0 3 -47 c5 -83 23
-47 26 52 2 80 0 95 -13 95 -11 0 -15 -11 -15 -40 l0 -40 -50 0 -50 0 0 40 c0
29 -4 40 -15 40 -13 0 -15 -15 -13 -95z"/>
<path d="M7675 2240 c-3 -5 -1 -10 4 -10 6 0 11 5 11 10 0 6 -2 10 -4 10 -3 0
-8 -4 -11 -10z"/>
<path d="M7710 2240 c0 -4 12 -17 26 -31 20 -19 25 -32 22 -60 -2 -27 1 -35
13 -36 15 -1 14 5 -3 66 -16 52 -24 67 -39 67 -10 0 -19 -3 -19 -6z"/>
<path d="M8590 2129 l0 -121 66 4 c50 3 70 9 80 23 21 28 18 72 -6 85 -21 11
-21 11 -1 36 39 49 -4 94 -91 94 l-48 0 0 -121z m118 63 c5 -33 -15 -52 -54
-52 -33 0 -34 1 -34 41 l0 40 43 -3 c35 -3 43 -7 45 -26z m2 -87 c7 -8 10 -25
6 -40 -6 -22 -12 -25 -51 -25 l-45 0 0 40 c0 40 0 40 39 40 22 0 44 -6 51 -15z"/>
<path d="M8792 2233 c2 -10 10 -18 18 -18 22 0 18 29 -3 33 -14 3 -18 -1 -15
-15z"/>
<path d="M9190 2130 c0 -73 4 -120 10 -120 6 0 10 5 10 10 0 7 6 7 19 0 56
-30 101 5 101 80 0 42 -4 52 -26 67 -21 13 -32 15 -55 6 l-29 -11 0 44 c0 32
-4 44 -15 44 -12 0 -15 -20 -15 -120z m91 20 c14 -8 19 -21 19 -54 0 -49 -17
-69 -52 -64 -20 3 -23 10 -26 53 -3 38 1 52 14 62 21 16 21 16 45 3z"/>
<path d="M9970 2210 c0 -38 -1 -39 -29 -34 -62 13 -103 -46 -82 -116 13 -45
46 -60 86 -42 15 7 26 8 30 2 18 -29 25 1 25 110 0 100 -2 120 -15 120 -11 0
-15 -11 -15 -40z m-12 -62 c7 -7 12 -31 12 -55 0 -37 -4 -45 -26 -55 -23 -11
-29 -10 -45 11 -25 30 -24 66 1 91 23 23 41 25 58 8z"/>
<path d="M6363 2233 c-13 -2 -23 -9 -23 -15 0 -6 12 -8 31 -4 27 5 44 -3 137
-70 112 -80 132 -92 132 -77 0 11 -234 174 -247 172 -4 -1 -18 -4 -30 -6z"/>
<path d="M7656 2205 c-8 -22 20 -30 39 -12 21 21 19 27 -9 27 -13 0 -27 -7
-30 -15z"/>
<path d="M6175 2200 c-22 -4 -72 -13 -111 -20 l-72 -11 -22 -52 c-12 -29 -24
-58 -27 -64 -3 -7 0 -13 6 -13 6 0 22 25 36 55 13 30 30 57 37 59 7 3 57 12
111 22 53 9 97 20 97 25 0 10 1 10 -55 -1z"/>
<path d="M4796 2183 c-3 -4 -6 -18 -7 -32 0 -14 -3 -20 -6 -13 -4 10 -9 8 -19
-6 -13 -19 -9 -62 7 -62 12 0 11 7 -2 32 -9 18 -8 19 10 13 18 -5 21 -2 21 19
0 16 6 26 15 26 8 0 15 4 15 9 0 11 -26 22 -34 14z"/>
<path d="M8790 2095 c0 -69 3 -85 15 -85 12 0 15 16 15 85 0 69 -3 85 -15 85
-12 0 -15 -16 -15 -85z"/>
<path d="M8903 2168 c-48 -23 -49 -123 -3 -148 31 -16 79 -11 100 10 31 31 28
102 -6 129 -29 23 -57 26 -91 9z m71 -24 c19 -18 21 -85 4 -102 -17 -17 -53
-15 -69 4 -20 24 -16 84 6 100 24 18 40 18 59 -2z"/>
<path d="M9391 2169 c-17 -7 -21 -13 -14 -20 8 -8 17 -8 31 0 24 13 52 5 52
-15 0 -8 0 -17 1 -21 0 -4 -19 -12 -42 -18 -23 -5 -47 -18 -53 -27 -24 -39 36
-74 84 -48 13 7 20 7 20 0 0 -5 5 -10 10 -10 6 0 10 30 10 69 0 95 -27 119
-99 90z m73 -117 c-15 -23 -68 -23 -72 0 -2 12 6 20 30 26 39 11 58 0 42 -26z"/>
<path d="M9550 2160 c-11 -11 -20 -23 -20 -27 1 -19 22 -38 52 -49 22 -7 33
-17 33 -30 0 -16 -7 -19 -42 -17 -43 2 -57 -9 -27 -21 35 -13 74 -6 89 18 21
32 10 54 -36 73 -58 23 -44 62 17 47 26 -7 34 10 8 20 -29 11 -54 6 -74 -14z"/>
<path d="M9706 2159 c-34 -27 -37 -98 -6 -129 22 -22 70 -26 101 -9 28 15 13
31 -16 17 -33 -15 -75 3 -75 32 0 18 6 20 55 20 52 0 55 1 55 25 0 32 -33 65
-64 65 -13 0 -35 -9 -50 -21z m78 -15 c26 -25 19 -34 -29 -34 -46 0 -58 13
-33 38 17 17 44 15 62 -4z"/>
<path d="M2007 2153 c-4 -3 -7 -37 -7 -75 l0 -68 -65 0 c-58 0 -65 -2 -65 -20
0 -18 7 -20 65 -20 l65 0 0 -70 c0 -68 1 -70 25 -70 24 0 25 2 25 70 l0 70 70
0 c63 0 70 2 70 20 0 17 -8 19 -67 22 l-68 3 -3 73 c-2 61 -5 72 -21 72 -10 0
-21 -3 -24 -7z"/>
<path d="M9060 2110 c0 -5 18 -10 40 -10 22 0 40 5 40 10 0 6 -18 10 -40 10
-22 0 -40 -4 -40 -10z"/>
<path d="M7760 2090 c0 -5 5 -10 10 -10 6 0 10 5 10 10 0 6 -4 10 -10 10 -5 0
-10 -4 -10 -10z"/>
<path d="M4730 2080 c0 -5 5 -10 10 -10 6 0 10 5 10 10 0 6 -4 10 -10 10 -5 0
-10 -4 -10 -10z"/>
<path d="M6708 2064 c-5 -4 -8 -49 -8 -101 0 -76 3 -93 15 -93 11 0 15 11 15
40 0 39 1 40 36 40 53 0 74 15 74 54 0 19 -7 39 -15 46 -18 15 -106 26 -117
14z m108 -46 c8 -27 -17 -48 -58 -48 -25 0 -28 3 -28 35 0 34 1 35 39 35 32 0
41 -4 47 -22z"/>
<path d="M6910 2055 c0 -8 5 -15 10 -15 6 0 10 7 10 15 0 8 -4 15 -10 15 -5 0
-10 -7 -10 -15z"/>
<path d="M6948 2064 c-5 -4 -8 -49 -8 -101 0 -76 3 -93 15 -93 11 0 15 11 15
40 l0 40 43 0 c30 0 49 6 60 18 21 23 22 65 3 81 -17 15 -118 26 -128 15z
m110 -56 c3 -24 -1 -28 -32 -33 -44 -9 -56 -1 -56 36 0 29 1 30 43 27 37 -3
42 -6 45 -30z"/>
<path d="M5730 2052 c0 -14 39 -46 47 -39 3 4 -2 16 -12 27 -19 21 -35 26 -35
12z"/>
<path d="M6895 1998 c-7 -20 -24 -102 -25 -115 0 -28 20 -11 29 25 20 79 23
102 11 102 -6 0 -13 -6 -15 -12z"/>
<path d="M7120 1939 c0 -55 3 -69 15 -69 11 0 15 12 15 50 0 39 4 53 20 62 29
18 25 26 -15 26 l-35 0 0 -69z"/>
<path d="M5810 1885 c0 -78 3 -95 15 -95 12 0 15 15 15 73 l1 72 45 -72 c31
-49 53 -73 65 -73 17 0 19 9 19 95 0 78 -3 95 -15 95 -12 0 -15 -15 -15 -71 0
-38 -4 -68 -9 -65 -5 3 -26 35 -47 71 -24 40 -46 65 -56 65 -16 0 -18 -11 -18
-95z"/>
<path d="M7222 1938 c-15 -15 -16 -38 -2 -38 6 0 10 7 10 15 0 9 9 15 25 15
35 0 33 -34 -2 -57 -59 -38 -58 -63 2 -63 54 0 60 18 8 22 l-38 3 38 23 c53
34 48 92 -8 92 -12 0 -26 -5 -33 -12z"/>
<path d="M5607 1865 c-75 -12 -139 -24 -141 -26 -15 -15 -106 -253 -99 -259
24 -21 213 -160 218 -160 20 0 -7 27 -84 84 -49 37 -94 73 -101 81 -10 12 -4
36 35 129 l47 113 141 19 c89 12 142 24 145 32 4 15 10 15 -161 -13z"/>
<path d="M6523 1768 c-110 -105 -122 -118 -105 -118 14 0 216 190 220 207 2 7
1 13 -2 13 -3 0 -54 -46 -113 -102z"/>
<path d="M8960 1730 c0 -100 3 -120 15 -120 13 0 15 20 15 120 0 100 -2 120
-15 120 -12 0 -15 -20 -15 -120z"/>
<path d="M9330 1730 c0 -100 3 -120 15 -120 12 0 15 14 15 65 0 54 3 66 20 75
14 8 26 8 40 0 17 -9 20 -21 20 -75 0 -51 3 -65 15 -65 12 0 15 14 15 63 0 92
-33 127 -91 97 -17 -10 -19 -7 -19 35 0 33 -4 45 -15 45 -12 0 -15 -20 -15
-120z"/>
<path d="M9690 1730 c0 -100 3 -120 15 -120 13 0 15 20 15 120 0 100 -2 120
-15 120 -12 0 -15 -20 -15 -120z"/>
<path d="M10440 1730 c0 -100 3 -120 15 -120 13 0 15 20 15 120 0 100 -2 120
-15 120 -12 0 -15 -20 -15 -120z"/>
<path d="M10514 1839 c-10 -17 13 -36 27 -22 12 12 4 33 -11 33 -5 0 -12 -5
-16 -11z"/>
<path d="M10600 1730 c0 -100 3 -120 15 -120 11 0 15 11 15 40 0 22 4 40 9 40
4 0 21 -18 36 -40 15 -22 34 -40 41 -40 20 0 18 8 -17 51 l-31 39 31 37 c41
50 18 59 -25 10 -17 -21 -34 -37 -38 -37 -3 0 -6 32 -6 70 0 56 -3 70 -15 70
-12 0 -15 -20 -15 -120z"/>
<path d="M9224 1800 c-4 -18 -13 -30 -23 -30 -14 -1 -14 -2 1 -14 12 -9 18
-31 20 -77 l3 -64 33 0 c17 0 32 4 32 10 0 5 -8 10 -18 10 -14 0 -18 11 -20
58 -3 55 -2 57 23 57 14 0 25 5 25 10 0 6 -11 10 -25 10 -21 0 -25 5 -25 30 0
17 -5 30 -10 30 -6 0 -13 -13 -16 -30z"/>
<path d="M6020 1781 c0 -13 75 -71 91 -71 8 0 -6 18 -31 40 -46 40 -60 47 -60
31z"/>
<path d="M8287 1783 c-4 -3 -7 -18 -7 -33 l0 -27 -187 -6 c-104 -4 -263 -7
-355 -7 l-168 0 0 -35 0 -35 355 0 355 0 0 -30 c0 -49 24 -48 127 4 122 62
122 71 3 131 -89 45 -110 51 -123 38z"/>
<path d="M8580 1665 c0 -96 3 -115 15 -115 10 0 15 10 15 34 0 34 1 34 38 29
50 -7 77 22 77 82 0 70 -44 102 -98 74 -16 -9 -22 -9 -25 0 -2 6 -8 11 -13 11
-5 0 -9 -52 -9 -115z m95 81 c13 -9 19 -26 19 -50 0 -46 -23 -71 -58 -62 -24
6 -26 11 -26 56 0 36 5 52 18 59 22 14 25 13 47 -3z"/>
<path d="M8785 1755 c-32 -31 -34 -91 -5 -123 39 -42 120 -21 134 34 22 85
-71 148 -129 89z m80 -9 c22 -16 26 -76 6 -100 -16 -19 -52 -21 -69 -4 -17 17
-15 84 4 102 19 20 35 20 59 2z"/>
<path d="M9020 1774 c0 -3 14 -38 31 -77 28 -62 30 -75 20 -106 -11 -36 -7
-51 9 -35 5 5 25 47 45 94 56 131 56 130 41 130 -8 0 -25 -28 -39 -62 l-26
-63 -27 63 c-15 34 -33 62 -41 62 -7 0 -13 -3 -13 -6z"/>
<path d="M9536 1759 c-34 -27 -37 -98 -6 -129 24 -24 78 -26 106 -4 18 14 17
15 -18 9 -45 -7 -78 8 -78 35 0 18 7 20 55 20 52 0 55 1 55 25 0 32 -33 65
-64 65 -13 0 -35 -9 -50 -21z m78 -15 c26 -25 19 -34 -29 -34 -48 0 -62 19
-27 39 24 15 38 13 56 -5z"/>
<path d="M9802 1773 c-7 -3 -19 -18 -28 -35 -20 -39 -11 -92 19 -113 36 -25
107 -18 107 11 0 11 -4 12 -19 4 -31 -16 -59 -12 -75 12 -9 12 -16 26 -16 30
0 5 27 8 60 8 54 0 60 2 60 20 0 45 -63 81 -108 63z m72 -35 c14 -24 5 -30
-43 -26 -41 3 -41 3 -25 26 18 26 51 26 68 0z"/>
<path d="M9950 1695 c0 -69 3 -85 15 -85 12 0 15 14 15 65 0 53 3 66 19 75 25
13 27 13 45 -6 11 -10 16 -34 16 -75 0 -46 3 -59 15 -59 12 0 15 14 15 65 0
90 -34 125 -93 94 -16 -9 -22 -9 -25 0 -2 6 -8 11 -13 11 -5 0 -9 -38 -9 -85z"/>
<path d="M10156 1759 c-34 -27 -37 -98 -6 -129 22 -22 70 -26 101 -9 30 16 13
29 -21 16 -35 -13 -59 -3 -71 31 -8 21 -6 22 51 22 57 0 60 1 60 25 0 32 -33
65 -64 65 -13 0 -35 -9 -50 -21z m76 -16 c28 -25 22 -33 -27 -33 -46 0 -58 13
-33 38 17 17 38 15 60 -5z"/>
<path d="M10520 1696 c0 -71 3 -86 15 -86 13 0 15 14 13 82 -2 54 -7 83 -15
86 -10 3 -13 -18 -13 -82z"/>
<path d="M10775 1755 c-53 -52 -18 -145 55 -145 22 0 43 6 50 15 12 14 8 15
-27 9 -30 -4 -44 -2 -56 11 -32 31 -21 44 41 47 54 3 57 4 54 28 -3 31 -36 60
-69 60 -13 0 -35 -11 -48 -25z m76 -5 c36 -20 23 -40 -26 -40 -48 0 -55 9 -29
34 18 19 28 20 55 6z"/>
<path d="M10310 1710 c0 -5 18 -10 40 -10 22 0 40 5 40 10 0 6 -18 10 -40 10
-22 0 -40 -4 -40 -10z"/>
<path d="M6140 1545 c0 -88 1 -95 20 -95 18 0 20 7 21 68 l2 67 15 -68 c13
-59 18 -68 35 -65 16 2 24 17 36 68 l16 65 3 -67 c3 -60 5 -68 22 -68 18 0 20
7 20 95 l0 95 -29 0 c-32 0 -31 1 -51 -89 -14 -61 -22 -55 -40 32 -11 54 -13
57 -41 57 l-29 0 0 -95z"/>
<path d="M6370 1519 c0 -55 3 -69 15 -69 11 0 15 12 15 50 0 38 4 52 18 59 28
15 42 -6 42 -61 0 -37 4 -48 15 -48 13 0 15 12 13 68 l-3 67 -57 1 -58 1 0
-68z"/>
<path d="M6530 1461 c0 -10 207 -101 230 -101 28 0 -6 20 -114 65 -119 50
-116 49 -116 36z"/>
<path d="M1773 1450 c-24 -10 -43 -39 -43 -68 0 -23 26 -47 60 -56 58 -16 80
-29 80 -47 0 -12 -10 -21 -26 -25 -28 -7 -74 9 -74 26 0 5 -9 10 -20 10 -45 0
-13 -56 41 -70 46 -13 74 -6 107 23 45 42 17 99 -54 110 -22 4 -48 13 -59 21
-16 12 -17 16 -6 30 19 22 63 20 84 -5 32 -37 61 -8 30 30 -20 25 -85 36 -120
21z"/>
<path d="M5945 1421 c-54 -21 -101 -44 -103 -50 -2 -6 -1 -11 1 -11 13 0 212
81 221 90 19 19 -17 10 -119 -29z"/>
<path d="M9435 1440 c-8 -14 3 -30 21 -30 8 0 14 9 14 20 0 21 -24 28 -35 10z"/>
<path d="M9690 1330 c0 -73 4 -120 10 -120 6 0 10 47 10 120 0 73 -4 120 -10
120 -6 0 -10 -47 -10 -120z"/>
<path d="M5650 1330 c0 -82 3 -100 15 -100 11 0 15 11 15 40 0 40 0 40 39 40
47 0 71 20 71 60 0 39 -32 60 -92 60 l-48 0 0 -100z m118 43 c3 -17 -3 -26
-23 -33 -51 -19 -65 -14 -65 26 l0 35 43 -3 c35 -2 43 -7 45 -25z"/>
<path d="M9034 1400 c-4 -18 -13 -30 -23 -30 -14 -1 -14 -2 1 -14 12 -9 18
-31 20 -77 l3 -64 33 0 c17 0 32 4 32 10 0 5 -8 10 -18 10 -14 0 -18 11 -20
58 -3 55 -2 57 23 57 14 0 25 5 25 10 0 6 -11 10 -25 10 -21 0 -25 5 -25 30 0
17 -5 30 -10 30 -6 0 -13 -13 -16 -30z"/>
<path d="M6829 1381 c-48 -49 -35 -141 24 -169 37 -18 94 0 109 34 16 35 0 43
-24 11 -23 -32 -66 -36 -91 -9 -40 44 -9 142 43 142 11 0 29 -9 40 -20 21 -21
40 -26 40 -12 0 5 -10 18 -23 30 -34 32 -82 29 -118 -7z"/>
<path d="M7025 1386 c-32 -32 -41 -83 -22 -129 12 -28 24 -38 55 -48 36 -10
45 -9 74 8 61 35 70 140 15 178 -34 24 -94 19 -122 -9z m110 -21 c35 -34 30
-101 -9 -127 -21 -14 -66 -8 -86 12 -43 43 -8 140 50 140 12 0 32 -11 45 -25z"/>
<path d="M6291 1323 c2 -138 14 -269 23 -250 11 23 -3 327 -15 327 -5 0 -8
-35 -8 -77z"/>
<path d="M8580 1295 c0 -69 3 -85 15 -85 12 0 15 14 15 65 0 70 16 93 52 74
14 -8 18 -23 18 -74 0 -51 3 -65 15 -65 12 0 15 14 15 65 0 53 3 66 19 75 33
17 51 -12 51 -81 0 -46 3 -59 15 -59 25 0 21 124 -5 150 -24 24 -48 25 -78 4
-12 -8 -22 -11 -22 -5 0 16 -38 23 -62 10 -16 -9 -23 -9 -26 0 -2 6 -8 11 -13
11 -5 0 -9 -38 -9 -85z"/>
<path d="M8871 1366 c-15 -8 -20 -16 -13 -20 7 -4 20 -2 31 4 25 13 48 4 54
-21 6 -22 4 -24 -46 -33 -45 -8 -69 -45 -47 -71 14 -17 53 -20 81 -5 13 7 19
7 19 0 0 -5 5 -10 10 -10 17 0 12 136 -6 154 -19 19 -51 20 -83 2z m79 -99 c0
-20 -22 -37 -47 -37 -27 0 -42 28 -22 41 22 13 69 11 69 -4z"/>
<path d="M9155 1355 c-51 -50 -18 -145 50 -145 39 0 65 8 65 21 0 5 -17 6 -38
3 -29 -4 -43 -2 -55 11 -32 31 -21 44 41 47 54 3 57 4 54 28 -3 31 -36 60 -69
60 -13 0 -35 -11 -48 -25z m76 -5 c36 -20 23 -40 -26 -40 -48 0 -55 9 -29 34
18 19 28 20 55 6z"/>
<path d="M9317 1374 c-4 -4 -7 -43 -7 -86 0 -63 3 -78 15 -78 11 0 15 13 15
53 0 57 19 87 53 87 9 0 17 7 17 15 0 19 -34 19 -50 0 -11 -14 -14 -14 -24 0
-6 9 -15 13 -19 9z"/>
<path d="M9440 1295 c0 -69 3 -85 15 -85 12 0 15 16 15 85 0 69 -3 85 -15 85
-12 0 -15 -16 -15 -85z"/>
<path d="M9534 1366 c-24 -18 -13 -31 15 -16 27 14 61 -3 61 -30 0 -15 -7 -20
-28 -20 -42 0 -74 -27 -70 -58 2 -22 9 -28 36 -30 18 -2 39 2 47 8 9 8 15 8
20 0 16 -25 25 -5 25 55 0 52 -4 69 -20 85 -23 23 -58 26 -86 6z m76 -99 c0
-20 -21 -37 -46 -37 -29 0 -39 16 -24 35 15 19 70 20 70 2z"/>
<path d="M9778 1369 c-11 -6 -18 -22 -18 -38 0 -24 6 -31 41 -45 52 -21 51
-50 -1 -52 -52 -2 -56 -3 -40 -14 23 -15 77 -12 95 6 21 21 16 54 -10 68 -64
34 -67 37 -54 52 8 10 21 13 41 9 30 -7 40 8 12 19 -22 9 -46 7 -66 -5z"/>
<path d="M7770 1260 c0 -5 7 -7 15 -4 8 4 15 8 15 10 0 2 -7 4 -15 4 -8 0 -15
-4 -15 -10z"/>
<path d="M4720 1230 c6 -11 16 -20 22 -20 6 0 3 9 -7 20 -10 11 -20 20 -22 20
-2 0 1 -9 7 -20z"/>
<path d="M7746 1234 c-9 -23 -8 -24 14 -24 23 0 26 13 6 29 -11 9 -15 8 -20
-5z"/>
<path d="M5540 1165 c0 -8 5 -15 10 -15 6 0 10 7 10 15 0 8 -4 15 -10 15 -5 0
-10 -7 -10 -15z"/>
<path d="M5574 1167 c-10 -28 1 -180 14 -185 8 -2 12 9 12 36 0 39 0 39 45 44
25 3 52 11 60 18 20 16 19 64 -1 84 -20 20 -122 22 -130 3z m110 -23 c9 -8 16
-19 16 -23 0 -17 -27 -31 -62 -31 -35 0 -38 2 -38 28 0 16 3 32 7 35 12 13 62
7 77 -9z"/>
<path d="M4738 1158 c14 -14 16 -32 2 -23 -14 8 0 -26 18 -44 7 -8 12 -25 9
-38 -2 -13 0 -26 4 -29 5 -3 9 2 9 10 0 9 7 16 15 16 10 0 15 10 16 28 0 15 3
38 5 52 4 19 2 22 -8 12 -18 -18 -36 -15 -43 8 -3 11 -14 20 -23 20 -12 0 -13
-3 -4 -12z"/>
<path d="M7708 1143 c-10 -2 -18 -12 -17 -21 0 -11 2 -12 6 -4 2 6 8 10 13 7
4 -3 10 2 14 10 3 8 4 14 3 14 -1 -1 -10 -3 -19 -6z"/>
<path d="M5521 1093 c-19 -74 -24 -113 -12 -113 10 0 24 41 37 113 4 24 2 37
-5 37 -5 0 -15 -17 -20 -37z"/>
<path d="M5760 1055 c0 -43 4 -75 10 -75 6 0 10 21 10 48 0 52 6 65 34 76 14
5 16 10 8 18 -8 8 -15 8 -27 -2 -10 -8 -15 -9 -15 -1 0 6 -4 11 -10 11 -6 0
-10 -32 -10 -75z"/>
<path d="M7660 1101 c-11 -21 -10 -23 4 -18 9 4 16 1 16 -5 0 -6 2 -9 5 -6 3
3 2 16 -3 29 l-9 23 -13 -23z"/>
<path d="M4840 1100 c0 -5 5 -10 10 -10 6 0 10 5 10 10 0 6 -4 10 -10 10 -5 0
-10 -4 -10 -10z"/>
<path d="M4825 1051 c-2 -5 5 -21 16 -36 17 -20 24 -24 33 -14 8 8 8 13 -1 16
-7 3 -13 11 -13 18 0 15 -27 28 -35 16z"/>
<path d="M5852 1048 c-14 -14 -16 -38 -2 -38 6 0 10 6 10 14 0 16 27 29 41 20
20 -12 7 -43 -26 -64 -20 -13 -35 -30 -35 -41 0 -16 7 -19 45 -19 54 0 60 17
8 22 l-38 3 38 24 c33 20 38 28 35 55 -3 26 -7 31 -33 34 -17 2 -36 -3 -43
-10z"/>
<path d="M7602 1023 c-10 -16 -17 -34 -15 -40 3 -7 -2 -13 -10 -13 -16 0 -34
-18 -39 -40 -2 -8 -7 -18 -13 -22 -6 -5 -5 -8 3 -8 7 0 17 10 22 23 5 12 9 16
9 9 1 -10 4 -10 15 0 8 7 12 16 10 19 -2 3 10 16 26 28 19 14 30 31 30 46 0
33 -14 32 -38 -2z"/>
<path d="M6153 996 c-24 -21 -28 -31 -28 -79 0 -39 5 -61 19 -75 38 -43 116
-36 138 13 16 36 0 45 -24 12 -23 -32 -66 -36 -91 -9 -20 22 -22 91 -4 116 17
23 76 25 92 3 13 -18 35 -23 35 -8 0 18 -53 51 -81 51 -15 0 -41 -11 -56 -24z"/>
<path d="M6358 1005 c-59 -32 -57 -150 4 -181 84 -44 168 40 135 136 -19 55
-82 76 -139 45z m108 -40 c18 -28 14 -85 -7 -111 -16 -20 -83 -18 -100 3 -8 9
-14 35 -14 58 0 55 18 75 66 75 30 0 42 -5 55 -25z"/>
<path d="M4890 991 c0 -5 7 -12 16 -15 14 -5 15 -4 4 9 -14 17 -20 19 -20 6z"/>
<path d="M4910 949 c-11 -6 -12 -9 -2 -9 7 0 10 -4 7 -10 -3 -6 1 -7 9 -4 9 3
16 10 16 14 0 15 -15 19 -30 9z"/>
<path d="M2570 904 c-22 -67 -7 -211 22 -202 11 4 11 10 -3 63 -10 36 -6 94
12 154 2 7 -1 15 -8 18 -6 2 -17 -12 -23 -33z"/>
<path d="M2704 909 c17 -55 18 -125 2 -163 -19 -47 -19 -46 -2 -46 14 0 29 35
40 95 8 38 -15 127 -33 133 -11 4 -12 -1 -7 -19z"/>
<path d="M3377 923 c-12 -12 -7 -22 8 -17 8 4 15 10 15 15 0 11 -14 12 -23 2z"/>
<path d="M4941 921 c-16 -10 -6 -31 15 -31 8 0 13 -4 9 -9 -6 -11 42 -67 51
-58 13 13 -5 37 -22 30 -13 -5 -16 -3 -11 10 3 9 2 19 -4 23 -6 3 -13 14 -17
25 -5 12 -12 15 -21 10z"/>
<path d="M3545 890 c3 -5 8 -10 11 -10 2 0 4 5 4 10 0 6 -5 10 -11 10 -5 0 -7
-4 -4 -10z"/>
<path d="M3640 876 c0 -8 5 -18 10 -21 6 -3 10 3 10 14 0 12 -4 21 -10 21 -5
0 -10 -6 -10 -14z"/>
<path d="M7490 875 c0 -8 -5 -14 -11 -12 -6 1 -14 -4 -16 -11 -3 -8 3 -11 16
-9 22 3 52 27 36 27 -6 0 -3 5 5 10 12 8 11 10 -7 10 -14 0 -23 -6 -23 -15z"/>
<path d="M3760 860 c0 -5 5 -10 10 -10 6 0 10 5 10 10 0 6 -4 10 -10 10 -5 0
-10 -4 -10 -10z"/>
<path d="M3635 820 c-3 -5 -1 -10 4 -10 6 0 11 5 11 10 0 6 -2 10 -4 10 -3 0
-8 -4 -11 -10z"/>
<path d="M7416 795 c4 -8 -1 -17 -10 -21 -9 -3 -13 -10 -10 -15 3 -5 16 1 29
13 24 23 24 38 0 38 -9 0 -12 -6 -9 -15z"/>
<path d="M5035 790 c3 -5 8 -10 11 -10 2 0 4 5 4 10 0 6 -5 10 -11 10 -5 0 -7
-4 -4 -10z"/>
<path d="M5090 763 c0 -11 11 -30 25 -43 21 -20 25 -21 25 -6 0 9 -7 19 -15
22 -8 4 -13 10 -10 14 3 4 -2 13 -10 20 -12 10 -15 9 -15 -7z"/>
<path d="M1330 724 c-23 -70 -6 -194 27 -194 8 0 12 6 9 13 -29 71 -30 132 -1
200 5 12 3 17 -8 17 -9 0 -21 -16 -27 -36z"/>
<path d="M1467 754 c-3 -3 -1 -19 5 -35 10 -30 6 -135 -7 -176 -10 -32 9 -29
24 3 21 46 24 135 7 177 -17 39 -19 41 -29 31z"/>
<path d="M7366 751 c-4 -6 -4 -11 -1 -11 3 0 -3 -9 -14 -21 -12 -13 -24 -18
-32 -13 -8 5 -11 2 -6 -8 4 -12 1 -14 -14 -11 -10 3 -19 1 -19 -5 0 -6 -9 -14
-20 -17 -25 -8 -27 -26 -2 -22 19 3 102 57 120 79 6 8 7 19 3 27 -6 9 -11 10
-15 2z"/>
<path d="M568 723 c7 -3 16 -2 19 1 4 3 -2 6 -13 5 -11 0 -14 -3 -6 -6z"/>
<path d="M5155 699 c-4 -6 1 -16 11 -24 23 -16 28 -13 19 14 -7 23 -20 27 -30
10z"/>
<path d="M402 654 c-14 -15 -7 -58 8 -49 6 4 12 67 6 65 -1 -1 -7 -7 -14 -16z"/>
<path d="M280 629 c0 -11 4 -18 10 -14 5 3 7 12 3 20 -7 21 -13 19 -13 -6z"/>
<path d="M5240 640 c8 -5 22 -10 30 -10 13 0 13 1 0 10 -8 5 -22 10 -30 10
-13 0 -13 -1 0 -10z"/>
<path d="M7210 640 c-9 -6 -10 -10 -3 -10 6 0 15 5 18 10 8 12 4 12 -15 0z"/>
<path d="M2717 623 c-16 -15 -5 -23 33 -23 22 0 40 -2 40 -4 0 -2 -11 -24 -25
-47 -28 -49 -33 -89 -10 -89 8 0 19 16 24 38 6 20 20 52 31 70 32 53 28 62
-33 62 -30 0 -57 -3 -60 -7z"/>
<path d="M5300 610 c13 -9 13 -10 0 -10 -8 -1 -2 -6 13 -13 16 -7 29 -16 28
-20 -3 -20 0 -27 10 -27 6 0 9 7 5 15 -3 8 0 15 7 15 6 0 -5 11 -25 25 -20 14
-41 25 -45 25 -4 0 -1 -5 7 -10z"/>
<path d="M7179 601 c8 -5 10 -14 6 -22 -6 -11 -5 -11 5 -2 14 12 6 33 -13 33
-8 0 -7 -3 2 -9z"/>
<path d="M1532 588 c3 -7 21 -14 41 -16 20 -2 37 -5 37 -7 0 -1 -11 -23 -25
-46 -30 -52 -33 -92 -8 -87 11 2 20 17 25 41 4 21 19 54 33 75 14 20 25 40 25
44 0 5 -30 8 -66 8 -48 0 -65 -3 -62 -12z"/>
<path d="M6139 572 c-72 -37 -113 -98 -129 -189 -11 -66 -10 -70 16 -118 59
-109 121 -149 229 -149 111 0 180 46 229 154 23 50 25 62 16 113 -5 31 -14 66
-21 79 -68 128 -214 176 -340 110z m219 -14 c142 -66 165 -265 43 -369 -98
-85 -227 -77 -312 18 -47 52 -63 101 -56 174 9 98 70 169 165 195 55 15 101
10 160 -18z"/>
<path d="M6200 380 c0 -47 4 -80 10 -80 6 0 10 16 10 35 0 34 1 35 40 35 39 0
40 -1 40 -35 0 -19 5 -35 10 -35 6 0 10 33 10 80 0 47 -4 80 -10 80 -5 0 -10
-13 -10 -30 0 -28 -2 -30 -40 -30 -38 0 -40 2 -40 30 0 17 -4 30 -10 30 -6 0
-10 -33 -10 -80z"/>
<path d="M6118 414 c-5 -4 -8 -16 -8 -26 0 -11 -7 -18 -20 -18 -11 0 -20 -4
-20 -9 0 -5 9 -11 20 -14 12 -3 20 -14 20 -26 0 -28 18 -27 22 2 2 14 11 23
26 25 30 4 28 22 -2 22 -19 0 -25 6 -28 26 -2 14 -6 22 -10 18z"/>
<path d="M6370 365 c-17 -20 -5 -32 15 -15 13 10 18 11 28 1 9 -10 5 -18 -21
-39 -44 -37 -41 -52 9 -52 24 0 38 4 34 10 -3 6 -18 10 -33 10 l-27 0 33 21
c33 22 41 46 20 67 -17 17 -43 15 -58 -3z"/>
<path d="M7120 579 c-18 -8 -21 -12 -11 -18 9 -6 10 -10 2 -14 -7 -4 -8 -5 0
-3 6 1 10 6 10 11 0 6 10 15 22 22 26 15 12 16 -23 2z"/>
<path d="M272 560 c0 -14 2 -19 5 -12 2 6 2 18 0 25 -3 6 -5 1 -5 -13z"/>
<path d="M5406 539 c12 -13 25 -33 29 -44 7 -18 8 -19 12 -2 5 20 -11 43 -41
59 l-21 11 21 -24z"/>
<path d="M7065 540 c-3 -5 1 -10 10 -10 10 0 13 -5 9 -12 -4 -7 -3 -8 4 -4 12
7 5 36 -8 36 -5 0 -12 -4 -15 -10z"/>
<path d="M610 532 c0 -5 7 -9 15 -9 8 0 15 4 15 9 0 4 -7 8 -15 8 -8 0 -15 -4
-15 -8z"/>
<path d="M7030 489 c0 -5 5 -7 10 -4 6 3 10 8 10 11 0 2 -4 4 -10 4 -5 0 -10
-5 -10 -11z"/>
<path d="M5505 480 c-3 -5 -1 -10 4 -10 6 0 11 5 11 10 0 6 -2 10 -4 10 -3 0
-8 -4 -11 -10z"/>
<path d="M5532 471 c4 -13 18 -16 19 -4 0 4 -5 9 -11 12 -7 2 -11 -2 -8 -8z"/>
<path d="M6935 460 c-3 -5 1 -10 9 -10 9 0 16 5 16 10 0 6 -4 10 -9 10 -6 0
-13 -4 -16 -10z"/>
<path d="M6840 420 c0 -11 4 -20 9 -20 17 0 19 15 5 28 -12 11 -14 9 -14 -8z"/>
<path d="M6890 430 c0 -5 5 -10 10 -10 6 0 10 5 10 10 0 6 -4 10 -10 10 -5 0
-10 -4 -10 -10z"/>
<path d="M5605 420 c3 -5 11 -10 16 -10 6 0 7 5 4 10 -3 6 -11 10 -16 10 -6 0
-7 -4 -4 -10z"/>
<path d="M5670 410 c0 -5 7 -10 15 -10 8 0 15 5 15 10 0 6 -7 10 -15 10 -8 0
-15 -4 -15 -10z"/>
<path d="M5725 400 c4 -7 1 -16 -6 -21 -12 -7 -11 -9 1 -9 8 0 21 4 29 9 11 7
9 11 -9 21 -18 9 -21 9 -15 0z"/>
<path d="M6760 400 c0 -5 5 -10 10 -10 6 0 10 5 10 10 0 6 -4 10 -10 10 -5 0
-10 -4 -10 -10z"/>
<path d="M6690 386 c0 -2 9 -6 20 -9 11 -3 18 -1 14 4 -5 9 -34 13 -34 5z"/>
<path d="M5810 370 c0 -5 9 -10 19 -10 11 0 26 -7 35 -15 19 -19 50 -19 67 1
11 13 9 14 -14 9 -16 -4 -27 -3 -27 3 0 6 -8 8 -19 5 -10 -3 -22 0 -25 6 -9
14 -36 14 -36 1z"/>
<path d="M6628 373 c-10 -2 -18 -8 -18 -13 0 -5 -7 -7 -15 -4 -21 8 -19 -3 3
-15 13 -7 23 -4 39 15 12 13 18 23 15 23 -4 -1 -15 -3 -24 -6z"/>
<path d="M5775 360 c3 -5 8 -10 11 -10 2 0 4 5 4 10 0 6 -5 10 -11 10 -5 0 -7
-4 -4 -10z"/>
<path d="M6550 351 c0 -5 5 -13 10 -16 6 -3 10 -2 10 4 0 5 -4 13 -10 16 -5 3
-10 2 -10 -4z"/>
<path d="M5950 340 c0 -5 5 -10 10 -10 6 0 10 5 10 10 0 6 -4 10 -10 10 -5 0
-10 -4 -10 -10z"/>
<path d="M6516 325 c-3 -8 -1 -15 4 -15 6 0 10 7 10 15 0 8 -2 15 -4 15 -2 0
-6 -7 -10 -15z"/>
<path d="M6666 270 c-27 -68 -18 -203 17 -247 18 -24 27 -2 11 29 -25 48 -29
129 -10 187 18 57 20 71 7 71 -5 0 -16 -18 -25 -40z"/>
<path d="M9340 301 c0 -5 7 -25 15 -44 20 -47 19 -131 -1 -191 -9 -26 -13 -50
-10 -54 10 -10 24 16 42 77 18 61 13 131 -13 187 -16 32 -33 45 -33 25z"/>
<path d="M7550 180 c0 -100 3 -120 15 -120 13 0 15 20 15 120 0 100 -2 120
-15 120 -12 0 -15 -20 -15 -120z"/>
<path d="M8375 291 c-8 -15 3 -31 21 -31 9 0 14 7 12 17 -4 20 -24 28 -33 14z"/>
<path d="M8895 290 c-8 -14 3 -30 21 -30 8 0 14 9 14 20 0 21 -24 28 -35 10z"/>
<path d="M6750 175 l0 -115 60 0 c109 0 145 37 141 143 -1 17 -13 40 -30 58
-27 27 -35 29 -100 29 l-71 0 0 -115z m145 70 c34 -33 34 -93 2 -131 -19 -21
-33 -27 -68 -28 l-44 -1 -3 93 -3 92 46 0 c35 0 52 -6 70 -25z"/>
<path d="M8790 261 c0 -11 -8 -27 -17 -37 -13 -13 -14 -19 -5 -22 7 -2 12 -23
12 -57 0 -74 6 -85 46 -85 38 0 47 17 12 22 -20 3 -23 10 -26 61 l-3 57 46 0
45 0 0 -70 c0 -56 3 -70 15 -70 12 0 15 16 15 80 l0 80 -60 0 -60 0 0 30 c0
17 -4 30 -10 30 -5 0 -10 -9 -10 -19z"/>
<path d="M7016 208 c-36 -33 -39 -95 -6 -128 24 -24 91 -27 109 -6 10 12 5 14
-35 13 -42 -2 -50 1 -61 23 l-12 25 59 3 c54 3 60 5 60 25 0 28 -9 41 -37 56
-32 16 -49 14 -77 -11z m82 -25 c14 -23 14 -23 -32 -23 -49 0 -63 19 -28 39
24 15 42 10 60 -16z"/>
<path d="M7222 214 c-12 -8 -22 -10 -22 -5 0 6 -7 11 -15 11 -12 0 -15 -19
-15 -110 0 -91 3 -110 15 -110 10 0 15 10 15 33 0 32 1 32 38 29 51 -5 77 24
77 85 0 35 -5 49 -24 64 -28 23 -40 24 -69 3z m62 -47 c15 -41 -10 -82 -49
-82 -28 0 -30 3 -33 43 -4 51 12 74 47 70 18 -2 29 -12 35 -31z"/>
<path d="M7393 220 c-46 -19 -59 -99 -23 -138 26 -28 90 -30 113 -4 39 43 29
119 -19 141 -29 13 -41 13 -71 1z m81 -53 c20 -57 -48 -116 -81 -71 -16 23
-17 76 -1 92 7 7 26 12 43 10 22 -2 32 -10 39 -31z"/>
<path d="M7851 221 c-7 -5 -22 -6 -32 -4 -17 5 -19 -1 -19 -76 0 -64 3 -81 15
-81 11 0 15 16 17 68 l3 67 30 0 30 0 3 -67 c2 -50 7 -68 17 -68 10 0 15 18
17 68 l3 67 30 0 30 0 3 -67 c2 -52 6 -68 17 -68 12 0 15 15 15 65 0 52 -4 69
-20 85 -24 24 -38 25 -68 4 -20 -14 -24 -14 -38 0 -17 18 -33 20 -53 7z"/>
<path d="M8097 210 c-22 -18 -27 -29 -27 -66 0 -57 25 -84 79 -84 22 0 44 6
51 15 12 14 8 15 -28 9 -46 -7 -72 6 -72 37 0 16 8 19 55 19 51 0 55 2 55 23
0 57 -66 84 -113 47z m75 -17 c28 -25 22 -33 -27 -33 -48 0 -62 19 -27 39 24
14 33 13 54 -6z"/>
<path d="M8297 213 c-11 -11 -17 -13 -17 -5 0 7 -7 12 -15 12 -12 0 -15 -16
-15 -80 0 -64 3 -80 15 -80 11 0 15 13 15 54 0 56 16 86 46 86 8 0 14 7 14 15
0 20 -22 19 -43 -2z"/>
<path d="M8628 219 c-30 -17 -20 -28 18 -22 25 4 39 2 45 -8 14 -23 10 -39
-10 -39 -31 0 -79 -21 -85 -36 -11 -28 12 -54 47 -54 18 0 38 5 45 12 9 9 12
9 12 0 0 -7 7 -12 16 -12 25 0 16 137 -11 156 -22 16 -53 18 -77 3z m72 -102
c0 -20 -21 -37 -46 -37 -29 0 -39 16 -24 35 15 19 70 20 70 2z"/>
<path d="M9013 220 c-46 -18 -57 -89 -22 -134 29 -37 89 -37 118 0 35 44 22
111 -26 133 -28 13 -40 13 -70 1z m77 -39 c15 -29 12 -67 -6 -85 -21 -22 -61
-20 -74 3 -14 26 -13 74 2 89 19 19 66 15 78 -7z"/>
<path d="M9222 220 c-12 -5 -29 -7 -37 -4 -13 5 -15 -7 -15 -75 0 -64 3 -81
15 -81 11 0 15 16 17 68 3 66 4 67 32 70 37 5 46 -10 46 -80 0 -45 3 -58 15
-58 25 0 21 124 -5 150 -22 22 -33 23 -68 10z"/>
<path d="M7644 142 c30 -70 32 -81 20 -103 -17 -31 -17 -39 0 -39 8 0 19 12
24 27 5 16 26 65 46 111 27 63 32 82 20 82 -8 0 -18 -10 -23 -22 -5 -13 -15
-39 -23 -58 l-15 -35 -26 58 c-15 33 -32 57 -41 57 -12 0 -8 -16 18 -78z"/>
<path d="M8380 140 c0 -47 4 -80 10 -80 6 0 10 33 10 80 0 47 -4 80 -10 80 -6
0 -10 -33 -10 -80z"/>
<path d="M8450 211 c0 -6 18 -11 41 -13 l40 -3 -45 -60 c-25 -33 -46 -63 -46
-67 0 -5 29 -8 65 -8 74 0 89 17 19 22 l-45 3 45 60 c25 33 46 63 46 68 0 4
-27 7 -60 7 -33 0 -60 -4 -60 -9z"/>
</g>
</svg>
