<?xml version="1.0" standalone="no"?>
<!DOCTYPE svg PUBLIC "-//W3C//DTD SVG 20010904//EN"
 "http://www.w3.org/TR/2001/REC-SVG-20010904/DTD/svg10.dtd">
<svg version="1.0" xmlns="http://www.w3.org/2000/svg"
 width="423.000000pt" height="423.000000pt" viewBox="0 0 423.000000 423.000000"
 preserveAspectRatio="xMidYMid meet">
<metadata>
Created by potrace 1.16, written by Peter Selinger 2001-2019
</metadata>
<g transform="translate(0.000000,423.000000) scale(0.100000,-0.100000)"
fill="#000000" stroke="none">
<path d="M0 4085 l0 -145 423 -1 c232 0 485 -1 562 -2 l140 -2 3 -132 3 -133
-566 0 -565 0 0 -145 c0 -80 3 -145 8 -145 4 0 6 63 4 140 l-3 140 135 0 136
0 0 -145 c0 -80 3 -145 8 -145 4 0 7 64 7 142 l0 143 133 3 132 3 0 -146 c0
-90 4 -145 10 -145 6 0 10 55 10 145 l0 145 130 0 130 0 0 -145 0 -145 145 0
145 0 0 -130 0 -130 -145 0 c-90 0 -145 -4 -145 -10 0 -6 53 -10 140 -10 l140
0 0 -135 0 -136 -136 2 c-74 0 -138 -2 -141 -5 -4 -3 60 -6 141 -6 l147 0 -3
-132 -3 -133 -138 -2 c-76 -1 -141 -4 -145 -7 -3 -3 61 -6 141 -6 l147 0 0
-135 0 -134 -280 0 -281 0 1 137 c1 75 1 201 0 280 l0 142 -145 0 -145 0 0
-280 0 -280 -140 0 -140 0 0 -145 0 -145 140 0 140 0 0 -845 0 -845 145 0 145
0 0 140 0 140 845 0 845 0 -2 148 -2 147 -3 -142 -4 -143 -134 0 -135 0 0 147
c0 80 -3 144 -6 140 -3 -3 -5 -69 -5 -146 l2 -141 -136 0 -135 0 0 147 c0 80
-3 144 -6 141 -3 -4 -6 -69 -7 -145 l-2 -138 -132 -3 -133 -3 0 147 c0 81 -3
145 -6 142 -3 -4 -6 -69 -7 -145 l-2 -138 -132 -3 -133 -3 0 146 c0 90 -4 145
-10 145 -6 0 -10 -55 -10 -145 l0 -145 -130 0 -130 0 0 145 c0 90 -4 145 -10
145 -6 0 -10 -55 -10 -145 l0 -145 -128 0 -129 0 -7 238 c-3 130 -6 445 -6
699 l1 462 279 0 280 0 0 -134 0 -135 -147 0 c-80 0 -144 -3 -141 -6 4 -3 69
-6 145 -7 l138 -2 3 -132 3 -133 -147 0 c-81 0 -145 -3 -142 -6 4 -3 69 -6
145 -7 l138 -2 3 -132 3 -132 -143 -4 -143 -3 148 -2 147 -2 0 420 0 420 275
0 275 0 0 -140 0 -140 145 0 145 0 0 140 0 140 140 0 140 0 0 140 0 140 275 0
275 0 0 -140 0 -140 145 0 145 0 0 140 0 140 280 0 280 0 0 -135 0 -135 -147
0 c-80 0 -144 -3 -140 -6 3 -3 69 -5 146 -5 l141 2 0 -136 0 -135 -147 0 c-80
0 -144 -3 -141 -6 4 -3 69 -6 145 -7 l138 -2 3 -132 3 -133 -147 0 c-81 0
-145 -3 -142 -6 4 -3 69 -6 145 -7 l138 -2 3 -132 3 -133 -146 0 c-90 0 -145
-4 -145 -10 0 -6 55 -10 145 -10 l145 0 0 -130 0 -130 -145 0 c-90 0 -145 -4
-145 -10 0 -6 55 -10 145 -10 l145 0 0 -130 0 -130 -145 0 c-90 0 -145 -4
-145 -10 0 -6 55 -10 145 -10 l146 0 -3 -132 -3 -133 -418 -3 -417 -2 2 417 3
418 138 3 137 3 0 144 0 145 -140 0 -140 0 0 140 0 140 -145 0 -145 0 0 -140
0 -140 -560 0 -560 0 0 -145 0 -145 143 0 c78 0 330 0 560 0 l417 0 0 -420 0
-420 -420 0 -420 0 0 -145 0 -145 1270 0 1270 0 0 1130 0 1130 -140 0 -140 0
0 140 0 140 -140 0 -140 0 0 140 0 140 -147 -2 -148 -2 143 -3 143 -4 -3 -132
-3 -132 -277 -2 -278 -3 3 698 2 697 140 5 140 6 -137 2 -138 2 0 136 0 135
135 -3 c74 -2 135 0 135 5 0 4 -760 7 -1690 7 l-1690 0 0 -145z m280 0 l0
-135 -135 0 -135 0 0 135 0 135 135 0 135 0 0 -135z m280 0 l0 -135 -130 0
-130 0 0 135 0 135 130 0 130 0 0 -135z m280 0 l0 -135 -130 0 -130 0 0 135 0
135 130 0 130 0 0 -135z m280 0 l0 -135 -130 0 -130 0 0 135 0 135 130 0 130
0 0 -135z m288 -2 l3 -133 -136 0 -135 0 0 135 0 136 133 -3 132 -3 3 -132z
m282 2 l0 -135 -135 0 -135 0 0 135 0 135 135 0 135 0 0 -135z m280 0 l0 -135
-135 0 -135 0 0 135 0 135 135 0 135 0 0 -135z m280 0 l0 -135 -135 0 -135 0
0 135 0 135 135 0 135 0 0 -135z m280 0 l0 -135 -135 0 -135 0 0 135 0 135
135 0 135 0 0 -135z m280 0 l0 -135 -135 0 -135 0 0 135 0 135 135 0 135 0 0
-135z m280 0 l0 -135 -135 0 -135 0 0 128 c0 71 3 132 7 135 3 4 64 7 135 7
l128 0 0 -135z m-280 -845 l0 -700 -280 0 -280 0 0 -140 0 -140 -135 0 -135 0
0 275 0 275 280 0 280 0 0 145 0 145 -142 0 c-79 1 -205 1 -280 0 l-138 -1 0
281 0 280 135 0 135 0 0 -147 c0 -80 3 -144 6 -140 3 3 5 69 5 146 l-2 141
135 0 135 0 4 -142 3 -143 2 148 2 147 -700 0 -700 0 0 135 0 135 835 0 835 0
0 -700z m280 565 l0 -135 -135 0 -135 0 0 128 c0 71 3 132 7 135 3 4 64 7 135
7 l128 0 0 -135z m-1683 -288 c1 -76 4 -141 7 -145 3 -3 6 61 6 142 l0 147
133 -3 132 -3 2 -277 3 -278 -275 0 -275 0 0 280 0 281 133 -3 132 -3 2 -138z
m563 8 l0 -135 -135 0 -135 0 0 135 0 135 135 0 135 0 0 -135z m-850 -5 l0
-130 -130 0 -130 0 0 130 0 130 130 0 130 0 0 -130z m1970 0 l0 -130 -135 0
-135 0 0 130 0 130 135 0 135 0 0 -130z m-1120 -280 l0 -130 -135 0 -135 0 0
130 0 130 135 0 135 0 0 -130z m1120 0 l0 -130 -135 0 -135 0 0 130 0 130 135
0 135 0 0 -130z m-1682 -282 l-3 -133 -132 -3 -133 -3 0 136 0 135 135 0 136
0 -3 -132z m280 0 l-3 -133 -132 -3 -133 -3 0 136 0 135 135 0 136 0 -3 -132z
m280 0 l-3 -133 -132 -3 -133 -3 0 136 0 135 135 0 136 0 -3 -132z m282 -3 l0
-135 -135 0 -135 0 0 135 0 135 135 0 135 0 0 -135z m280 0 l0 -135 -135 0
-135 0 0 135 0 135 135 0 135 0 0 -135z m560 0 l0 -136 -132 3 -133 3 -3 133
-3 132 136 0 135 0 0 -135z m-2530 -280 l0 -135 -135 0 -135 0 0 135 0 135
135 0 135 0 0 -135z m1130 -140 l0 -275 -275 0 -275 0 0 275 0 275 275 0 275
0 0 -275z m280 140 l0 -135 -135 0 -135 0 0 135 0 135 135 0 135 0 0 -135z
m1120 0 l0 -136 -132 3 -133 3 -3 133 -3 132 136 0 135 0 0 -135z m-2530 -280
l0 -135 -135 0 -135 0 0 135 0 135 135 0 135 0 0 -135z m1410 0 l0 -135 -135
0 -135 0 0 135 0 135 135 0 135 0 0 -135z m560 0 l0 -135 -135 0 -135 0 0 135
0 135 135 0 135 0 0 -135z m280 0 l0 -135 -135 0 -135 0 0 135 0 135 135 0
135 0 0 -135z m280 0 l0 -136 -132 3 -133 3 -3 133 -3 132 136 0 135 0 0 -135z
m280 0 l0 -135 -130 0 -130 0 0 135 0 135 130 0 130 0 0 -135z m280 0 l0 -135
-130 0 -130 0 0 135 0 135 130 0 130 0 0 -135z m290 0 l0 -135 -135 0 -135 0
0 135 0 135 135 0 135 0 0 -135z m-3660 -280 l0 -135 -135 0 -135 0 0 135 0
135 135 0 135 0 0 -135z m280 0 l0 -135 -135 0 -135 0 0 135 0 135 135 0 135
0 0 -135z m280 0 l0 -135 -130 0 -130 0 0 135 0 135 130 0 130 0 0 -135z m280
0 l0 -135 -130 0 -130 0 0 135 0 135 130 0 130 0 0 -135z m290 0 l0 -135 -135
0 -135 0 0 135 0 135 135 0 135 0 0 -135z m280 0 l0 -135 -135 0 -135 0 0 135
0 135 135 0 135 0 0 -135z m280 0 l0 -135 -135 0 -135 0 0 135 0 135 135 0
135 0 0 -135z m280 0 l0 -135 -135 0 -135 0 0 135 0 135 135 0 135 0 0 -135z
m840 0 l0 -135 -135 0 -135 0 0 135 0 135 135 0 135 0 0 -135z m850 -845 l0
-980 -135 0 -135 0 0 980 0 980 135 0 135 0 0 -980z m280 845 l0 -135 -135 0
-135 0 0 135 0 135 135 0 135 0 0 -135z m-3660 -280 l0 -135 -135 0 -135 0 0
135 0 135 135 0 135 0 0 -135z m1410 0 l0 -135 -135 0 -135 0 0 135 0 135 135
0 135 0 0 -135z m2250 0 l0 -135 -135 0 -135 0 0 135 0 135 135 0 135 0 0
-135z m-3660 -280 l0 -135 -135 0 -135 0 0 135 0 135 135 0 135 0 0 -135z
m2250 0 l0 -135 -135 0 -135 0 0 135 0 135 135 0 135 0 0 -135z m1410 0 l0
-135 -135 0 -135 0 0 135 0 135 135 0 135 0 0 -135z m-3660 -280 l0 -135 -135
0 -135 0 0 128 c0 71 3 132 7 135 3 4 64 7 135 7 l128 0 0 -135z m1130 0 l0
-135 -135 0 -135 0 0 135 0 135 135 0 135 0 0 -135z m280 0 l0 -135 -135 0
-135 0 0 135 0 135 135 0 135 0 0 -135z m280 0 l0 -135 -135 0 -135 0 0 135 0
135 135 0 135 0 0 -135z m280 0 l0 -135 -135 0 -135 0 0 135 0 135 135 0 135
0 0 -135z m280 0 l0 -135 -135 0 -135 0 0 128 c0 71 3 132 7 135 3 4 64 7 135
7 l128 0 0 -135z m280 0 l0 -135 -135 0 -135 0 0 128 c0 71 3 132 7 135 3 4
64 7 135 7 l128 0 0 -135z m1128 -2 l3 -133 -136 0 -135 0 0 135 0 136 133 -3
132 -3 3 -132z m-3658 -283 l0 -130 -135 0 -135 0 0 130 0 130 135 0 135 0 0
-130z m2250 0 l0 -130 -135 0 -135 0 0 130 0 130 135 0 135 0 0 -130z m1410 0
l0 -130 -135 0 -135 0 0 130 0 130 135 0 135 0 0 -130z m-3660 -280 l0 -130
-135 0 -135 0 0 130 0 130 135 0 135 0 0 -130z m2250 0 l0 -130 -135 0 -135 0
0 130 0 130 135 0 135 0 0 -130z m1410 0 l0 -130 -135 0 -135 0 0 130 0 130
135 0 135 0 0 -130z m-3660 -285 l0 -135 -135 0 -135 0 0 135 0 135 135 0 135
0 0 -135z m2250 0 l0 -136 -132 3 -133 3 -3 133 -3 132 136 0 135 0 0 -135z
m1408 3 l-3 -133 -132 -3 -133 -3 0 136 0 135 135 0 136 0 -3 -132z m-2248
-283 l0 -135 -135 0 -135 0 0 135 0 135 135 0 135 0 0 -135z m280 0 l0 -135
-135 0 -135 0 0 135 0 135 135 0 135 0 0 -135z m280 0 l0 -135 -135 0 -135 0
0 135 0 135 135 0 135 0 0 -135z m280 0 l0 -135 -135 0 -135 0 0 135 0 135
135 0 135 0 0 -135z m280 0 l0 -136 -132 3 -133 3 -3 133 -3 132 136 0 135 0
0 -135z m280 0 l0 -135 -130 0 -130 0 0 135 0 135 130 0 130 0 0 -135z m280 0
l0 -135 -130 0 -130 0 0 135 0 135 130 0 130 0 0 -135z m288 3 l-3 -133 -132
-3 -133 -3 0 136 0 135 135 0 136 0 -3 -132z m282 -3 l0 -135 -135 0 -135 0 0
135 0 135 135 0 135 0 0 -135z"/>
<path d="M54 4168 c-4 -7 -3 -8 4 -4 8 5 12 -4 12 -28 0 -19 -6 -37 -12 -39
-7 -3 1 -5 17 -5 17 0 24 2 18 5 -8 2 -13 22 -13 44 0 38 -12 51 -26 27z"/>
<path d="M925 4169 c4 -10 -4 -29 -20 -48 l-27 -31 34 1 c23 1 26 3 11 6 l-23
4 22 30 c18 23 19 32 9 42 -10 9 -11 9 -6 -4z"/>
<path d="M2886 4142 c-3 -6 -1 -12 6 -14 19 -7 -3 -30 -23 -25 -11 3 -17 1
-13 -4 17 -27 62 8 46 37 -6 10 -12 13 -16 6z"/>
<path d="M1737 3613 c-14 -13 -6 -33 13 -33 29 0 27 -37 -2 -43 -20 -5 -20 -5
2 -4 33 3 42 46 11 54 -28 7 -27 21 2 26 20 4 20 4 1 6 -11 0 -24 -2 -27 -6z"/>
<path d="M342 2773 l28 -4 -20 -40 c-11 -21 -18 -39 -15 -39 5 0 45 75 45 85
0 3 -15 4 -32 4 -31 -2 -31 -2 -6 -6z"/>
<path d="M2294 2485 c-3 -8 -4 -20 -1 -27 3 -7 6 -2 6 11 1 18 5 22 21 18 11
-3 18 -1 14 4 -8 14 -34 11 -40 -6z"/>
<path d="M2325 2457 c-5 -7 -11 -21 -13 -32 -3 -18 -2 -18 13 3 17 24 17 48 0
29z"/>
<path d="M55 2205 c-17 -14 -17 -16 -2 -11 14 4 17 -1 17 -28 0 -19 -6 -37
-12 -39 -7 -3 -4 -6 7 -6 18 -1 21 4 17 37 -6 66 -5 64 -27 47z"/>
<path d="M118 2195 c-12 -27 2 -75 22 -75 7 0 4 7 -4 16 -17 16 -20 33 -10 58
16 41 51 -1 40 -46 l-6 -23 12 23 c8 17 8 28 0 47 -15 32 -39 32 -54 0z"/>
<path d="M3995 2210 c-3 -5 -2 -10 4 -10 5 0 12 -17 14 -37 3 -35 4 -34 5 10
2 44 -9 60 -23 37z"/>
<path d="M4070 2205 c-11 -13 -10 -14 5 -9 15 6 17 2 13 -29 -2 -21 0 -37 4
-37 4 0 8 20 8 45 0 47 -9 56 -30 30z"/>
<path d="M2584 1638 c-4 -7 -3 -8 4 -4 8 5 12 -4 12 -28 0 -19 -6 -37 -12 -39
-7 -3 1 -5 17 -5 17 0 24 2 18 5 -8 2 -13 22 -13 44 0 38 -12 51 -26 27z"/>
<path d="M2650 1639 c0 -5 5 -7 10 -4 6 3 10 8 10 11 0 2 -4 4 -10 4 -5 0 -10
-5 -10 -11z"/>
<path d="M2687 1634 c3 -9 -6 -27 -23 -45 l-28 -29 35 1 c28 1 30 2 11 8 l-24
6 21 19 c21 19 29 56 11 56 -5 0 -7 -7 -3 -16z"/>
<path d="M1455 1360 c-3 -5 -1 -10 4 -10 15 0 14 -57 -1 -63 -7 -3 1 -5 17 -5
17 0 24 2 18 5 -8 2 -13 22 -13 44 0 37 -12 51 -25 29z"/>
<path d="M1564 1361 c4 -6 2 -18 -4 -26 -9 -11 -9 -15 -1 -15 6 0 11 -7 11
-16 0 -12 -7 -15 -26 -11 -16 3 -22 1 -16 -5 6 -6 18 -8 28 -6 14 2 19 13 20
41 1 21 -3 40 -9 44 -6 3 -7 1 -3 -6z"/>
<path d="M334 798 c-4 -7 -3 -8 4 -4 8 5 12 -4 12 -28 0 -19 -6 -37 -12 -39
-7 -3 1 -5 17 -5 17 0 24 2 18 5 -8 2 -13 22 -13 44 0 38 -12 51 -26 27z"/>
<path d="M410 780 c-12 -16 -17 -30 -11 -30 5 0 13 9 16 20 9 29 28 25 23 -4
-3 -14 -1 -31 3 -38 5 -8 9 5 9 35 0 55 -10 59 -40 17z"/>
<path d="M1740 230 c-10 -6 -11 -10 -2 -10 7 0 12 -13 12 -29 0 -16 -6 -32
-12 -34 -7 -3 1 -6 17 -6 17 0 25 3 18 7 -6 4 -13 24 -15 44 -2 31 -6 36 -18
28z"/>
<path d="M1810 221 c0 -11 9 -21 21 -24 27 -7 20 -29 -12 -38 l-24 -7 26 -1
c36 -1 47 28 20 51 -26 20 -26 25 -3 31 13 4 11 5 -5 6 -16 1 -23 -5 -23 -18z"/>
<path d="M52 3591 c-22 -31 -20 -41 10 -41 10 0 18 -6 18 -12 0 -10 2 -10 8
-1 9 15 3 83 -7 83 -4 0 -17 -13 -29 -29z m28 -11 c0 -11 -7 -20 -15 -20 -18
0 -19 12 -3 28 16 16 18 15 18 -8z"/>
<path d="M894 3025 c-15 -28 -16 -37 -6 -47 11 -11 12 -10 6 5 -4 12 1 29 15
48 12 16 18 29 13 29 -5 0 -17 -16 -28 -35z"/>
<path d="M925 2996 c0 -13 3 -22 8 -19 4 2 7 13 7 24 0 10 -3 19 -7 19 -5 0
-8 -11 -8 -24z"/>
<path d="M3419 2773 c0 -4 -2 -22 -5 -40 -2 -18 0 -34 5 -37 5 -3 8 2 7 11 0
10 8 19 18 21 15 3 18 0 13 -17 -3 -12 -1 -21 4 -21 5 0 8 19 6 43 -2 35 -6
43 -24 45 -13 2 -23 0 -24 -5z m41 -12 c0 -14 -18 -23 -30 -16 -6 4 -8 11 -5
16 8 12 35 12 35 0z"/>
</g>
</svg>
