<?xml version="1.0" standalone="no"?>
<!DOCTYPE svg PUBLIC "-//W3C//DTD SVG 20010904//EN"
 "http://www.w3.org/TR/2001/REC-SVG-20010904/DTD/svg10.dtd">
<svg version="1.0" xmlns="http://www.w3.org/2000/svg"
 width="1280.000000pt" height="621.000000pt" viewBox="0 0 1280.000000 621.000000"
 preserveAspectRatio="xMidYMid meet">
<metadata>
Created by potrace 1.16, written by Peter Selinger 2001-2019
</metadata>
<g transform="translate(0.000000,621.000000) scale(0.100000,-0.100000)"
fill="#000000" stroke="none">
<path d="M2105 6131 c-74 -34 -115 -102 -115 -191 0 -98 47 -142 150 -141 31
0 75 7 97 16 39 15 41 19 53 77 6 33 14 66 17 74 4 11 -10 14 -75 14 -77 0
-80 -1 -84 -24 -5 -23 -2 -25 36 -28 73 -5 54 -60 -25 -73 -33 -6 -47 -3 -68
13 -24 18 -26 26 -26 86 0 65 1 69 37 102 49 45 98 47 135 6 19 -22 31 -27 54
-24 34 5 35 7 9 50 -36 59 -120 78 -195 43z"/>
<path d="M3945 6138 c-45 -16 -92 -66 -110 -116 -38 -113 5 -214 95 -222 74
-6 92 0 137 45 48 48 51 68 11 73 -18 2 -35 -7 -60 -32 -40 -40 -65 -45 -98
-18 -53 43 -26 175 44 209 29 13 40 14 62 4 14 -6 28 -20 31 -31 6 -21 37 -26
63 -10 13 8 13 14 -4 44 -31 57 -99 79 -171 54z"/>
<path d="M9304 6140 c-41 -13 -100 -79 -113 -127 -40 -143 34 -239 162 -211
34 7 55 20 82 49 41 46 41 63 1 67 -21 3 -35 -4 -55 -27 -37 -43 -73 -49 -105
-17 -72 71 22 248 110 207 14 -6 28 -20 31 -31 3 -12 14 -20 27 -20 55 1 58
36 7 84 -33 32 -94 42 -147 26z"/>
<path d="M12630 6132 c-19 -9 -41 -29 -50 -45 -13 -24 -13 -29 0 -37 23 -15
50 -12 50 5 0 22 46 48 74 41 45 -11 39 -34 -29 -106 -70 -74 -80 -100 -41
-100 17 0 44 20 88 66 35 36 67 74 72 84 14 30 -2 69 -37 90 -40 25 -81 25
-127 2z"/>
<path d="M175 6113 c-3 -15 -17 -79 -30 -143 -13 -64 -27 -128 -30 -143 -7
-26 -5 -27 28 -27 39 0 38 -1 57 93 l11 57 66 0 66 0 -7 -32 c-4 -18 -10 -52
-13 -76 l-6 -43 34 3 33 3 33 155 c18 85 33 161 33 168 0 7 -13 12 -34 12 -34
0 -34 0 -46 -65 l-12 -65 -65 0 -66 0 7 43 c4 23 9 52 13 65 5 20 1 22 -30 22
-29 0 -36 -4 -42 -27z"/>
<path d="M1472 6080 c-13 -59 -13 -60 -35 -45 -31 22 -89 19 -122 -7 -57 -45
-74 -154 -32 -203 25 -30 77 -36 116 -16 14 8 21 8 21 1 0 -5 14 -10 30 -10
17 0 30 2 30 4 0 3 16 77 35 166 19 89 35 163 35 166 0 2 -15 4 -33 4 -32 0
-33 -1 -45 -60z m-42 -99 c15 -30 12 -62 -10 -98 -15 -25 -27 -33 -50 -33 -51
0 -63 65 -24 128 19 28 69 30 84 3z"/>
<path d="M3415 6128 c-7 -19 -65 -304 -65 -317 0 -8 12 -11 32 -9 31 3 32 5
49 82 13 62 22 85 43 103 30 25 35 27 55 14 12 -8 12 -21 -2 -93 -22 -108 -22
-108 12 -108 33 0 31 -4 57 117 16 78 16 84 0 109 -15 22 -23 25 -59 22 -23
-3 -50 -8 -61 -13 -15 -7 -17 -5 -13 11 3 10 9 36 13 57 6 36 6 37 -25 37 -17
0 -34 -6 -36 -12z"/>
<path d="M5425 6118 c-10 -44 -65 -309 -65 -313 0 -3 15 -5 34 -5 31 0 34 3
40 38 3 20 19 97 35 170 l28 132 -33 0 c-27 0 -35 -5 -39 -22z"/>
<path d="M5695 6128 c-8 -22 -65 -298 -65 -313 0 -10 11 -15 35 -15 24 0 35 5
35 15 0 7 5 36 11 63 l10 49 75 5 c68 5 79 8 106 35 22 22 32 43 35 76 5 39 2
49 -20 71 -24 24 -32 26 -122 26 -67 0 -97 -4 -100 -12z m149 -48 c32 -12 34
-42 6 -70 -14 -14 -33 -20 -66 -20 l-47 0 7 42 c4 22 9 45 12 50 7 11 57 10
88 -2z"/>
<path d="M6917 6133 c-4 -3 -7 -17 -7 -30 0 -19 5 -23 29 -23 28 0 41 14 41
46 0 14 -50 20 -63 7z"/>
<path d="M7735 6118 c-8 -37 -65 -311 -65 -315 0 -8 168 -2 199 7 73 21 121
96 121 187 0 67 -25 118 -66 133 -14 6 -61 10 -104 10 -74 0 -80 -1 -85 -22z
m169 -54 c21 -20 21 -105 1 -144 -22 -43 -53 -60 -108 -60 -36 0 -48 3 -44 13
3 7 12 51 22 98 9 46 18 90 20 97 6 18 90 15 109 -4z"/>
<path d="M8080 6126 c0 -8 -3 -21 -6 -30 -5 -13 1 -16 29 -16 28 0 36 5 41 23
9 35 8 37 -29 37 -24 0 -35 -5 -35 -14z"/>
<path d="M9802 5983 c-18 -87 -32 -164 -32 -170 0 -8 13 -13 30 -13 23 0 31 5
35 23 10 43 65 308 65 312 0 3 -15 5 -33 5 l-33 0 -32 -157z"/>
<path d="M9965 6128 c-6 -20 -65 -307 -65 -319 0 -6 14 -9 32 -7 l32 3 33 155
c18 85 33 161 33 168 0 7 -13 12 -30 12 -17 0 -32 -6 -35 -12z"/>
<path d="M10200 5983 c-18 -87 -35 -164 -37 -170 -4 -9 6 -13 29 -13 l35 0 24
128 c23 125 24 126 30 77 4 -27 8 -85 8 -128 l1 -78 36 3 c34 3 36 6 81 103
25 55 49 111 54 124 19 49 17 12 -7 -94 -13 -61 -24 -116 -24 -122 0 -8 12
-13 30 -13 23 0 31 5 35 23 8 37 55 300 55 309 0 5 -23 8 -51 6 l-51 -3 -47
-102 c-25 -56 -49 -105 -53 -109 -5 -4 -8 36 -8 89 0 52 -3 102 -6 111 -4 12
-20 16 -54 16 l-47 0 -33 -157z"/>
<path d="M3283 6108 c-19 -11 -33 -28 -33 -39 0 -12 -7 -19 -19 -19 -12 0 -20
-9 -23 -25 -4 -18 -1 -25 10 -25 11 0 13 -8 8 -32 -3 -18 -9 -59 -12 -91 -8
-67 -1 -77 57 -77 29 0 38 4 42 21 4 15 0 23 -14 26 -22 6 -24 30 -7 102 9 38
16 51 32 53 29 4 36 48 7 48 -12 0 -19 5 -17 13 12 36 15 67 9 66 -5 0 -23
-10 -40 -21z"/>
<path d="M4825 6110 c-16 -11 -33 -28 -37 -40 -4 -11 -14 -20 -23 -20 -8 0
-15 -4 -15 -9 0 -5 -3 -16 -6 -25 -4 -11 -1 -16 10 -16 20 0 20 -3 0 -86 -18
-79 -10 -109 31 -116 42 -9 65 1 65 28 0 17 -6 24 -20 24 -24 0 -24 -5 -4 81
12 54 19 69 34 69 16 0 30 18 30 41 0 5 -9 9 -20 9 -20 0 -21 14 -4 68 5 16
-5 14 -41 -8z"/>
<path d="M6523 6109 c-18 -11 -35 -29 -38 -39 -3 -10 -15 -20 -25 -23 -24 -6
-28 -47 -4 -47 12 0 15 -6 10 -22 -21 -79 -29 -148 -17 -161 27 -33 101 -24
101 13 0 14 -7 20 -21 20 -19 0 -21 4 -15 38 16 85 27 112 45 112 27 0 36 41
10 47 -16 5 -18 11 -13 44 4 22 5 39 3 39 -2 0 -18 -10 -36 -21z"/>
<path d="M8963 6109 c-18 -12 -33 -27 -33 -35 0 -8 -8 -18 -17 -21 -33 -12
-46 -53 -18 -53 18 0 18 8 -1 -83 -20 -98 -12 -117 51 -117 41 0 45 2 45 25 0
18 -5 25 -20 25 -25 0 -25 -5 5 128 3 14 13 22 25 22 11 0 20 4 20 9 0 5 3 16
6 25 4 12 0 16 -15 16 -21 0 -22 13 -5 68 5 17 -6 15 -43 -9z"/>
<path d="M12463 6108 c-19 -11 -33 -28 -33 -39 0 -12 -7 -19 -20 -19 -11 0
-20 -4 -20 -9 0 -5 -3 -16 -6 -25 -4 -11 -1 -16 10 -16 19 0 19 -14 2 -95 -16
-73 -8 -98 30 -105 41 -8 61 -1 67 21 4 15 -1 23 -19 29 -13 5 -22 15 -19 22
2 7 9 39 15 70 9 47 15 57 33 60 30 4 37 48 8 48 -12 0 -19 5 -17 13 12 36 15
67 9 66 -5 0 -23 -10 -40 -21z"/>
<path d="M528 6034 c-73 -39 -87 -176 -21 -219 35 -23 119 -22 152 3 73 53 80
185 12 222 -28 15 -112 12 -143 -6z m110 -46 c7 -7 12 -28 12 -49 0 -48 -32
-89 -70 -89 -51 0 -66 59 -30 118 15 24 27 32 48 32 15 0 33 -5 40 -12z"/>
<path d="M760 6043 c0 -5 7 -55 15 -113 8 -58 15 -111 15 -118 0 -9 11 -12 32
-10 29 3 36 10 67 73 l34 70 8 -40 c4 -22 8 -55 8 -72 1 -30 4 -33 34 -33 31
0 34 3 90 115 31 63 57 120 57 125 0 6 -13 10 -30 10 -27 0 -33 -7 -67 -77
l-37 -78 -6 75 -5 75 -31 3 c-30 3 -32 0 -64 -72 -18 -42 -37 -76 -41 -76 -5
0 -9 17 -9 38 0 20 -3 54 -6 75 -6 33 -10 37 -35 37 -16 0 -29 -3 -29 -7z"/>
<path d="M1612 6030 c-75 -46 -82 -183 -11 -221 30 -16 102 -13 137 5 31 16
72 86 72 123 0 40 -23 84 -51 98 -40 21 -108 19 -147 -5z m116 -42 c18 -18 14
-69 -8 -105 -15 -25 -27 -33 -48 -33 -38 0 -52 17 -52 61 0 67 69 116 108 77z"/>
<path d="M2385 6038 c-10 -27 -45 -199 -45 -218 0 -15 7 -20 29 -20 28 0 30 3
45 72 18 77 45 118 81 118 18 0 45 33 45 55 0 15 -57 2 -77 -17 l-23 -21 0 21
c0 17 -6 22 -25 22 -14 0 -28 -6 -30 -12z"/>
<path d="M2594 6031 c-33 -20 -64 -82 -64 -127 0 -33 25 -81 49 -94 32 -17
113 -12 147 9 75 46 85 183 15 221 -32 17 -113 12 -147 -9z m114 -43 c19 -19
14 -82 -9 -112 -23 -30 -69 -35 -89 -11 -17 20 -7 91 16 116 19 21 64 25 82 7z"/>
<path d="M2830 6038 c0 -7 7 -60 15 -118 8 -58 15 -108 15 -112 0 -5 13 -8 30
-8 27 0 33 7 67 73 l37 72 9 -72 c9 -72 9 -73 38 -73 27 0 33 8 89 120 33 66
60 122 60 125 0 3 -14 5 -31 5 -28 0 -33 -6 -67 -77 l-37 -78 -2 45 c-6 96
-11 110 -42 110 -26 0 -32 -7 -62 -75 -19 -41 -37 -75 -41 -75 -5 0 -8 13 -8
29 0 15 -3 49 -6 75 -6 43 -9 46 -35 46 -17 0 -29 -5 -29 -12z"/>
<path d="M4212 6030 c-67 -41 -83 -160 -27 -207 33 -29 112 -32 156 -6 32 19
69 85 69 122 0 36 -29 87 -56 100 -39 17 -105 13 -142 -9z m116 -42 c18 -18
14 -69 -8 -105 -15 -25 -27 -33 -48 -33 -38 0 -52 17 -52 61 0 67 69 116 108
77z"/>
<path d="M4487 6043 c-7 -12 -47 -200 -47 -223 0 -15 7 -20 29 -20 28 0 30 3
41 58 17 81 34 118 65 138 23 15 28 15 41 2 13 -12 13 -23 -1 -89 -9 -41 -18
-82 -21 -91 -4 -15 1 -18 30 -18 20 0 36 2 36 5 0 2 9 47 21 100 20 89 20 97
5 120 -20 30 -70 34 -117 10 -22 -12 -29 -12 -27 -3 3 14 -47 24 -55 11z"/>
<path d="M4926 6024 c-8 -30 -46 -214 -46 -221 0 -2 14 -3 32 -1 30 3 33 6 49
71 21 84 42 117 74 117 17 0 29 9 40 30 15 30 15 30 -13 30 -15 0 -38 -7 -50
-16 -20 -14 -22 -14 -22 0 0 11 -9 16 -29 16 -23 0 -30 -6 -35 -26z"/>
<path d="M5136 6029 c-37 -29 -56 -71 -56 -123 0 -78 64 -123 149 -105 99 21
140 169 65 228 -37 29 -121 29 -158 0z m125 -50 c14 -28 3 -85 -22 -110 -46
-46 -112 -1 -90 63 6 17 19 40 28 50 23 25 69 23 84 -3z"/>
<path d="M5980 5993 c-6 -32 -18 -86 -26 -121 -8 -35 -14 -65 -14 -68 0 -2 15
-4 34 -4 33 0 34 1 46 62 17 86 34 117 71 125 27 5 59 35 59 55 0 14 -55 8
-78 -8 -20 -14 -22 -14 -22 0 0 11 -9 16 -29 16 -28 0 -30 -3 -41 -57z"/>
<path d="M6211 6037 c-40 -20 -64 -62 -69 -121 -4 -51 -2 -57 26 -86 29 -29
52 -35 112 -30 66 5 114 66 114 144 0 42 -4 52 -32 77 -26 23 -42 29 -80 29
-26 0 -58 -6 -71 -13z m107 -49 c18 -18 14 -69 -8 -105 -15 -25 -27 -33 -48
-33 -38 0 -52 17 -52 61 0 67 69 116 108 77z"/>
<path d="M6642 6025 c-16 -13 -35 -38 -42 -55 -16 -39 -8 -115 15 -140 25 -27
78 -41 117 -29 30 8 78 45 78 60 0 16 -48 14 -70 -3 -29 -23 -45 -23 -70 2
-34 34 -24 40 65 40 l85 0 0 50 c0 71 -29 100 -99 100 -38 0 -56 -6 -79 -25z
m99 -25 c11 -6 19 -21 19 -35 0 -23 -4 -25 -44 -25 -56 0 -64 13 -32 45 28 28
30 29 57 15z"/>
<path d="M6895 6038 c-7 -23 -45 -213 -45 -226 0 -9 11 -12 32 -10 l32 3 23
110 c28 141 29 135 -7 135 -17 0 -32 -6 -35 -12z"/>
<path d="M7030 6045 c0 -3 -11 -57 -25 -121 -14 -64 -25 -117 -25 -120 0 -2
15 -4 34 -4 31 0 34 3 40 38 17 94 36 142 64 155 54 28 64 -4 37 -118 -19 -79
-20 -77 17 -73 32 3 33 5 50 73 21 90 22 140 2 159 -20 20 -83 21 -112 0 -20
-14 -22 -14 -22 0 0 11 -10 16 -30 16 -16 0 -30 -2 -30 -5z"/>
<path d="M7325 6025 c-46 -45 -29 -93 42 -120 64 -23 73 -33 49 -51 -27 -20
-52 -18 -74 7 -16 17 -25 19 -52 12 l-33 -9 24 -27 c49 -57 158 -54 202 5 32
42 15 78 -48 103 -72 29 -78 34 -64 51 15 18 39 18 67 -2 24 -16 72 -12 72 6
0 6 -9 19 -20 30 -16 16 -33 20 -80 20 -51 0 -65 -4 -85 -25z"/>
<path d="M8067 6043 c-8 -12 -47 -200 -47 -223 0 -16 7 -20 30 -20 17 0 30 2
30 4 0 3 11 56 25 120 14 64 25 118 25 121 0 8 -58 6 -63 -2z"/>
<path d="M8171 5939 c-13 -61 -25 -117 -28 -125 -4 -10 4 -14 30 -14 l35 0 16
73 c17 77 43 117 76 117 17 0 50 34 50 52 0 14 -55 8 -78 -8 -20 -14 -22 -14
-22 0 0 11 -9 16 -29 16 -28 0 -28 -1 -50 -111z"/>
<path d="M8411 6037 c-80 -41 -94 -188 -22 -227 26 -14 97 -13 124 2 22 11 46
37 47 50 0 16 -47 12 -72 -6 -22 -16 -32 -17 -51 -9 -13 6 -27 21 -30 32 -5
20 -1 21 79 21 80 0 84 1 90 24 8 34 -13 93 -39 111 -26 18 -93 19 -126 2z
m90 -48 c29 -29 19 -44 -31 -47 -57 -4 -69 10 -37 42 31 31 41 32 68 5z"/>
<path d="M8673 6030 c-43 -26 -63 -68 -63 -130 0 -71 29 -100 101 -100 45 0
55 4 86 35 19 19 32 39 28 45 -11 18 -59 11 -73 -10 -16 -26 -58 -26 -72 0
-14 27 -3 83 21 109 23 24 67 28 75 6 7 -16 74 -22 74 -6 0 5 -12 23 -26 40
-22 27 -33 31 -72 31 -29 0 -59 -8 -79 -20z"/>
<path d="M9566 6029 c-37 -29 -56 -71 -56 -124 0 -38 5 -52 29 -76 25 -24 38
-29 79 -29 40 0 57 6 81 26 17 14 31 30 31 35 0 15 -67 10 -80 -6 -17 -20 -36
-19 -60 5 -34 34 -24 40 65 40 l85 0 0 50 c0 70 -29 100 -98 100 -35 0 -57 -6
-76 -21z m95 -29 c11 -6 19 -21 19 -35 0 -23 -4 -25 -50 -25 -58 0 -66 16 -24
49 31 24 30 24 55 11z"/>
<path d="M10632 6030 c-73 -45 -84 -172 -18 -215 33 -22 103 -22 142 -2 34 17
74 86 74 126 0 36 -29 87 -56 100 -39 17 -105 13 -142 -9z m116 -42 c18 -18
14 -69 -8 -105 -15 -25 -27 -33 -48 -33 -38 0 -52 17 -52 61 0 67 69 116 108
77z"/>
<path d="M10870 6047 c0 -6 37 -192 45 -224 4 -17 13 -23 33 -23 24 0 35 13
94 109 89 142 88 141 47 141 -32 0 -37 -5 -79 -79 -24 -44 -46 -78 -48 -77 -1
2 -8 37 -15 77 -12 73 -13 74 -45 77 -17 2 -32 1 -32 -1z"/>
<path d="M11173 6016 c-33 -30 -37 -39 -41 -94 -4 -58 -3 -63 26 -92 26 -25
38 -30 80 -30 40 0 57 6 81 26 39 32 39 41 1 46 -21 3 -35 -1 -47 -14 -21 -23
-45 -23 -66 0 -32 35 -21 42 68 42 l85 0 0 50 c0 71 -29 100 -100 100 -43 0
-55 -5 -87 -34z m119 -30 c4 -6 8 -19 8 -28 0 -15 -9 -18 -50 -18 -58 0 -66
16 -24 49 25 20 51 18 66 -3z"/>
<path d="M11411 5943 c-12 -60 -25 -116 -27 -125 -4 -15 1 -18 29 -18 l34 0
18 82 c12 55 25 89 41 105 50 50 64 19 41 -91 -10 -45 -17 -85 -17 -89 0 -5
14 -7 32 -5 32 3 33 5 50 83 19 83 52 131 83 119 18 -7 18 -21 0 -104 -21 -95
-20 -100 15 -100 23 0 31 5 35 23 42 190 42 189 19 211 -20 21 -78 20 -110 -1
-25 -16 -27 -16 -36 0 -11 20 -68 23 -101 6 -16 -9 -22 -9 -25 0 -2 6 -16 11
-31 11 -27 0 -28 -2 -50 -107z"/>
<path d="M11863 6016 c-33 -29 -37 -39 -41 -92 -3 -49 0 -64 18 -86 39 -50
126 -54 176 -7 31 29 30 36 -6 41 -21 3 -35 -1 -47 -14 -21 -23 -45 -23 -66 0
-32 35 -21 42 68 42 l85 0 0 50 c0 71 -29 100 -100 100 -43 0 -55 -5 -87 -34z
m111 -22 c9 -8 16 -24 16 -35 0 -16 -7 -19 -50 -19 -58 0 -66 16 -24 49 32 25
38 26 58 5z"/>
<path d="M12125 6038 c-7 -20 -45 -208 -45 -224 0 -9 11 -14 29 -14 32 0 33 1
51 94 9 42 21 68 40 88 31 30 38 32 59 19 12 -8 12 -21 -2 -93 -22 -108 -22
-108 12 -108 33 0 32 -2 56 118 15 76 15 85 1 108 -18 27 -70 33 -109 13 -16
-9 -22 -9 -25 0 -5 15 -61 14 -67 -1z"/>
<path d="M3646 5945 c-17 -46 -9 -55 54 -55 62 0 66 3 72 45 3 18 -3 20 -58
23 -49 2 -63 0 -68 -13z"/>
<path d="M12600 5851 c-20 -38 -13 -53 23 -49 28 3 32 7 35 36 3 28 0 32 -22
32 -15 0 -30 -8 -36 -19z"/>
<path d="M4719 5173 l-162 -148 81 -3 82 -3 0 -719 0 -720 170 0 170 0 0 720
0 719 82 3 81 3 -163 148 c-90 81 -167 147 -172 147 -4 0 -80 -66 -169 -147z"/>
<path d="M8810 4975 c0 -158 1 -165 20 -165 11 0 20 5 20 12 0 9 3 9 12 0 7
-7 31 -12 54 -12 35 0 47 5 67 30 60 71 39 184 -39 210 -27 9 -40 9 -64 -3
l-30 -15 0 54 c0 47 -2 54 -20 54 -19 0 -20 -7 -20 -165z m144 26 c23 -26 25
-102 2 -135 -19 -30 -60 -35 -88 -9 -23 21 -25 109 -2 141 19 28 64 29 88 3z"/>
<path d="M9560 4975 c0 -158 1 -165 20 -165 17 0 20 7 20 49 0 31 5 53 15 61
12 10 21 2 52 -49 28 -45 44 -61 61 -61 12 0 22 2 22 5 0 3 -21 37 -47 75
l-46 71 43 44 c41 42 43 45 20 45 -16 0 -42 -17 -72 -47 l-48 -47 0 92 c0 85
-1 92 -20 92 -19 0 -20 -7 -20 -165z"/>
<path d="M5480 4952 c0 -165 1 -172 20 -172 18 0 20 7 20 75 l0 75 43 0 c49 0
67 -15 121 -97 29 -45 76 -71 76 -43 0 13 -53 93 -83 128 -18 20 -19 22 -3 22
9 0 28 11 41 25 33 32 33 84 3 120 -21 23 -32 26 -130 32 l-108 6 0 -171z
m200 108 c11 -11 20 -27 20 -35 0 -8 -9 -24 -20 -35 -16 -16 -33 -20 -90 -20
l-70 0 0 55 0 55 70 0 c57 0 74 -4 90 -20z"/>
<path d="M5903 5108 c-11 -14 -124 -308 -123 -321 0 -5 10 -7 21 -5 15 2 26
17 38 48 l17 45 73 0 73 0 17 -45 c12 -32 23 -46 39 -48 12 -2 22 1 22 7 0 6
-29 82 -64 168 -49 120 -69 159 -84 161 -10 2 -23 -3 -29 -10z m52 -111 c14
-37 25 -70 25 -72 0 -3 -24 -5 -54 -5 l-54 0 26 74 c15 41 28 73 29 72 1 -1
14 -32 28 -69z"/>
<path d="M6168 5104 c-32 -17 -48 -43 -48 -76 0 -43 27 -66 103 -89 105 -31
128 -58 87 -99 -30 -30 -103 -28 -135 5 -14 13 -25 29 -25 35 0 5 -9 10 -20
10 -29 0 -25 -34 8 -71 24 -27 37 -33 85 -37 69 -5 113 11 132 49 38 72 11
110 -100 144 -64 20 -86 31 -91 47 -9 30 27 58 75 58 42 0 54 -7 70 -37 11
-22 51 -32 51 -13 0 24 -26 63 -51 76 -36 18 -106 17 -141 -2z"/>
<path d="M9123 5049 c-29 -8 -63 -42 -63 -61 0 -16 36 -7 53 12 31 37 107 22
107 -21 0 -17 -8 -20 -93 -35 -37 -6 -77 -42 -77 -69 0 -7 9 -24 21 -39 17
-21 29 -26 65 -26 24 0 54 6 65 13 17 10 23 10 26 0 3 -7 13 -13 22 -13 16 0
18 10 13 103 -3 77 -8 106 -21 119 -21 21 -77 30 -118 17z m97 -149 c0 -37
-35 -63 -82 -58 -27 2 -34 8 -36 30 -3 22 2 28 30 36 31 10 63 18 81 21 4 0 7
-12 7 -29z"/>
<path d="M9393 5052 c-82 -24 -106 -150 -42 -218 17 -19 33 -24 68 -24 25 0
53 6 62 13 22 17 41 55 34 67 -9 15 -35 12 -35 -3 0 -22 -34 -47 -63 -47 -37
0 -57 34 -57 96 0 37 5 56 18 67 25 23 69 21 89 -3 16 -18 53 -28 53 -14 0 19
-26 48 -55 60 -37 15 -39 15 -72 6z"/>
<path d="M881 4904 c-58 -74 1 -273 199 -674 60 -121 107 -220 104 -220 -3 0
8 -25 25 -55 17 -30 31 -64 31 -75 0 -13 -21 -33 -62 -61 -48 -32 -116 -59
-283 -114 -267 -88 -310 -107 -425 -185 -181 -125 -274 -233 -251 -293 16 -40
63 -52 206 -51 107 0 148 5 230 27 171 45 284 59 540 64 261 6 311 0 350 -43
42 -45 75 -165 96 -343 10 -91 26 -198 34 -237 37 -169 149 -259 235 -188 44
38 73 101 141 308 69 209 124 315 183 355 36 24 49 26 160 29 67 1 128 3 136
4 8 0 87 -5 176 -12 265 -21 451 9 522 85 35 38 40 70 17 115 -23 44 -67 72
-203 130 -101 43 -131 61 -170 101 -84 88 -106 179 -57 237 14 17 25 36 25 43
0 7 29 60 64 118 83 140 111 195 141 285 40 120 32 190 -27 226 -69 42 -151
14 -318 -110 -128 -94 -144 -98 -229 -56 -90 45 -285 118 -422 157 -111 31
-115 32 -268 26 -86 -3 -181 -11 -212 -17 -79 -17 -101 -4 -171 100 -69 105
-146 177 -292 275 -99 66 -118 75 -158 75 -38 0 -50 -5 -67 -26z m198 -68
c161 -108 221 -164 296 -275 51 -76 74 -103 94 -107 14 -3 42 -8 61 -12 19 -4
55 -5 80 -1 25 4 104 10 175 14 121 6 137 5 230 -20 115 -30 343 -114 429
-157 92 -46 141 -33 296 82 109 82 164 110 212 110 82 0 109 -71 71 -191 -10
-30 -18 -58 -18 -64 -1 -5 -9 -23 -19 -40 -9 -16 -40 -70 -67 -119 -28 -49
-72 -120 -97 -158 -77 -113 -84 -128 -78 -176 8 -60 37 -121 76 -160 18 -18
85 -58 149 -88 213 -101 225 -108 246 -147 18 -34 19 -39 5 -64 -19 -34 -86
-69 -165 -85 -75 -15 -366 -15 -455 1 -36 7 -124 12 -197 13 -125 1 -133 0
-177 -26 -82 -48 -94 -71 -205 -401 -104 -306 -147 -354 -240 -269 -64 57 -83
130 -116 444 -24 227 -59 315 -139 351 -36 16 -68 19 -249 19 -115 0 -227 -4
-250 -9 -23 -6 -94 -17 -157 -25 -63 -9 -162 -28 -220 -42 -176 -44 -387 -43
-404 1 -15 41 46 115 178 214 138 104 198 132 491 231 271 92 331 119 361 165
22 34 15 56 -63 193 -72 126 -183 354 -238 487 -75 181 -104 325 -73 362 25
30 78 15 177 -51z"/>
<path d="M6090 4570 c0 -13 7 -20 20 -20 13 0 20 7 20 20 0 13 -7 20 -20 20
-13 0 -20 -7 -20 -20z"/>
<path d="M6430 4570 c0 -13 7 -20 20 -20 13 0 20 7 20 20 0 13 -7 20 -20 20
-13 0 -20 -7 -20 -20z"/>
<path d="M5983 4573 c-7 -2 -13 -20 -13 -39 0 -24 -5 -34 -15 -34 -8 0 -15 -7
-15 -15 0 -8 7 -15 15 -15 12 0 15 -17 15 -93 0 -102 7 -117 52 -117 21 0 28
5 28 20 0 13 -7 20 -20 20 -18 0 -20 7 -20 85 0 78 2 85 20 85 11 0 20 7 20
15 0 8 -9 15 -20 15 -17 0 -20 7 -20 40 0 40 -3 43 -27 33z"/>
<path d="M6553 4573 c-7 -2 -13 -18 -13 -34 0 -17 -6 -32 -15 -35 -8 -4 -15
-12 -15 -19 0 -7 7 -15 15 -19 12 -4 15 -24 15 -94 0 -96 7 -112 52 -112 21 0
28 5 28 20 0 13 -7 20 -20 20 -18 0 -20 7 -20 85 0 78 2 85 20 85 11 0 20 7
20 15 0 8 -9 15 -20 15 -17 0 -20 7 -20 40 0 40 -3 43 -27 33z"/>
<path d="M5514 4496 c-28 -13 -44 -33 -44 -57 0 -17 35 -9 48 11 18 29 87 28
103 -1 15 -29 3 -38 -66 -49 -32 -5 -66 -17 -76 -26 -27 -24 -25 -79 3 -98 28
-20 97 -21 125 -1 19 13 22 13 27 0 3 -8 13 -15 23 -15 16 0 18 9 13 105 -4
78 -9 109 -22 121 -22 22 -96 28 -134 10z m116 -136 c0 -52 -89 -92 -121 -54
-19 24 0 47 52 61 62 16 69 16 69 -7z"/>
<path d="M5785 4501 c-38 -17 -58 -50 -63 -105 -7 -88 29 -136 103 -136 20 0
45 5 56 10 21 12 51 64 42 74 -14 13 -34 5 -45 -19 -21 -46 -86 -45 -106 1
-17 35 -15 96 4 122 20 29 78 31 96 2 14 -22 48 -27 48 -7 0 40 -89 78 -135
58z"/>
<path d="M6090 4380 c0 -113 1 -120 20 -120 19 0 20 7 20 120 0 113 -1 120
-20 120 -19 0 -20 -7 -20 -120z"/>
<path d="M6201 4418 c17 -46 37 -99 43 -118 8 -22 20 -36 34 -38 16 -3 24 7
40 50 11 29 32 84 46 121 l26 68 -22 -3 c-18 -2 -28 -18 -48 -73 -14 -39 -30
-79 -34 -90 -6 -16 -15 -1 -40 70 -25 74 -35 91 -54 93 l-22 3 31 -83z"/>
<path d="M6430 4380 c0 -113 1 -120 20 -120 19 0 20 7 20 120 0 113 -1 120
-20 120 -19 0 -20 -7 -20 -120z"/>
<path d="M6640 4493 c0 -5 18 -54 40 -111 22 -56 40 -113 40 -127 0 -28 -24
-55 -51 -55 -23 0 -25 -13 -4 -30 21 -18 60 1 78 37 15 30 107 276 107 287 0
3 -8 6 -19 6 -14 0 -26 -20 -50 -90 -18 -49 -34 -90 -36 -90 -2 0 -9 17 -16
38 -36 112 -51 142 -70 142 -10 0 -19 -3 -19 -7z"/>
<path d="M12005 4403 c-129 -15 -494 -45 -650 -53 -112 -5 -214 -16 -249 -26
-64 -17 -256 -109 -323 -155 -23 -16 -48 -29 -57 -29 -8 0 -41 -21 -72 -46
-120 -98 -156 -110 -244 -83 -19 6 -95 10 -169 9 -300 -2 -564 -78 -967 -275
-367 -181 -435 -407 -244 -822 150 -324 422 -539 680 -536 71 0 87 5 305 95
127 52 249 105 272 117 105 53 236 140 328 218 55 46 127 97 160 114 64 31
197 55 249 45 16 -3 34 -2 40 3 6 5 115 13 241 17 265 8 296 3 475 -74 84 -36
117 -45 165 -46 79 -1 142 32 169 89 25 52 34 216 16 281 -18 62 -84 128 -185
182 -119 65 -212 129 -385 269 -12 10 66 57 160 94 102 41 108 45 200 139 52
54 130 122 172 153 50 36 86 72 103 101 31 53 50 162 35 201 -9 24 -12 25
-102 24 -51 -1 -106 -4 -123 -6z m198 -37 c10 -26 -9 -121 -33 -163 -16 -29
-54 -65 -119 -113 -54 -39 -119 -99 -149 -135 -59 -72 -99 -98 -216 -145 -43
-17 -92 -41 -110 -54 -17 -13 -44 -28 -59 -33 -29 -9 -28 -9 79 -93 137 -108
238 -177 338 -232 92 -50 152 -107 166 -158 16 -55 11 -189 -8 -245 -14 -41
-24 -54 -57 -70 -64 -32 -124 -26 -239 24 -190 82 -210 85 -600 74 -312 -9
-346 -12 -397 -32 -72 -27 -126 -63 -226 -150 -75 -65 -205 -151 -306 -202
-23 -12 -145 -64 -270 -115 -262 -108 -288 -112 -424 -69 -265 84 -477 338
-579 693 -60 210 -6 365 169 484 73 50 231 125 432 205 193 78 226 88 365 112
177 30 364 36 455 15 96 -23 130 -13 227 65 107 85 180 132 303 194 150 76
192 86 390 97 392 22 414 24 427 43 4 7 11 7 20 1 9 -7 52 -6 133 2 176 17
282 17 288 0z"/>
<path d="M5571 4041 c-83 -104 -112 -240 -74 -345 24 -66 49 -76 37 -15 -5 24
-9 80 -8 125 0 72 4 88 37 155 20 41 44 84 53 97 14 19 15 22 1 22 -8 0 -29
-17 -46 -39z"/>
<path d="M6528 4069 c-10 -5 -22 -28 -28 -49 -8 -29 -16 -40 -30 -40 -11 0
-20 -7 -20 -15 0 -8 7 -15 15 -15 22 0 21 -8 -20 -187 -4 -18 -1 -23 15 -23
21 0 22 3 49 129 14 65 19 76 40 81 31 7 40 30 11 30 -17 0 -21 5 -18 28 2 20
9 28 28 30 34 5 49 20 30 32 -19 12 -50 12 -72 -1z"/>
<path d="M7418 4074 c-4 -3 -2 -18 4 -33 6 -14 11 -64 11 -111 1 -94 -19 -159
-73 -240 -19 -29 -26 -46 -18 -49 18 -6 66 56 101 129 28 57 32 75 31 145 -1
104 -30 186 -56 159z"/>
<path d="M6165 4058 c-4 -14 -65 -306 -65 -314 0 -2 9 -4 19 -4 21 0 20 -4 56
170 14 69 28 133 31 143 4 12 0 17 -16 17 -11 0 -22 -6 -25 -12z"/>
<path d="M6270 4067 c0 -8 -61 -293 -66 -310 -5 -15 -1 -18 17 -15 21 3 25 15
50 133 44 208 43 195 19 195 -11 0 -20 -2 -20 -3z"/>
<path d="M7318 4050 c-9 -6 -19 -23 -23 -39 -3 -17 -14 -31 -26 -34 -23 -6
-26 -27 -3 -27 13 0 15 -6 11 -27 -22 -104 -29 -153 -24 -167 9 -22 77 -23 77
-1 0 8 -6 15 -14 15 -25 0 -26 15 -10 98 14 67 20 81 37 84 28 4 34 28 8 28
-21 0 -22 13 -5 68 4 14 -5 15 -28 2z"/>
<path d="M5703 3975 c-80 -34 -111 -180 -46 -222 49 -32 115 -15 146 37 16 26
16 28 0 34 -12 5 -24 -3 -41 -24 -53 -67 -116 -20 -92 69 21 79 80 106 118 54
19 -26 42 -25 42 1 0 45 -73 74 -127 51z"/>
<path d="M5947 3980 c-40 -12 -57 -29 -78 -75 -46 -101 8 -186 105 -168 27 5
86 56 86 74 0 18 -37 8 -60 -16 -25 -27 -71 -33 -88 -12 -6 6 -13 24 -17 40
l-7 27 91 0 91 0 0 43 c0 67 -56 106 -123 87z m79 -55 c8 -13 13 -29 9 -35 -3
-5 -35 -10 -71 -10 l-65 0 16 29 c16 32 27 39 67 40 19 1 33 -7 44 -24z"/>
<path d="M6700 3982 c-8 -2 -23 -11 -32 -20 -16 -14 -18 -13 -18 1 0 10 -8 17
-18 17 -14 0 -22 -20 -41 -116 -13 -63 -21 -118 -18 -121 17 -16 35 12 46 69
19 95 46 130 101 132 19 1 25 32 8 38 -7 3 -20 3 -28 0z"/>
<path d="M6809 3972 c-66 -33 -101 -132 -68 -194 23 -43 88 -54 147 -25 63 30
88 157 41 202 -33 31 -78 38 -120 17z m89 -34 c7 -7 12 -33 12 -59 0 -60 -36
-109 -80 -109 -70 0 -83 93 -22 163 17 20 72 23 90 5z"/>
<path d="M7125 3983 c-10 -3 -29 -12 -42 -20 -21 -14 -23 -14 -23 1 0 22 -27
20 -34 -1 -5 -17 -46 -211 -46 -219 0 -2 9 -4 19 -4 15 0 22 14 36 75 19 89
52 135 95 135 16 0 32 -5 35 -10 6 -9 -13 -120 -31 -182 -4 -13 0 -18 15 -18
11 0 22 8 25 18 12 39 36 154 36 171 0 37 -42 64 -85 54z"/>
<path d="M7896 3509 c-3 -17 -6 -49 -6 -70 l0 -39 -1682 0 c-926 -1 -1798 -3
-1938 -6 -242 -5 -255 -6 -258 -25 -3 -19 27 -19 1940 -21 l1943 -3 3 -67 c2
-38 5 -68 7 -68 6 0 248 149 257 158 5 5 -42 40 -104 77 -62 38 -123 75 -134
82 -20 13 -22 11 -28 -18z"/>
<path d="M4723 2928 c4 -139 10 -463 13 -720 l7 -467 -82 -3 -83 -3 168 -148
c92 -81 170 -146 174 -145 4 2 79 68 165 148 l158 145 -80 3 -80 3 -7 382 c-3
210 -9 534 -13 720 l-6 337 -170 0 -170 0 6 -252z"/>
<path d="M6220 3033 c-36 -13 -60 -47 -60 -83 0 -49 24 -69 119 -100 70 -23
76 -27 79 -55 5 -38 -19 -55 -78 -55 -36 0 -52 5 -68 23 -12 13 -22 29 -22 35
0 7 -9 12 -20 12 -14 0 -20 -7 -20 -21 0 -55 51 -89 134 -89 44 0 60 5 84 25
35 29 46 63 32 99 -12 33 -46 54 -117 73 -32 8 -64 19 -70 25 -35 28 5 78 62
78 35 0 75 -24 75 -46 0 -8 10 -14 25 -14 28 0 28 0 15 34 -19 50 -109 81
-170 59z"/>
<path d="M5512 2868 c3 -160 3 -163 26 -166 21 -3 22 0 22 72 l0 76 36 0 c51
0 66 -11 114 -85 33 -50 48 -65 66 -65 13 0 24 3 24 7 0 11 -60 100 -80 118
-26 24 -25 32 5 39 37 9 59 49 52 94 -10 62 -33 72 -158 72 l-109 0 2 -162z
m188 119 c32 -16 40 -65 14 -84 -11 -8 -46 -13 -86 -13 l-68 0 0 55 0 55 58 0
c31 0 68 -6 82 -13z"/>
<path d="M5937 3023 c-11 -18 -117 -300 -117 -311 0 -7 9 -12 19 -12 14 0 24
14 37 50 l18 50 71 0 71 0 18 -50 c15 -42 22 -50 43 -50 29 0 32 -11 -46 180
-52 127 -63 145 -84 148 -14 2 -27 0 -30 -5z m31 -181 c-28 -2 -52 -2 -54 0
-1 2 9 37 23 77 l26 73 28 -73 27 -74 -50 -3z"/>
<path d="M6130 2490 c0 -13 7 -20 20 -20 13 0 20 7 20 20 0 13 -7 20 -20 20
-13 0 -20 -7 -20 -20z"/>
<path d="M6460 2490 c0 -13 7 -20 20 -20 13 0 20 7 20 20 0 13 -7 20 -20 20
-13 0 -20 -7 -20 -20z"/>
<path d="M6023 2493 c-7 -2 -13 -18 -13 -35 0 -21 -6 -31 -20 -35 -11 -3 -20
-11 -20 -18 0 -7 9 -15 20 -18 18 -5 20 -14 20 -94 0 -97 7 -113 52 -113 33 0
39 29 8 37 -18 5 -20 14 -20 89 0 77 2 84 20 84 11 0 20 7 20 15 0 8 -9 15
-20 15 -17 0 -20 7 -20 40 0 40 -3 43 -27 33z"/>
<path d="M6588 2489 c-11 -6 -18 -22 -18 -39 0 -20 -5 -30 -15 -30 -8 0 -15
-7 -15 -15 0 -8 7 -15 15 -15 12 0 15 -16 15 -86 0 -104 9 -124 55 -124 42 0
48 25 10 40 -24 9 -25 13 -25 90 0 73 2 80 20 80 11 0 20 7 20 15 0 8 -9 15
-19 15 -16 0 -20 8 -23 39 -3 35 -5 38 -20 30z"/>
<path d="M5563 2419 c-29 -8 -63 -42 -63 -61 0 -16 37 -7 55 12 20 22 74 27
93 8 10 -10 17 -48 9 -48 -24 0 -125 -25 -136 -33 -23 -19 -31 -55 -19 -82 18
-40 81 -49 151 -20 10 4 17 3 17 -4 0 -6 8 -11 18 -11 18 0 19 8 14 103 -3 77
-8 106 -21 119 -21 21 -77 30 -118 17z m77 -191 c-36 -29 -100 -21 -100 12 0
25 18 37 70 47 43 8 45 8 48 -16 3 -17 -4 -31 -18 -43z"/>
<path d="M5833 2422 c-37 -11 -61 -38 -73 -81 -19 -73 17 -149 78 -164 55 -13
134 38 118 78 -7 19 -36 20 -36 2 0 -22 -34 -47 -63 -47 -35 0 -57 34 -57 90
0 25 7 56 16 68 19 28 65 29 89 2 16 -18 55 -28 55 -14 0 19 -26 48 -55 60
-37 15 -39 15 -72 6z"/>
<path d="M6130 2300 c0 -113 1 -120 20 -120 19 0 20 7 20 120 0 113 -1 120
-20 120 -19 0 -20 -7 -20 -120z"/>
<path d="M6210 2413 c0 -5 19 -57 43 -118 59 -153 70 -153 125 -3 23 62 42
116 42 121 0 4 -9 7 -19 7 -15 0 -25 -17 -45 -77 -36 -108 -41 -113 -56 -67
-37 114 -52 144 -71 144 -10 0 -19 -3 -19 -7z"/>
<path d="M6460 2300 c0 -113 1 -120 20 -120 19 0 20 7 20 120 0 113 -1 120
-20 120 -19 0 -20 -7 -20 -120z"/>
<path d="M6691 2368 c12 -29 33 -85 47 -124 25 -69 25 -72 9 -98 -10 -14 -27
-26 -38 -26 -28 0 -21 -34 9 -38 36 -5 60 33 118 187 30 79 54 145 54 147 0 2
-9 4 -19 4 -19 0 -34 -30 -71 -143 -7 -22 -16 -35 -20 -30 -4 4 -20 45 -35 91
-25 71 -32 82 -52 82 l-23 0 21 -52z"/>
<path d="M3722 2008 c-21 -28 -184 -349 -179 -355 16 -15 39 18 122 177 50 95
92 176 93 181 5 14 -24 11 -36 -3z"/>
<path d="M11951 1845 c-50 -96 -91 -180 -91 -185 0 -6 6 -10 14 -10 14 0 196
335 196 359 0 6 -6 11 -14 11 -7 0 -54 -79 -105 -175z"/>
<path d="M137 1998 c-2 -7 -15 -66 -28 -130 -26 -131 -23 -157 24 -192 39 -29
125 -29 164 0 44 33 60 70 88 197 30 142 30 139 3 135 -21 -3 -26 -15 -49
-126 -15 -73 -34 -134 -46 -150 -27 -36 -85 -51 -121 -31 -36 20 -39 60 -12
179 11 52 20 102 20 112 0 21 -35 25 -43 6z"/>
<path d="M1310 2007 c0 -1 -16 -76 -35 -166 -19 -90 -35 -167 -35 -172 0 -20
40 -8 45 14 16 66 65 304 65 314 0 7 -9 13 -20 13 -11 0 -20 -1 -20 -3z"/>
<path d="M1857 1991 c-6 -24 0 -31 25 -31 13 0 18 7 18 25 0 31 -35 35 -43 6z"/>
<path d="M2655 1998 c-2 -7 -9 -37 -15 -65 l-12 -53 -25 20 c-32 25 -59 25
-101 0 -66 -40 -93 -169 -47 -220 26 -29 71 -35 102 -14 19 12 28 13 31 6 3
-11 42 -17 42 -7 0 2 16 79 35 171 19 91 35 168 35 170 0 10 -41 3 -45 -8z
m-57 -130 c19 -19 14 -99 -8 -135 -21 -35 -63 -52 -89 -36 -37 23 -31 115 10
159 24 26 67 32 87 12z"/>
<path d="M3429 2008 c-1 -2 -18 -79 -38 -173 -35 -162 -36 -170 -18 -173 10
-2 20 -2 22 0 3 3 75 334 75 344 0 4 -39 6 -41 2z"/>
<path d="M3539 2008 c-1 -2 -18 -79 -38 -173 -35 -162 -36 -170 -18 -173 10
-2 20 -2 22 0 3 3 75 334 75 344 0 4 -39 6 -41 2z"/>
<path d="M9030 2007 c0 -1 -16 -78 -35 -170 -19 -92 -35 -169 -35 -172 0 -3
11 -5 23 -5 22 0 25 7 36 70 l13 70 66 1 c88 0 131 16 159 58 31 45 30 95 -2
126 -22 23 -31 25 -125 25 -55 0 -100 -1 -100 -3z m188 -49 c13 -13 16 -47 6
-73 -10 -26 -60 -45 -120 -45 l-57 0 7 50 c11 80 10 80 85 80 39 0 72 -5 79
-12z"/>
<path d="M9625 1998 c-7 -25 -65 -309 -65 -324 0 -8 9 -14 20 -14 11 0 20 2
20 4 0 2 16 79 35 170 19 92 35 169 35 171 0 11 -41 4 -45 -7z"/>
<path d="M10176 1994 c-11 -28 -7 -35 17 -32 29 4 38 48 9 48 -11 0 -23 -7
-26 -16z"/>
<path d="M10960 1945 l-12 -64 -28 21 c-36 26 -86 19 -123 -20 -33 -35 -47
-72 -47 -128 0 -37 6 -51 30 -76 26 -25 36 -29 62 -24 18 3 40 14 50 23 17 15
18 15 18 0 0 -10 8 -17 18 -17 15 0 23 26 51 163 19 89 36 168 39 175 2 7 -5
12 -21 12 -23 0 -26 -6 -37 -65z m-46 -81 c37 -36 5 -150 -48 -169 -54 -19
-88 34 -67 105 21 72 77 103 115 64z"/>
<path d="M11711 1853 c-18 -87 -34 -166 -37 -175 -4 -14 0 -18 18 -18 22 0 25
8 57 162 18 89 36 168 38 175 3 8 -4 13 -19 13 -24 0 -26 -6 -57 -157z"/>
<path d="M11821 1853 c-18 -87 -34 -166 -37 -175 -4 -14 0 -18 18 -18 22 0 25
8 57 162 18 89 36 168 38 175 3 8 -4 13 -19 13 -24 0 -26 -6 -57 -157z"/>
<path d="M5601 1950 c-54 -68 -81 -144 -81 -229 0 -78 24 -161 47 -161 11 0
13 6 8 23 -14 46 -17 176 -5 226 6 28 29 79 51 115 21 36 39 67 39 70 0 18
-25 0 -59 -44z"/>
<path d="M7508 1994 c-4 -3 -2 -20 3 -37 5 -18 10 -68 10 -112 1 -90 -20 -159
-71 -235 -36 -54 -20 -70 21 -21 72 87 104 194 89 297 -13 90 -32 129 -52 108z"/>
<path d="M6172 1833 c-18 -87 -32 -161 -32 -165 0 -5 8 -8 18 -8 16 0 23 23
50 153 38 177 37 177 14 177 -15 0 -23 -24 -50 -157z"/>
<path d="M6305 1978 c-4 -14 -65 -306 -65 -314 0 -2 9 -4 19 -4 21 0 20 -4 56
170 14 69 28 133 31 143 4 12 0 17 -16 17 -11 0 -22 -6 -25 -12z"/>
<path d="M6530 1933 c-7 -32 -22 -106 -35 -165 -21 -101 -21 -108 -5 -108 10
0 21 7 24 16 5 13 9 13 32 -5 32 -25 45 -26 84 -6 63 33 92 154 49 209 -22 28
-64 35 -101 15 -17 -9 -19 -8 -14 8 2 10 8 35 12 56 5 33 4 37 -14 37 -17 0
-23 -10 -32 -57z m114 -79 c21 -20 20 -76 0 -117 -20 -38 -31 -47 -61 -47 -56
0 -66 92 -16 151 28 32 54 37 77 13z"/>
<path d="M7276 1918 c-9 -40 -25 -115 -35 -166 l-19 -93 21 3 c15 2 23 13 28
37 4 18 18 45 32 59 l25 25 17 -38 c8 -22 18 -49 21 -62 4 -16 13 -23 30 -23
13 0 24 2 24 4 0 2 -13 35 -30 73 l-30 68 53 47 52 48 -30 0 c-23 0 -43 -13
-88 -57 -48 -48 -57 -54 -53 -33 9 40 36 171 36 176 0 2 -9 4 -19 4 -16 0 -22
-13 -35 -72z"/>
<path d="M554 1910 c-12 -5 -25 -13 -29 -19 -10 -17 -25 -13 -18 5 4 12 0 15
-17 12 -21 -3 -26 -14 -46 -108 -28 -132 -29 -140 -5 -140 16 0 22 13 36 71
19 84 38 124 64 139 25 13 68 13 76 0 3 -5 -3 -53 -14 -105 -25 -114 -25 -105
-2 -105 21 0 23 3 46 103 21 94 20 123 -7 141 -25 18 -52 19 -84 6z"/>
<path d="M808 1904 c-16 -8 -28 -10 -28 -4 0 5 -9 10 -19 10 -16 0 -22 -11
-31 -57 -7 -32 -23 -109 -36 -171 -13 -63 -24 -116 -24 -118 0 -3 10 -4 22 -2
18 2 24 14 36 65 l13 63 29 -21 c102 -76 232 144 135 229 -30 25 -59 27 -97 6z
m72 -39 c18 -22 14 -91 -7 -127 -25 -43 -46 -54 -80 -42 -23 8 -29 16 -31 48
-4 50 3 76 29 109 23 30 69 36 89 12z"/>
<path d="M1054 1906 c-46 -20 -78 -79 -79 -143 0 -44 4 -57 28 -80 22 -22 37
-28 71 -28 80 0 138 66 138 157 0 46 -4 56 -31 80 -35 31 -76 36 -127 14z
m100 -42 c46 -46 -6 -174 -71 -174 -72 0 -87 101 -25 173 19 21 75 22 96 1z"/>
<path d="M1444 1911 c-12 -5 -31 -22 -44 -38 -22 -28 -22 -28 -2 -31 12 -2 30
6 41 17 38 38 111 23 111 -21 0 -19 -15 -24 -92 -31 -69 -6 -98 -29 -98 -75 0
-43 7 -55 37 -71 29 -15 52 -14 87 4 20 11 33 12 40 5 5 -5 18 -10 27 -10 13
0 18 13 23 55 3 30 9 79 12 108 5 44 3 55 -15 71 -23 21 -95 30 -127 17z m84
-162 c-19 -56 -95 -79 -122 -36 -23 36 18 64 96 66 l37 1 -11 -31z"/>
<path d="M1736 1897 c-26 -18 -29 -19 -23 -4 6 15 2 18 -15 15 -19 -3 -25 -16
-44 -108 -28 -131 -29 -140 -5 -140 15 0 21 15 36 81 19 92 47 133 91 134 22
1 30 7 32 23 5 30 -33 29 -72 -1z"/>
<path d="M2250 1913 c-23 -9 -60 -45 -76 -75 -18 -35 -18 -118 1 -144 39 -57
129 -52 181 9 27 32 27 32 5 35 -14 2 -32 -6 -48 -22 -45 -45 -113 -23 -113
36 0 16 11 18 95 18 l95 0 0 46 c0 77 -67 124 -140 97z m90 -52 c23 -44 14
-51 -60 -51 -77 0 -84 7 -45 45 31 32 89 35 105 6z"/>
<path d="M2922 1903 c-44 -22 -72 -78 -72 -146 0 -57 20 -87 68 -102 47 -14
132 40 132 84 0 22 -37 10 -58 -19 -16 -21 -31 -30 -52 -30 -38 0 -54 29 -47
88 7 61 35 96 80 100 31 3 39 -1 49 -22 12 -27 48 -36 48 -12 0 28 -13 47 -41
61 -36 19 -66 19 -107 -2z"/>
<path d="M3162 1900 c-39 -24 -71 -88 -72 -142 0 -72 76 -124 143 -99 28 11
77 57 77 72 0 18 -40 8 -64 -16 -14 -14 -36 -25 -50 -25 -24 0 -56 23 -56 40
0 5 -3 15 -6 24 -5 13 9 16 93 18 l98 3 3 29 c11 91 -84 146 -166 96z m113
-43 c28 -40 20 -47 -55 -47 -77 0 -88 11 -47 47 40 37 76 37 102 0z"/>
<path d="M9362 1900 c-38 -23 -71 -88 -72 -138 0 -99 104 -144 186 -80 56 45
73 155 31 203 -32 37 -99 44 -145 15z m117 -52 c32 -56 -22 -158 -84 -158 -43
0 -60 23 -59 77 2 99 101 155 143 81z"/>
<path d="M9753 1906 c-27 -12 -53 -42 -53 -60 0 -14 39 -4 55 14 37 41 136 15
108 -28 -7 -12 -30 -19 -71 -23 -99 -10 -140 -53 -110 -115 19 -40 68 -53 116
-30 24 12 38 14 40 7 2 -6 14 -11 26 -11 19 0 23 5 23 28 -1 15 5 62 13 105
13 75 13 78 -7 98 -26 27 -97 34 -140 15z m97 -136 c0 -25 -32 -70 -54 -76
-42 -10 -71 -1 -74 24 -6 41 20 57 96 61 17 0 32 -4 32 -9z"/>
<path d="M10056 1899 c-21 -17 -26 -18 -26 -5 0 9 -8 16 -18 16 -14 0 -22 -22
-43 -125 l-26 -125 22 0 c19 0 23 8 34 67 7 36 19 79 27 94 18 35 56 62 76 54
9 -4 18 1 22 10 14 39 -26 47 -68 14z"/>
<path d="M10553 1904 c-48 -24 -76 -75 -77 -139 0 -44 4 -59 23 -79 30 -32 71
-41 116 -26 32 11 75 51 75 71 0 17 -33 9 -62 -16 -16 -14 -40 -25 -52 -25
-28 0 -56 29 -56 58 0 20 6 21 93 24 l92 3 -1 48 c0 34 -6 54 -21 68 -27 28
-90 34 -130 13z m109 -48 c4 -6 8 -19 8 -28 0 -16 -10 -18 -70 -18 -38 0 -70
4 -70 9 0 18 41 60 63 63 24 4 58 -8 69 -26z"/>
<path d="M11233 1900 c-81 -49 -96 -197 -23 -235 36 -19 54 -19 94 0 27 13 66
59 66 79 0 18 -39 2 -58 -24 -16 -21 -31 -30 -50 -30 -39 0 -52 17 -52 71 0
96 78 154 126 93 14 -17 28 -25 38 -21 23 9 20 25 -13 58 -35 35 -81 38 -128
9z"/>
<path d="M11479 1897 c-87 -58 -95 -199 -12 -233 49 -21 101 -6 139 39 26 31
26 32 7 35 -12 2 -32 -8 -47 -22 -27 -28 -76 -35 -94 -13 -6 6 -13 24 -17 40
l-7 27 91 0 c79 0 92 2 101 19 27 51 -31 131 -94 131 -18 0 -48 -10 -67 -23z
m109 -30 c6 -5 12 -20 12 -33 0 -23 -3 -24 -70 -24 l-70 0 12 26 c21 45 78 60
116 31z"/>
<path d="M1840 1906 c0 -3 -11 -56 -25 -120 -14 -64 -25 -118 -25 -122 0 -3
10 -4 22 -2 19 3 24 16 44 108 29 131 29 140 4 140 -11 0 -20 -2 -20 -4z"/>
<path d="M1937 1903 c-17 -16 -2 -22 59 -25 l66 -3 -80 -90 c-113 -126 -113
-125 14 -125 97 0 104 1 104 20 0 17 -8 19 -67 22 l-67 3 82 90 c45 50 82 96
82 103 0 9 -25 12 -93 12 -52 0 -97 -3 -100 -7z"/>
<path d="M10156 1893 c-7 -23 -46 -212 -46 -224 0 -20 40 -8 45 14 15 69 45
212 45 219 0 16 -39 8 -44 -9z"/>
<path d="M10250 1895 c0 -10 16 -15 65 -17 l66 -3 -75 -82 c-68 -75 -96 -112
-96 -127 0 -3 47 -6 105 -6 98 0 105 1 105 20 0 18 -7 20 -71 20 l-71 0 86 94
c47 51 86 98 86 105 0 7 -32 11 -100 11 -81 0 -100 -3 -100 -15z"/>
<path d="M5715 1878 c-34 -27 -55 -75 -55 -128 0 -33 6 -48 30 -72 27 -26 36
-30 68 -25 53 9 121 87 76 87 -9 0 -25 -11 -35 -24 -59 -76 -126 1 -85 99 8
18 24 39 36 45 29 15 67 5 75 -20 8 -25 45 -27 45 -2 0 56 -101 83 -155 40z"/>
<path d="M5945 1878 c-58 -45 -73 -145 -31 -195 20 -23 32 -28 69 -28 37 0 52
6 76 29 32 31 40 56 18 56 -8 0 -24 -11 -37 -25 -41 -44 -110 -23 -110 33 0
21 4 22 90 22 l90 0 0 40 c0 58 -34 90 -93 90 -30 0 -53 -7 -72 -22z m115 -27
c23 -43 14 -51 -55 -51 -72 0 -78 8 -40 45 30 31 80 34 95 6z"/>
<path d="M6787 1868 c-27 -27 -29 -33 -15 -36 10 -2 30 6 44 17 45 35 104 23
104 -21 0 -19 -15 -24 -93 -31 -59 -6 -87 -29 -87 -73 0 -60 51 -86 116 -59
25 10 40 12 42 5 2 -5 12 -10 23 -10 14 0 19 7 19 30 0 16 6 62 12 101 12 70
12 72 -11 90 -16 13 -39 19 -73 19 -43 0 -54 -5 -81 -32z m117 -110 c-22 -75
-124 -102 -124 -33 0 29 13 38 70 46 25 3 49 7 53 8 5 0 5 -9 1 -21z"/>
<path d="M7051 1874 c-51 -42 -67 -141 -31 -187 41 -52 126 -40 164 23 17 29
17 30 -3 30 -11 0 -33 -13 -49 -30 -36 -35 -45 -37 -72 -10 -25 25 -25 63 0
117 26 59 94 74 107 23 7 -27 43 -27 43 0 0 60 -102 82 -159 34z"/>
<path d="M500 1411 c0 -5 -3 -16 -6 -25 -5 -12 0 -16 20 -16 21 0 26 5 26 25
0 18 -5 25 -20 25 -11 0 -20 -4 -20 -9z"/>
<path d="M887 1413 c-15 -14 -7 -43 12 -43 17 0 31 18 31 41 0 10 -33 12 -43
2z"/>
<path d="M1680 1416 c0 -2 -16 -79 -35 -170 -19 -92 -35 -169 -35 -172 0 -3
10 -4 22 -2 19 3 25 18 54 158 40 185 40 190 14 190 -11 0 -20 -2 -20 -4z"/>
<path d="M2338 1395 c-4 -21 -1 -25 18 -25 19 0 24 5 24 25 0 18 -5 25 -19 25
-12 0 -20 -9 -23 -25z"/>
<path d="M3300 1395 c0 -18 5 -25 20 -25 11 0 20 4 20 9 0 5 3 16 6 25 5 12 0
16 -20 16 -21 0 -26 -5 -26 -25z"/>
<path d="M9366 1404 c-11 -28 -7 -35 17 -32 29 4 38 48 9 48 -11 0 -23 -7 -26
-16z"/>
<path d="M11096 1404 c-11 -28 -7 -35 17 -32 29 4 38 48 9 48 -11 0 -23 -7
-26 -16z"/>
<path d="M12060 1411 c0 -5 -3 -16 -6 -25 -5 -12 0 -16 20 -16 21 0 26 5 26
25 0 18 -5 25 -20 25 -11 0 -20 -4 -20 -9z"/>
<path d="M3183 1395 c-12 -8 -24 -29 -28 -45 -5 -21 -13 -30 -26 -30 -10 0
-19 -7 -19 -15 0 -8 7 -15 15 -15 18 0 18 -9 0 -85 -26 -110 -18 -145 37 -145
21 0 28 5 28 20 0 11 -6 20 -14 20 -25 0 -26 15 -8 101 16 71 22 84 39 87 29
4 39 32 12 32 -19 0 -21 4 -15 45 4 25 6 45 4 45 -2 0 -13 -7 -25 -15z"/>
<path d="M9743 1398 c-13 -6 -24 -23 -28 -44 -4 -25 -11 -34 -25 -34 -11 0
-20 -7 -20 -15 0 -8 7 -15 15 -15 18 0 18 5 -5 -105 -17 -83 -17 -91 -2 -108
20 -22 66 -19 70 6 2 12 -3 17 -17 17 -25 0 -25 8 -3 110 15 64 20 75 40 78
25 4 31 32 6 32 -14 0 -16 7 -11 45 4 25 6 45 4 44 -1 0 -12 -5 -24 -11z"/>
<path d="M10428 1396 c-10 -7 -21 -27 -24 -45 -5 -21 -12 -31 -25 -31 -11 0
-19 -7 -19 -15 0 -8 7 -15 15 -15 11 0 14 -7 10 -22 -22 -96 -34 -170 -29
-183 7 -17 47 -30 69 -21 23 8 18 36 -6 36 -19 0 -21 4 -15 43 16 102 30 142
54 145 27 4 29 32 2 32 -21 0 -21 7 -3 73 5 20 -5 21 -29 3z"/>
<path d="M11938 1396 c-10 -7 -21 -27 -24 -45 -5 -21 -12 -31 -25 -31 -11 0
-19 -7 -19 -15 0 -8 7 -15 15 -15 8 0 15 -1 15 -3 0 -2 -9 -44 -20 -94 -11
-51 -17 -99 -14 -107 7 -18 47 -31 69 -22 22 8 18 36 -5 36 -24 0 -25 18 -2
115 15 59 21 71 40 73 27 4 29 32 2 32 -21 0 -21 7 -3 73 5 20 -5 21 -29 3z"/>
<path d="M143 1310 c-27 -16 -33 -17 -33 -5 0 26 -37 17 -44 -11 -8 -31 -46
-214 -46 -221 0 -2 10 -3 22 -1 19 2 24 13 35 68 7 36 18 77 24 92 19 47 89
77 102 45 3 -8 -3 -54 -14 -103 -23 -112 -23 -106 3 -102 18 3 24 15 38 78 23
109 46 140 100 140 31 0 33 -18 10 -120 -11 -52 -20 -96 -20 -98 0 -2 10 -2
23 0 19 3 24 14 39 78 24 113 23 146 -7 166 -28 18 -69 13 -97 -13 -15 -14
-20 -13 -44 6 -33 26 -50 26 -91 1z"/>
<path d="M667 1310 c-31 -17 -37 -17 -37 -5 0 8 -9 15 -20 15 -11 0 -20 -2
-20 -4 0 -5 -38 -193 -45 -223 -4 -19 -1 -23 18 -23 20 0 24 8 39 83 14 67 23
87 48 110 33 30 77 36 87 12 3 -9 -4 -59 -15 -110 l-20 -95 23 0 c19 0 24 9
40 85 23 111 22 135 -5 157 -28 23 -47 23 -93 -2z"/>
<path d="M1070 1323 c-8 -3 -23 -12 -32 -21 -16 -14 -18 -13 -18 2 0 12 -7 16
-22 14 -19 -3 -25 -16 -45 -108 -28 -130 -28 -140 -4 -140 16 0 22 14 37 83
19 88 52 137 94 137 31 0 35 -25 17 -114 -21 -101 -21 -106 2 -106 16 0 22 14
37 83 19 87 52 137 91 137 38 0 41 -17 22 -108 -23 -110 -23 -112 0 -112 22 0
23 2 48 123 19 97 15 115 -29 131 -20 7 -36 4 -68 -13 -37 -19 -44 -20 -54 -7
-13 17 -54 27 -76 19z"/>
<path d="M1443 1323 c-22 -4 -73 -49 -73 -64 0 -16 31 -10 57 11 14 11 38 20
54 20 32 0 63 -26 55 -47 -3 -8 -6 -17 -6 -19 0 -2 -19 -4 -42 -4 -124 0 -188
-71 -123 -135 28 -29 66 -32 110 -9 19 10 31 11 33 5 2 -6 14 -11 28 -11 17 0
22 4 18 15 -3 8 2 49 11 91 21 94 15 121 -30 140 -34 14 -50 15 -92 7z m77
-143 c0 -49 -72 -101 -110 -80 -45 24 -25 76 34 83 61 8 76 7 76 -3z"/>
<path d="M1983 1310 c-27 -16 -33 -17 -33 -5 0 8 -9 15 -20 15 -11 0 -20 -2
-20 -4 0 -3 -11 -56 -25 -120 -14 -64 -25 -118 -25 -122 0 -3 10 -4 21 -2 18
2 25 18 43 92 17 65 29 93 47 107 28 22 67 25 75 6 3 -8 -4 -55 -16 -105 -24
-112 -25 -104 2 -100 18 3 24 15 38 78 19 86 32 115 60 130 24 13 57 13 65 0
5 -9 -16 -138 -31 -192 -4 -14 1 -18 18 -18 21 0 25 7 41 84 9 46 17 98 17
115 0 57 -73 78 -122 34 -15 -14 -20 -13 -44 6 -33 26 -50 26 -91 1z"/>
<path d="M2470 1313 c-52 -27 -80 -75 -80 -140 0 -70 29 -103 89 -103 22 0 43
5 46 10 3 6 10 10 15 10 14 0 -8 -64 -27 -77 -26 -20 -71 -16 -85 7 -16 25
-48 26 -48 2 0 -68 147 -77 188 -11 9 14 72 280 72 304 0 3 -9 5 -20 5 -11 0
-20 -7 -20 -15 0 -19 -9 -19 -29 -1 -27 25 -64 28 -101 9z m80 -33 c29 -16 34
-63 12 -114 -22 -50 -52 -71 -88 -62 -33 9 -47 40 -39 91 10 73 64 112 115 85z"/>
<path d="M2770 1303 c-33 -27 -33 -27 -28 -5 5 19 3 23 -15 20 -18 -3 -24 -18
-43 -108 -28 -131 -29 -140 -5 -140 14 0 21 13 31 63 18 88 44 135 78 143 48
10 54 14 50 31 -5 28 -33 26 -68 -4z"/>
<path d="M2911 1313 c-19 -10 -41 -28 -49 -40 -13 -21 -13 -23 7 -23 11 0 30
9 41 20 39 39 117 19 108 -27 -3 -14 -17 -20 -66 -25 -89 -10 -102 -16 -118
-53 -33 -79 43 -133 126 -90 17 9 30 11 30 5 0 -5 11 -10 24 -10 21 0 24 6 30
58 3 31 9 80 12 108 6 48 4 53 -19 68 -39 26 -87 29 -126 9z m88 -152 c-6 -16
-19 -37 -29 -46 -19 -17 -69 -23 -89 -11 -14 9 -14 53 1 62 16 10 67 22 100
23 26 1 26 -1 17 -28z"/>
<path d="M3430 1312 c-45 -22 -80 -83 -80 -140 0 -54 12 -77 50 -97 41 -21 82
-19 121 8 88 58 93 206 8 236 -43 15 -58 14 -99 -7z m106 -47 c41 -63 -30
-185 -97 -168 -84 22 -42 193 47 193 25 0 38 -6 50 -25z"/>
<path d="M3745 1310 c-47 -24 -46 -24 -39 -5 4 10 0 15 -15 15 -13 0 -22 -8
-26 -22 -15 -70 -45 -213 -45 -220 0 -4 9 -8 20 -8 14 0 22 11 29 38 6 20 11
42 11 47 0 32 25 91 47 111 29 27 80 32 89 9 3 -8 -4 -55 -15 -105 -25 -111
-26 -102 1 -98 19 3 25 15 40 78 21 90 23 144 5 158 -26 22 -62 23 -102 2z"/>
<path d="M8458 1314 c-18 -9 -28 -11 -28 -4 0 6 -10 10 -22 8 -20 -3 -25 -18
-55 -158 -38 -184 -39 -190 -14 -190 15 0 22 11 30 50 6 28 11 58 11 66 0 12
5 11 26 -5 36 -29 76 -26 115 6 40 34 59 79 59 138 0 38 -5 52 -29 76 -33 32
-53 35 -93 13z m66 -46 c22 -31 20 -66 -6 -118 -19 -37 -29 -46 -54 -48 -39
-4 -64 19 -64 58 0 94 84 166 124 108z"/>
<path d="M8700 1313 c-52 -27 -82 -85 -77 -150 6 -80 51 -115 127 -98 29 6 90
57 90 76 0 18 -40 8 -64 -16 -27 -27 -76 -34 -94 -12 -6 6 -13 24 -17 40 l-7
27 95 0 c106 0 113 5 101 65 -13 69 -88 102 -154 68z m98 -35 c7 -7 12 -22 12
-35 0 -22 -4 -23 -71 -23 -75 0 -77 2 -36 48 23 24 75 30 95 10z"/>
<path d="M9000 1303 c-33 -27 -33 -27 -28 -5 5 19 3 23 -15 20 -18 -3 -24 -18
-43 -108 -28 -132 -29 -140 -5 -140 15 0 21 12 32 65 18 94 46 139 89 145 27
4 35 10 35 25 0 30 -28 29 -65 -2z"/>
<path d="M9133 1316 c-35 -16 -50 -50 -38 -86 4 -12 29 -32 61 -47 72 -36 81
-63 28 -83 -31 -12 -74 4 -81 30 -4 13 -14 20 -30 20 -21 0 -23 -3 -18 -22 11
-36 38 -58 78 -65 71 -11 127 22 127 75 0 33 -17 51 -77 81 -50 25 -59 37 -43
56 20 24 66 18 89 -11 13 -16 27 -24 36 -20 21 8 19 20 -7 51 -28 32 -81 41
-125 21z"/>
<path d="M9495 1321 c-33 -14 -47 -37 -43 -73 3 -28 11 -37 58 -63 64 -36 78
-69 36 -85 -35 -13 -74 3 -86 34 -7 18 -14 23 -29 19 -51 -13 3 -83 69 -89 53
-6 88 10 109 48 23 40 4 71 -64 103 -46 21 -56 30 -53 48 2 17 11 23 38 25 28
3 39 -2 56 -24 14 -16 28 -25 37 -21 19 7 12 39 -12 61 -20 19 -89 29 -116 17z"/>
<path d="M9880 1312 c-41 -21 -80 -90 -80 -139 0 -89 80 -139 159 -99 24 13
61 55 61 71 0 15 -39 2 -60 -20 -16 -17 -34 -25 -56 -25 -36 0 -50 13 -56 50
-3 25 -2 25 92 30 l95 5 -1 43 c-2 80 -81 124 -154 84z m98 -34 c5 -7 13 -23
16 -35 7 -22 5 -23 -63 -23 -80 0 -91 13 -45 49 30 23 76 28 92 9z"/>
<path d="M10195 1310 c-47 -24 -46 -24 -39 -5 4 10 0 15 -14 15 -23 0 -23 0
-51 -132 -26 -119 -26 -118 -2 -118 21 0 22 3 41 90 22 97 48 130 105 130 14
0 28 -6 31 -13 3 -8 -4 -55 -16 -105 -24 -112 -25 -104 2 -100 19 3 24 15 40
83 21 95 22 139 5 153 -26 22 -62 23 -102 2z"/>
<path d="M10743 1310 c-27 -16 -33 -17 -33 -5 0 21 -37 19 -44 -2 -7 -23 -46
-212 -46 -224 0 -5 9 -9 19 -9 21 0 24 6 41 90 13 70 42 118 75 126 48 12 54
-6 34 -104 -10 -48 -18 -93 -19 -99 0 -20 38 -15 43 5 3 9 13 50 22 90 18 77
46 112 90 112 33 0 35 -17 14 -116 -23 -112 -23 -106 3 -102 20 3 25 14 42
106 22 113 19 130 -26 146 -20 7 -36 4 -67 -12 -41 -22 -41 -22 -61 -2 -25 25
-46 25 -87 0z"/>
<path d="M11234 1321 c-58 -25 -101 -119 -83 -184 16 -59 77 -85 131 -56 20
11 21 9 14 -22 -3 -19 -14 -40 -23 -46 -30 -23 -93 -13 -93 13 0 8 -10 14 -25
14 -54 0 -14 -62 48 -74 44 -8 99 13 120 46 9 12 27 79 42 148 14 69 29 133
31 143 7 23 -31 24 -40 1 -6 -15 -8 -15 -24 0 -23 20 -70 28 -98 17z m78 -48
c23 -21 24 -85 1 -124 -34 -57 -105 -60 -119 -4 -22 90 61 180 118 128z"/>
<path d="M11533 1310 c-27 -16 -33 -17 -33 -5 0 8 -8 15 -18 15 -14 0 -22 -22
-43 -125 l-26 -125 21 0 c18 0 24 11 39 79 21 93 46 131 87 131 30 0 49 28 28
42 -18 11 -19 11 -55 -12z"/>
<path d="M11683 1323 c-22 -4 -73 -49 -73 -64 0 -17 40 -9 60 11 38 38 120 17
106 -28 -6 -18 -15 -22 -49 -22 -123 0 -187 -71 -122 -135 28 -29 66 -32 110
-9 19 10 31 11 33 5 2 -6 15 -11 29 -11 18 0 24 4 19 15 -3 8 2 49 10 91 20
94 14 121 -31 140 -34 14 -50 15 -92 7z m77 -142 c0 -70 -110 -118 -133 -57
-9 23 21 54 56 59 61 7 77 7 77 -2z"/>
<path d="M12191 1313 c-52 -27 -74 -64 -79 -131 -5 -76 21 -112 88 -119 82 -8
149 64 150 159 0 79 -87 129 -159 91z m93 -38 c48 -49 12 -157 -60 -179 -34
-10 -74 28 -74 70 0 88 85 157 134 109z"/>
<path d="M12502 1310 c-39 -24 -46 -25 -38 -4 4 11 0 15 -16 12 -19 -3 -24
-16 -44 -108 -29 -131 -29 -140 -5 -140 16 0 22 11 31 58 23 111 57 162 108
162 38 0 42 -20 21 -115 -23 -109 -23 -105 1 -105 20 0 27 17 50 133 14 72 7
105 -26 117 -35 14 -45 13 -82 -10z"/>
<path d="M480 1316 c0 -3 -11 -56 -25 -120 -14 -64 -25 -118 -25 -122 0 -3 10
-4 22 -2 19 3 24 16 44 108 29 131 29 140 4 140 -11 0 -20 -2 -20 -4z"/>
<path d="M865 1308 c-3 -7 -15 -64 -28 -125 l-23 -113 23 0 c13 0 23 2 23 4 0
5 38 193 45 224 4 17 1 22 -15 22 -11 0 -23 -6 -25 -12z"/>
<path d="M2310 1263 c-6 -32 -18 -86 -26 -121 -18 -79 -18 -74 9 -70 19 3 24
15 44 108 28 131 28 140 4 140 -16 0 -22 -11 -31 -57z"/>
<path d="M3260 1208 c-13 -62 -25 -119 -28 -125 -2 -8 5 -13 20 -13 23 0 25 7
50 125 l25 125 -22 0 c-20 0 -24 -10 -45 -112z"/>
<path d="M9346 1303 c-7 -23 -46 -212 -46 -224 0 -20 40 -8 45 14 7 30 45 218
45 223 0 13 -40 1 -44 -13z"/>
<path d="M11075 1298 c-20 -90 -45 -210 -45 -218 0 -17 38 -11 44 8 8 28 46
211 46 222 0 21 -40 10 -45 -12z"/>
<path d="M12040 1316 c0 -3 -11 -56 -25 -120 -14 -64 -25 -118 -25 -122 0 -3
10 -4 22 -2 19 3 24 16 44 108 29 131 29 140 4 140 -11 0 -20 -2 -20 -4z"/>
<path d="M954 419 c-53 -15 -78 -52 -82 -123 -7 -104 36 -156 129 -156 34 0
47 6 76 35 19 19 33 40 31 47 -8 24 -33 18 -50 -12 -32 -56 -109 -51 -141 10
-23 45 -16 114 15 147 31 33 90 32 120 -2 38 -44 66 -25 33 22 -13 18 -75 45
-95 42 -3 0 -19 -5 -36 -10z"/>
<path d="M1370 280 c0 -118 2 -140 15 -140 13 0 15 22 15 140 0 118 -2 140
-15 140 -13 0 -15 -22 -15 -140z"/>
<path d="M1452 283 c3 -115 6 -138 18 -138 12 0 15 23 18 138 2 132 2 137 -18
137 -20 0 -20 -5 -18 -137z"/>
<path d="M1652 283 c3 -122 5 -138 21 -141 15 -3 17 5 17 62 l0 66 65 0 c51 0
65 3 65 15 0 12 -14 15 -65 15 l-65 0 0 45 0 45 75 0 c60 0 75 3 75 15 0 12
-17 15 -95 15 l-96 0 3 -137z"/>
<path d="M2860 280 c0 -118 2 -140 15 -140 12 0 15 15 15 73 0 77 15 107 52
107 27 0 37 -24 40 -100 2 -62 6 -75 21 -78 15 -3 17 6 17 82 0 73 -3 89 -20
106 -22 22 -60 26 -91 10 -17 -10 -19 -7 -19 35 0 33 -4 45 -15 45 -13 0 -15
-22 -15 -140z"/>
<path d="M3890 280 c0 -118 2 -140 15 -140 8 0 15 5 15 10 0 7 6 7 19 0 75
-40 146 38 120 132 -16 60 -59 79 -121 53 -16 -6 -18 -1 -18 39 0 34 -4 46
-15 46 -13 0 -15 -22 -15 -140z m124 18 c34 -48 9 -128 -39 -128 -13 0 -31 10
-39 22 -34 48 -9 128 39 128 13 0 31 -10 39 -22z"/>
<path d="M4412 283 c3 -122 5 -138 21 -141 15 -3 17 5 17 62 l0 66 65 0 c51 0
65 3 65 15 0 12 -14 15 -65 15 l-65 0 0 45 0 45 75 0 c60 0 75 3 75 15 0 12
-17 15 -95 15 l-96 0 3 -137z"/>
<path d="M5290 400 c0 -15 5 -20 18 -18 9 2 17 10 17 18 0 8 -8 16 -17 18 -13
2 -18 -3 -18 -18z"/>
<path d="M2463 403 c-7 -3 -13 -15 -13 -27 0 -12 -6 -28 -12 -35 -10 -11 -10
-14 0 -18 8 -3 12 -29 12 -82 0 -82 9 -101 47 -101 26 0 32 25 8 34 -22 8 -22
146 0 146 8 0 15 5 15 10 0 6 -6 10 -13 10 -8 0 -18 15 -23 34 -5 20 -14 31
-21 29z"/>
<path d="M5203 403 c-7 -3 -13 -16 -13 -29 0 -14 -7 -27 -15 -30 -8 -4 -15
-10 -15 -15 0 -5 7 -9 15 -9 12 0 15 -15 15 -78 0 -47 5 -83 12 -90 17 -17 58
-15 58 3 0 8 -6 15 -14 15 -19 0 -26 22 -26 87 0 46 3 56 20 60 25 7 26 19 1
26 -13 3 -21 15 -23 34 -2 19 -8 28 -15 26z"/>
<path d="M7050 388 c-49 -33 -61 -62 -57 -135 2 -53 7 -67 32 -93 31 -32 79
-46 121 -36 32 8 84 58 84 80 0 26 -34 18 -51 -13 -29 -51 -100 -49 -135 5
-11 17 -18 44 -17 76 1 59 28 93 80 104 28 5 37 2 62 -25 33 -35 51 -40 51
-13 0 30 -45 64 -92 69 -34 4 -50 0 -78 -19z"/>
<path d="M7490 265 c0 -113 2 -135 15 -135 13 0 15 22 15 135 0 113 -2 135
-15 135 -13 0 -15 -22 -15 -135z"/>
<path d="M7580 265 c0 -113 2 -135 15 -135 13 0 15 22 15 135 0 113 -2 135
-15 135 -13 0 -15 -22 -15 -135z"/>
<path d="M7770 265 l0 -135 83 0 c74 0 86 3 105 23 28 29 29 78 2 102 -17 16
-18 20 -5 38 20 29 19 50 -6 81 -19 24 -26 26 -100 26 l-79 0 0 -135z m154 83
c19 -31 -4 -53 -63 -56 l-51 -3 0 41 0 41 51 -3 c36 -2 55 -8 63 -20z m4 -110
c7 -7 12 -21 12 -33 0 -33 -20 -45 -77 -45 l-53 0 0 45 0 45 53 0 c29 0 58 -5
65 -12z"/>
<path d="M8440 265 c0 -113 2 -135 15 -135 11 0 15 11 15 39 0 22 5 43 12 47
11 7 20 -2 63 -61 12 -16 27 -26 38 -24 14 3 11 13 -23 64 l-40 60 37 37 c31
31 34 38 18 38 -11 0 -39 -19 -62 -42 l-43 -42 0 77 c0 62 -3 77 -15 77 -13 0
-15 -22 -15 -135z"/>
<path d="M8930 265 c0 -128 1 -135 20 -135 18 0 20 7 20 74 0 82 11 100 57 94
28 -3 28 -3 31 -85 3 -75 5 -83 22 -83 18 0 20 7 20 69 0 38 -4 81 -10 95 -11
31 -52 43 -92 28 l-28 -10 0 44 c0 37 -3 44 -20 44 -19 0 -20 -7 -20 -135z"/>
<path d="M9970 265 l0 -134 28 0 c15 1 39 -2 54 -6 22 -6 33 -2 58 23 26 26
30 38 30 82 0 41 -5 56 -25 75 -25 26 -63 32 -96 15 -17 -10 -19 -7 -19 35 0
33 -4 45 -15 45 -13 0 -15 -22 -15 -135z m129 3 c23 -40 5 -99 -33 -113 -24
-8 -31 -6 -47 14 -23 28 -25 79 -3 109 21 31 63 26 83 -10z"/>
<path d="M10520 343 c-77 -199 -81 -213 -61 -213 12 0 23 14 34 40 l15 40 60
0 59 0 13 -40 c9 -27 19 -40 32 -40 10 0 18 3 18 8 0 4 -23 64 -51 135 -44
110 -54 127 -74 127 -18 0 -27 -11 -45 -57z m85 -80 c6 -22 3 -23 -40 -23 -41
0 -46 2 -40 18 4 9 14 37 23 62 l16 45 17 -40 c9 -22 20 -50 24 -62z"/>
<path d="M12170 385 c0 -8 7 -15 15 -15 8 0 15 7 15 15 0 8 -7 15 -15 15 -8 0
-15 -7 -15 -15z"/>
<path d="M10933 383 c-7 -2 -13 -16 -13 -29 0 -13 -4 -24 -10 -24 -5 0 -10 -7
-10 -15 0 -8 5 -15 10 -15 6 0 10 -28 10 -62 0 -35 3 -73 6 -85 6 -21 46 -39
64 -28 13 8 1 35 -16 35 -11 0 -14 17 -14 70 0 56 3 70 15 70 8 0 15 7 15 15
0 8 -7 15 -15 15 -10 0 -15 10 -15 30 0 30 -4 33 -27 23z"/>
<path d="M1193 340 c-33 -14 -56 -66 -50 -114 7 -51 44 -86 91 -86 36 0 86 33
86 56 0 20 -23 17 -43 -6 -32 -37 -97 -16 -97 31 0 19 6 20 70 18 39 -1 72 0
75 2 2 3 0 22 -6 42 -15 55 -70 79 -126 57z m79 -37 c33 -30 23 -43 -37 -43
-59 0 -68 10 -38 42 20 22 51 23 75 1z"/>
<path d="M1935 341 c-3 -6 -17 -8 -31 -5 l-25 6 3 -98 c3 -85 5 -99 21 -102
15 -3 17 5 17 71 0 77 7 91 45 99 11 2 20 10 20 18 0 18 -40 26 -50 11z"/>
<path d="M2053 340 c-34 -14 -56 -66 -50 -114 12 -84 100 -115 159 -56 28 28
30 35 26 81 -3 32 -13 58 -25 70 -22 23 -79 33 -110 19z m79 -37 c23 -21 25
-95 2 -117 -39 -39 -94 -6 -94 57 0 67 49 99 92 60z"/>
<path d="M2282 334 c-12 -8 -22 -10 -22 -5 0 6 -7 11 -15 11 -12 0 -15 -18
-15 -100 0 -82 3 -100 15 -100 12 0 15 13 15 59 0 76 13 109 45 117 44 11 55
-9 55 -97 0 -64 3 -79 15 -79 12 0 15 17 15 89 0 82 -2 91 -22 105 -12 9 -32
16 -43 16 -11 0 -31 -7 -43 -16z"/>
<path d="M2688 339 c-57 -33 -38 -89 36 -108 51 -12 63 -25 46 -46 -19 -22
-66 -19 -84 6 -8 12 -19 18 -25 14 -32 -19 15 -65 67 -65 50 0 82 23 82 59 0
35 -16 49 -72 66 -31 9 -43 17 -43 31 0 25 47 31 68 10 20 -20 37 -20 37 -2 0
35 -73 58 -112 35z"/>
<path d="M3089 321 c-24 -24 -29 -38 -29 -76 0 -117 145 -148 180 -39 35 106
-76 190 -151 115z m105 -23 c35 -50 9 -128 -43 -128 -33 0 -46 13 -56 57 -15
73 60 127 99 71z"/>
<path d="M3625 340 c-3 -6 -17 -7 -31 -4 l-24 6 0 -101 c0 -83 3 -101 15 -101
12 0 15 15 15 73 0 84 19 115 63 103 29 -7 37 -30 37 -113 0 -49 3 -63 15 -63
12 0 15 16 15 85 0 72 -3 88 -20 105 -21 21 -74 27 -85 10z"/>
<path d="M4794 327 c-23 -21 -27 -28 -17 -38 10 -10 17 -9 33 9 31 33 90 27
90 -8 0 -19 -10 -24 -72 -35 -36 -6 -68 -35 -68 -62 0 -42 75 -67 123 -42 16
9 22 9 25 0 2 -6 10 -11 18 -11 11 0 14 18 14 83 0 100 -10 117 -71 124 -38 4
-50 1 -75 -20z m106 -110 c0 -32 -18 -47 -57 -47 -37 0 -53 21 -33 45 10 12
28 18 78 24 6 0 12 -9 12 -22z"/>
<path d="M5009 321 c-24 -24 -29 -38 -29 -76 0 -88 84 -135 146 -82 18 16 25
30 21 40 -9 24 -22 21 -35 -8 -13 -27 -58 -35 -80 -13 -18 18 -15 103 4 122
21 22 51 20 71 -4 20 -23 43 -26 43 -6 0 22 -49 56 -82 56 -19 0 -40 -10 -59
-29z"/>
<path d="M5440 340 c-8 -5 -25 -7 -37 -3 -23 5 -23 4 -23 -96 0 -83 3 -101 15
-101 12 0 15 14 15 68 0 73 17 112 50 112 37 0 50 -27 50 -106 0 -59 3 -74 15
-74 12 0 15 16 15 85 0 72 -3 88 -20 105 -21 21 -55 26 -80 10z"/>
<path d="M3293 240 c23 -77 34 -100 48 -100 13 0 22 17 35 70 10 39 21 70 25
70 4 0 9 -14 13 -32 28 -141 46 -142 92 -5 30 88 31 97 14 97 -14 0 -22 -15
-35 -65 -21 -77 -30 -87 -39 -43 -17 83 -27 108 -45 108 -15 0 -23 -16 -39
-72 -11 -41 -22 -66 -25 -58 -4 8 -13 41 -22 73 -12 42 -21 57 -35 57 -16 0
-15 -8 13 -100z"/>
<path d="M4093 328 c2 -7 19 -53 38 -101 35 -95 34 -119 -10 -125 -24 -4 -28
-30 -6 -38 27 -11 59 22 82 82 76 204 74 194 54 194 -13 0 -24 -18 -42 -70
-13 -38 -26 -70 -30 -70 -3 0 -17 32 -30 70 -18 53 -28 70 -42 70 -11 0 -17
-5 -14 -12z"/>
<path d="M5290 239 c0 -90 2 -100 18 -97 14 3 17 17 20 101 3 92 2 97 -18 97
-19 0 -20 -6 -20 -101z"/>
<path d="M7295 308 c-70 -62 -25 -188 68 -188 28 0 77 35 77 56 0 20 -24 17
-45 -6 -10 -11 -28 -20 -40 -20 -25 0 -55 29 -55 53 0 14 12 17 76 17 l77 0
-7 33 c-8 43 -48 77 -91 77 -21 0 -44 -9 -60 -22z m105 -27 c15 -30 14 -31
-45 -31 -57 0 -66 8 -39 34 22 23 71 20 84 -3z"/>
<path d="M8042 303 c-25 -25 -25 -28 -8 -31 10 -2 23 3 28 12 11 19 68 22 86
4 23 -23 12 -37 -35 -43 -66 -10 -93 -29 -93 -65 0 -52 57 -75 113 -46 15 8
27 11 27 5 0 -5 8 -9 18 -9 15 0 17 9 14 83 -5 100 -16 117 -79 117 -35 0 -50
-6 -71 -27z m118 -98 c0 -23 -37 -55 -64 -55 -32 0 -53 25 -36 44 21 26 100
34 100 11z"/>
<path d="M8273 315 c-53 -37 -48 -151 7 -180 16 -8 39 -15 50 -15 25 0 84 55
75 70 -11 17 -30 11 -40 -12 -14 -32 -58 -36 -79 -6 -22 31 -21 91 2 111 23
21 56 22 72 2 16 -19 40 -19 40 -1 0 40 -86 60 -127 31z"/>
<path d="M8750 310 c-37 -37 -19 -72 50 -95 56 -19 67 -30 50 -50 -18 -21 -57
-18 -80 5 -11 11 -24 20 -30 20 -15 0 -12 -27 6 -44 47 -47 144 -22 144 38 0
29 -24 49 -77 65 -32 9 -43 17 -43 31 0 16 7 20 35 20 22 0 38 -6 41 -15 8
-19 34 -20 34 -2 0 45 -93 64 -130 27z"/>
<path d="M9165 305 c-20 -19 -25 -34 -25 -75 0 -44 5 -56 29 -81 31 -31 67
-37 104 -17 36 19 46 40 47 96 0 69 -29 102 -90 102 -30 0 -47 -6 -65 -25z
m109 -27 c22 -31 20 -84 -4 -108 -32 -32 -66 -25 -89 17 -27 52 -1 113 49 113
18 0 34 -8 44 -22z"/>
<path d="M9343 318 c2 -7 16 -52 31 -100 21 -70 31 -88 45 -88 15 0 23 15 38
73 l20 72 17 -60 c24 -86 24 -85 44 -85 15 0 24 19 45 89 31 103 32 111 13
111 -9 0 -20 -25 -31 -65 -10 -36 -21 -68 -26 -70 -4 -3 -15 27 -24 65 -13 55
-21 70 -35 70 -14 0 -22 -16 -36 -70 -10 -38 -21 -70 -25 -70 -4 0 -15 32 -24
70 -14 58 -21 70 -37 70 -12 0 -18 -5 -15 -12z"/>
<path d="M9649 326 c-2 -2 -3 -47 -1 -100 3 -75 6 -96 18 -96 11 0 14 16 14
69 0 79 15 104 59 99 23 -3 26 -8 29 -43 5 -88 13 -125 28 -125 11 0 14 17 14
80 0 67 -3 83 -20 100 -22 22 -60 26 -90 10 -13 -7 -21 -7 -25 0 -6 10 -19 13
-26 6z"/>
<path d="M10170 322 c0 -6 16 -52 36 -103 28 -75 33 -98 25 -116 -6 -13 -19
-23 -31 -23 -11 0 -20 -7 -20 -16 0 -11 8 -14 33 -12 35 3 36 4 107 198 26 71
28 81 13 78 -11 -2 -27 -28 -43 -70 -15 -37 -29 -70 -31 -73 -3 -2 -17 28 -31
68 -16 45 -31 73 -42 75 -9 2 -16 -1 -16 -6z"/>
<path d="M10753 315 c-12 -8 -27 -31 -33 -51 -24 -72 21 -144 90 -144 25 0 84
55 75 70 -11 17 -30 11 -40 -12 -14 -32 -58 -36 -79 -6 -22 31 -21 91 2 111
23 21 56 22 72 2 16 -19 40 -19 40 -1 0 39 -86 60 -127 31z"/>
<path d="M11047 310 c-51 -41 -43 -146 15 -176 69 -36 138 11 138 93 0 85 -89
133 -153 83z m103 -25 c20 -24 17 -90 -4 -114 -41 -45 -96 -11 -96 58 0 19 7
43 17 53 20 22 66 24 83 3z"/>
<path d="M11240 230 c0 -77 3 -100 14 -100 9 0 15 21 19 71 7 78 18 99 52 99
29 0 35 -16 35 -101 0 -55 3 -69 15 -69 12 0 15 13 15 58 0 68 17 106 49 110
33 5 41 -12 41 -95 0 -58 3 -73 15 -73 22 0 22 162 -1 184 -19 20 -68 21 -86
2 -12 -11 -17 -11 -33 0 -23 17 -67 18 -84 2 -11 -10 -14 -10 -18 0 -3 6 -11
12 -19 12 -11 0 -14 -20 -14 -100z"/>
<path d="M11550 322 c0 -6 16 -52 36 -103 28 -75 33 -98 25 -116 -6 -13 -19
-23 -31 -23 -11 0 -20 -7 -20 -16 0 -11 8 -14 33 -12 35 3 36 5 107 198 26 72
28 80 12 80 -13 0 -24 -19 -42 -71 -14 -39 -28 -72 -31 -74 -3 -3 -17 28 -31
68 -16 45 -31 73 -42 75 -9 2 -16 -1 -16 -6z"/>
<path d="M11775 305 c-21 -20 -25 -34 -25 -79 0 -48 3 -57 31 -80 17 -15 43
-26 59 -26 16 0 42 11 59 26 28 23 31 32 31 80 0 71 -28 104 -90 104 -30 0
-47 -6 -65 -25z m111 -30 c20 -31 13 -94 -13 -112 -61 -45 -124 49 -77 115 22
31 69 30 90 -3z"/>
<path d="M11987 312 c-37 -41 -18 -78 49 -98 40 -11 54 -20 54 -34 0 -34 -57
-41 -85 -10 -10 11 -24 20 -32 20 -35 0 8 -57 50 -65 104 -20 146 87 45 116
-49 14 -73 32 -64 48 11 17 57 13 78 -6 29 -26 46 -1 19 26 -27 27 -91 29
-114 3z"/>
<path d="M12170 230 c0 -82 3 -100 15 -100 12 0 15 18 15 100 0 82 -3 100 -15
100 -12 0 -15 -18 -15 -100z"/>
<path d="M12257 323 c-4 -3 -7 -48 -7 -100 0 -86 1 -93 20 -93 18 0 20 7 20
68 0 81 13 105 55 100 l30 -3 3 -82 c3 -75 5 -83 22 -83 18 0 20 7 20 80 0 67
-3 83 -20 100 -23 23 -79 27 -99 8 -11 -10 -14 -10 -18 0 -5 13 -16 16 -26 5z"/>
<path d="M6300 245 l0 -55 240 0 240 0 0 55 0 55 -240 0 -240 0 0 -55z"/>
<path d="M4630 245 c0 -12 13 -15 55 -15 42 0 55 3 55 15 0 12 -13 15 -55 15
-42 0 -55 -3 -55 -15z"/>
</g>
</svg>
