<?xml version="1.0" standalone="no"?>
<!DOCTYPE svg PUBLIC "-//W3C//DTD SVG 20010904//EN"
 "http://www.w3.org/TR/2001/REC-SVG-20010904/DTD/svg10.dtd">
<svg version="1.0" xmlns="http://www.w3.org/2000/svg"
 width="842.000000pt" height="555.000000pt" viewBox="0 0 842.000000 555.000000"
 preserveAspectRatio="xMidYMid meet">
<metadata>
Created by potrace 1.16, written by Peter Selinger 2001-2019
</metadata>
<g transform="translate(0.000000,555.000000) scale(0.100000,-0.100000)"
fill="#000000" stroke="none">
<path d="M2322 4940 c-139 -416 -198 -580 -208 -580 -8 0 -243 -23 -521 -50
l-506 -50 -15 22 c-56 84 -192 171 -317 203 -77 20 -243 19 -320 0 -376 -97
-512 -456 -263 -696 208 -202 605 -211 822 -18 35 31 57 43 75 41 14 -1 271
22 571 52 300 30 548 52 551 48 3 -4 79 -96 169 -206 l163 -198 49 126 c47
121 51 126 78 126 35 0 34 0 93 -152 l45 -118 -34 0 c-30 0 -37 4 -45 30 -10
28 -15 30 -58 30 -42 0 -48 -3 -58 -29 -6 -17 -19 -31 -31 -33 -18 -2 0 -28
114 -168 126 -155 133 -165 117 -181 -25 -22 -811 -589 -826 -595 -7 -2 -256
95 -555 216 -298 121 -547 221 -552 222 -10 3 -37 -61 -160 -363 l-19 -47 574
-232 574 -233 5 -51 c3 -28 12 -269 21 -536 8 -267 18 -530 22 -584 l6 -99
221 7 c121 4 221 8 222 9 1 1 -9 279 -22 617 -13 338 -23 644 -23 680 l0 65
409 295 c224 162 412 295 415 294 4 0 203 -126 441 -280 l434 -279 0 -635 0
-635 -47 -25 c-66 -34 -155 -127 -189 -197 -26 -51 -29 -69 -29 -153 0 -85 3
-101 29 -155 127 -259 507 -361 802 -215 184 90 285 261 254 427 -28 155 -140
270 -342 351 l-28 12 0 578 c0 539 1 580 17 594 37 32 843 578 853 578 6 0 82
-45 168 -100 l157 -101 3 126 3 125 78 0 c65 0 84 -4 112 -23 66 -44 75 -137
20 -200 -27 -29 -34 -31 -112 -37 l-83 -5 262 -165 261 -165 1 -542 c0 -417 3
-543 12 -543 24 0 403 -30 435 -34 l33 -5 2 552 3 552 533 244 c292 135 532
250 532 255 1 23 -155 436 -164 436 -6 0 -265 -117 -576 -260 -311 -143 -570
-260 -576 -260 -8 0 -752 467 -772 485 -4 3 623 741 636 749 5 3 242 -22 528
-55 285 -32 524 -57 531 -55 6 3 13 17 15 32 3 26 5 25 36 -24 148 -230 502
-309 778 -172 284 140 345 447 128 650 -110 102 -248 153 -414 153 -159 0
-297 -46 -403 -135 l-47 -39 -543 61 c-315 36 -547 67 -553 74 -6 6 -80 238
-164 516 -84 278 -154 507 -156 509 -5 5 -447 -91 -457 -100 -6 -4 280 -969
339 -1144 2 -5 -66 -91 -151 -190 l-153 -180 65 -5 c53 -4 68 -9 84 -29 24
-30 24 -57 -1 -78 -19 -17 -19 -17 0 -30 30 -21 27 -76 -6 -102 -22 -17 -41
-21 -105 -21 l-78 0 -3 106 -3 105 -207 -243 c-113 -134 -219 -255 -235 -269
-54 -50 -828 -573 -848 -573 -11 0 -208 122 -438 271 l-418 271 -206 251
c-179 219 -208 250 -221 238 -12 -13 -12 -18 3 -40 22 -34 12 -82 -21 -104
-13 -8 -43 -15 -67 -15 -33 1 -47 7 -65 28 -13 14 -21 31 -19 38 6 17 42 19
57 1 16 -19 56 -20 64 0 9 25 -4 45 -30 45 -34 0 -35 47 -1 52 14 2 23 11 25
26 5 32 -26 41 -49 14 -16 -21 -49 -29 -62 -16 -13 13 20 58 55 74 l37 17
-169 207 c-94 114 -170 215 -170 225 0 9 41 138 90 286 50 148 90 273 90 277
0 5 -29 8 -65 8 -58 0 -65 2 -65 20 0 15 7 20 25 20 24 0 25 2 25 70 0 69 -1
70 -21 59 -17 -9 -25 -8 -38 6 -15 15 -13 19 24 51 24 20 51 34 68 34 l27 0 0
-110 c0 -101 2 -110 19 -110 10 0 22 8 26 18 16 40 185 546 182 547 -1 1 -92
32 -202 70 -110 37 -205 70 -210 72 -6 2 -97 -258 -203 -577z m195 -40 l51
-130 -34 0 c-28 0 -36 5 -44 25 -8 22 -15 25 -60 25 -45 0 -50 -2 -56 -25 -5
-21 -12 -25 -40 -25 -19 0 -34 2 -34 4 0 5 91 238 97 249 2 4 19 7 37 7 l33 0
50 -130z m3408 25 c30 -29 32 -59 5 -82 -19 -17 -19 -17 0 -30 30 -21 27 -76
-6 -102 -22 -17 -41 -21 -105 -21 l-79 0 0 130 0 130 80 0 c73 0 83 -3 105
-25z m185 -85 l0 -110 25 0 c18 0 25 -5 25 -20 0 -18 -7 -20 -80 -20 -73 0
-80 2 -80 20 0 15 7 20 25 20 24 0 25 2 25 70 0 67 -1 70 -20 58 -16 -11 -23
-10 -37 5 -17 17 -16 19 22 52 24 21 51 34 68 35 l27 0 0 -110z m-5685 -581
c53 -15 110 -73 125 -129 45 -166 -108 -300 -263 -232 -149 66 -137 302 19
357 48 17 68 18 119 4z m349 -135 l106 -136 0 136 0 136 25 0 25 0 0 -190 c0
-242 1 -242 -142 -56 l-103 134 -5 -132 -5 -131 -27 -3 -28 -3 0 190 0 191 24
0 c20 0 46 -28 130 -136z m1115 125 c66 -23 69 -86 9 -156 l-41 -48 44 -5 c39
-4 44 -8 44 -30 0 -25 -1 -25 -90 -25 -116 0 -121 12 -36 100 43 44 61 71 61
89 0 21 -5 26 -25 26 -14 0 -28 -7 -31 -15 -5 -13 -64 -23 -64 -10 0 21 30 60
55 71 37 16 35 16 74 3z m-186 -122 c51 -134 54 -147 33 -147 -28 0 -48 13
-57 36 -7 21 -15 24 -58 24 -43 0 -51 -3 -57 -22 -4 -13 -12 -26 -18 -30 -16
-11 -56 -10 -56 2 0 10 86 235 96 251 3 5 20 9 38 9 32 0 33 0 79 -123z m5032
49 c35 -23 41 -53 17 -85 -20 -27 -20 -28 -1 -39 28 -17 25 -67 -6 -97 -22
-22 -32 -25 -105 -25 l-80 0 0 128 c0 71 3 132 8 136 12 13 142 -2 167 -18z
m216 -5 c43 -43 38 -66 -29 -148 l-34 -43 46 0 c42 0 46 -2 46 -25 0 -25 0
-25 -95 -25 -117 0 -119 6 -34 95 49 51 60 69 57 91 -4 35 -22 41 -45 15 -22
-27 -63 -28 -63 -3 0 37 45 71 93 72 18 0 39 -10 58 -29z m766 -56 c50 -21 72
-42 94 -90 34 -74 16 -190 -37 -237 -54 -48 -142 -60 -209 -29 -74 34 -106 88
-106 176 0 88 32 142 106 176 49 23 104 24 152 4z m237 -10 c13 -13 61 -74
107 -135 l84 -111 5 133 5 133 25 0 25 0 3 -188 2 -188 -27 3 c-22 2 -48 29
-128 133 l-100 129 -3 -132 -3 -132 -24 0 -25 0 0 190 c0 165 2 190 15 190 9
0 26 -11 39 -25z m-2016 -381 c26 -29 27 -39 8 -76 -12 -23 -12 -29 0 -39 8
-6 14 -26 14 -43 0 -77 -114 -113 -166 -53 -30 35 -30 45 0 53 17 4 31 -1 45
-15 17 -17 25 -19 42 -11 27 15 22 54 -8 58 -17 2 -23 10 -23 27 0 17 6 25 23
27 14 2 22 10 22 23 0 25 -37 32 -55 10 -15 -18 -60 -20 -60 -2 0 20 30 57 54
67 32 14 79 3 104 -26z m-2250 -906 c-3 -20 -10 -23 -55 -26 -49 -3 -53 -5
-53 -28 0 -21 4 -24 41 -24 38 0 40 -1 37 -27 -3 -24 -8 -28 -40 -31 -32 -3
-38 -7 -38 -27 0 -22 5 -24 53 -27 45 -3 52 -6 55 -25 3 -22 1 -23 -87 -23
l-91 0 0 130 0 130 91 0 c88 0 90 -1 87 -22z m152 -88 l0 -110 25 0 c18 0 25
-5 25 -20 0 -18 -7 -20 -80 -20 -73 0 -80 2 -80 20 0 15 7 20 25 20 24 0 25 2
25 70 0 68 -1 70 -21 58 -17 -11 -22 -10 -34 6 -13 17 -11 22 23 52 22 20 48
33 65 34 l27 0 0 -110z m2195 86 c62 -26 60 -90 -7 -162 l-41 -44 47 0 c42 0
46 -2 46 -25 0 -25 0 -25 -95 -25 -61 0 -95 4 -95 11 0 6 24 36 54 67 60 64
80 97 72 118 -7 18 -40 18 -56 -1 -15 -18 -60 -20 -60 -2 0 20 30 58 54 67 30
12 42 12 81 -4z m-1290 -36 c0 -23 -4 -25 -52 -28 -49 -3 -53 -5 -53 -28 0
-21 4 -24 40 -24 36 0 40 -2 40 -25 0 -22 -4 -25 -40 -25 -38 0 -40 -2 -40
-30 0 -30 1 -30 55 -30 52 0 55 -1 55 -25 0 -25 -1 -25 -90 -25 l-90 0 0 135
0 136 88 -3 c85 -3 87 -3 87 -28z m180 5 c38 -37 33 -74 -20 -138 -33 -41 -39
-54 -25 -50 37 10 70 -5 70 -32 0 -25 -1 -25 -95 -25 -117 0 -119 6 -35 94 63
66 77 101 47 120 -16 9 -22 7 -34 -11 -27 -39 -72 -26 -58 17 16 50 110 66
150 25z m-2449 -17 c8 -8 12 -22 8 -31 -5 -14 -15 -16 -59 -11 -47 6 -54 4
-69 -17 -24 -35 -21 -85 9 -114 27 -28 42 -30 79 -14 20 9 29 9 41 -1 22 -18
19 -28 -15 -45 -46 -24 -113 -20 -149 10 -74 63 -62 193 22 231 38 17 113 12
133 -8z m188 1 c20 -16 26 -29 26 -59 0 -31 -8 -47 -46 -89 l-46 -51 30 6 c37
7 72 -10 72 -36 0 -19 -7 -20 -95 -20 -117 0 -119 6 -35 97 40 43 60 72 60 89
0 34 -26 41 -55 14 -24 -23 -55 -24 -62 -3 -3 7 9 26 25 43 37 37 86 40 126 9z
m4277 -32 c66 -44 75 -137 19 -200 -27 -31 -31 -32 -119 -35 l-91 -4 0 131 0
131 79 0 c65 0 84 -4 112 -23z m219 -87 c0 -103 1 -110 20 -110 13 0 20 -7 20
-20 0 -18 -7 -20 -80 -20 -73 0 -80 2 -80 20 0 15 7 20 25 20 24 0 25 2 25 70
0 68 -1 70 -21 58 -17 -11 -22 -10 -34 6 -13 17 -10 22 26 52 26 22 52 34 70
34 l29 0 0 -110z m-5829 27 c23 -14 23 -18 6 -41 -11 -15 -17 -16 -35 -7 -30
16 -62 14 -84 -6 -24 -21 -25 -99 -1 -125 18 -20 73 -24 91 -6 8 8 15 8 27 -2
24 -20 18 -36 -19 -54 -42 -20 -67 -20 -111 -2 -88 37 -102 186 -23 238 45 29
107 31 149 5z m169 -97 l0 -110 25 0 c18 0 25 -5 25 -20 0 -18 -7 -20 -80 -20
-73 0 -80 2 -80 20 0 15 7 20 25 20 24 0 25 2 25 70 0 68 -1 70 -21 58 -17
-11 -22 -10 -34 6 -13 17 -11 22 23 52 22 20 48 33 65 34 l27 0 0 -110z m2872
-777 c22 -20 24 -76 2 -94 -13 -11 -13 -14 -1 -21 8 -4 18 -19 21 -32 22 -86
-100 -139 -164 -71 -42 45 -3 75 47 36 31 -25 55 -17 51 18 -2 18 -10 27 -26
29 -31 5 -27 46 6 50 16 3 22 10 22 28 0 19 -5 24 -25 24 -14 0 -28 -7 -31
-15 -4 -9 -19 -15 -35 -15 -33 0 -33 0 -17 36 24 51 107 66 150 27z m-182 -8
c0 -24 -3 -25 -55 -25 -52 0 -55 -1 -55 -25 0 -22 4 -25 40 -25 38 0 40 -2 40
-30 0 -28 -2 -30 -40 -30 -36 0 -40 -2 -40 -25 0 -24 3 -25 55 -25 52 0 55 -1
55 -25 0 -25 -1 -25 -85 -25 l-85 0 0 130 0 130 85 0 c84 0 85 0 85 -25z
m2145 5 c110 -25 139 -174 46 -237 -28 -19 -47 -23 -112 -23 l-79 0 0 128 c0
71 3 132 7 135 9 10 91 8 138 -3z m288 -21 c22 -27 22 -63 0 -84 -16 -16 -16
-18 0 -27 25 -14 22 -76 -5 -105 -17 -18 -32 -23 -69 -23 -40 0 -51 4 -73 31
-14 17 -24 35 -20 40 9 14 50 10 64 -6 20 -25 55 -15 55 15 0 18 -6 26 -22 28
-17 2 -23 10 -23 27 0 17 6 25 23 27 13 2 23 11 25 24 4 31 -26 39 -53 14 -23
-22 -50 -26 -60 -10 -9 15 21 59 48 70 33 14 90 3 110 -21z m-4552 -12 c23
-14 23 -18 6 -41 -11 -15 -17 -16 -35 -7 -30 16 -62 14 -84 -6 -24 -21 -25
-99 -1 -125 18 -20 73 -24 91 -6 8 8 15 8 27 -2 24 -20 18 -36 -19 -54 -42
-20 -67 -20 -111 -2 -102 43 -99 217 5 253 38 13 91 9 121 -10z m167 12 c43
-15 62 -62 40 -100 -14 -24 -14 -30 -2 -40 8 -6 14 -26 14 -43 0 -77 -114
-113 -166 -53 -30 35 -30 45 0 53 17 4 31 -1 45 -15 17 -17 25 -19 42 -11 27
15 22 54 -8 58 -17 2 -23 10 -23 27 0 17 6 25 23 27 14 2 22 10 22 23 0 25
-37 32 -55 10 -15 -18 -60 -20 -60 -2 0 20 30 58 54 67 29 12 38 12 74 -1z
m1690 -1008 c15 -15 65 -78 112 -138 l85 -111 3 139 3 139 24 0 25 0 0 -190 0
-190 -24 0 c-19 0 -45 28 -127 135 l-104 134 -3 -134 -3 -135 -24 0 -25 0 0
190 c0 167 2 190 16 190 9 0 28 -13 42 -29z m375 23 c8 -3 59 -63 113 -134
l99 -128 5 131 5 132 25 0 25 0 3 -187 2 -188 -24 0 c-21 0 -45 26 -131 136
l-105 136 0 -136 0 -136 -25 0 -25 0 0 190 c0 109 4 190 9 190 5 0 16 -3 24
-6z"/>
<path d="M2417 4917 l-16 -47 30 0 c32 0 34 7 15 60 l-13 34 -16 -47z"/>
<path d="M5810 4871 c0 -26 4 -31 23 -31 57 1 66 53 9 58 -30 3 -32 1 -32 -27z"/>
<path d="M5810 4770 c0 -28 3 -30 35 -30 23 0 38 6 41 15 9 23 -15 45 -47 45
-26 0 -29 -4 -29 -30z"/>
<path d="M284 4176 c-34 -34 -41 -58 -35 -131 10 -111 143 -150 216 -63 25 29
27 38 23 101 -3 63 -7 72 -36 98 -27 24 -41 29 -83 29 -45 0 -55 -4 -85 -34z"/>
<path d="M1606 4146 c-3 -13 -9 -31 -12 -40 -5 -13 1 -16 25 -16 34 0 36 3 20
49 -13 37 -25 40 -33 7z"/>
<path d="M6630 4115 c0 -24 3 -26 33 -23 24 2 32 8 32 23 0 15 -8 21 -32 23
-30 3 -33 1 -33 -23z"/>
<path d="M6630 4010 c0 -27 3 -30 34 -30 22 0 36 6 40 16 9 24 -12 44 -45 44
-26 0 -29 -4 -29 -30z"/>
<path d="M7572 4054 c-68 -47 -69 -190 -1 -238 27 -19 97 -21 133 -4 73 33 87
165 24 228 -25 26 -37 30 -82 30 -30 0 -61 -6 -74 -16z"/>
<path d="M6820 2630 l0 -80 35 0 c48 0 75 29 75 80 0 51 -27 80 -75 80 l-35 0
0 -80z"/>
<path d="M6260 1670 l0 -80 34 0 c63 0 99 83 60 138 -11 16 -25 22 -55 22
l-39 0 0 -80z"/>
<path d="M5610 3671 c0 -26 4 -31 23 -31 57 1 66 53 9 58 -30 3 -32 1 -32 -27z"/>
<path d="M2642 3660 c-26 -67 -26 -70 7 -70 34 0 36 7 16 60 l-13 35 -10 -25z"/>
<path d="M5610 3570 c0 -28 3 -30 35 -30 23 0 38 6 41 15 9 23 -15 45 -47 45
-26 0 -29 -4 -29 -30z"/>
<path d="M5700 2690 l0 -80 35 0 c48 0 75 29 75 80 0 51 -27 80 -75 80 l-35 0
0 -80z"/>
</g>
</svg>
