<?xml version="1.0" encoding="UTF-8" standalone="no"?>
<!-- Created with Inkscape (http://www.inkscape.org/) -->

<svg
   width="466.47723mm"
   height="219.03938mm"
   viewBox="0 0 466.47723 219.03938"
   version="1.1"
   id="svg1"
   xml:space="preserve"
   inkscape:version="1.4 (e7c3feb100, 2024-10-09)"
   sodipodi:docname="brainParts.svg"
   inkscape:export-filename="brainParts.png"
   inkscape:export-xdpi="96"
   inkscape:export-ydpi="96"
   xmlns:inkscape="http://www.inkscape.org/namespaces/inkscape"
   xmlns:sodipodi="http://sodipodi.sourceforge.net/DTD/sodipodi-0.dtd"
   xmlns="http://www.w3.org/2000/svg"
   xmlns:svg="http://www.w3.org/2000/svg"><sodipodi:namedview
     id="namedview1"
     pagecolor="#ffffff"
     bordercolor="#000000"
     borderopacity="0.25"
     inkscape:showpageshadow="2"
     inkscape:pageopacity="0.0"
     inkscape:pagecheckerboard="0"
     inkscape:deskcolor="#d1d1d1"
     inkscape:document-units="mm"
     showgrid="false"
     inkscape:zoom="0.47685563"
     inkscape:cx="819.95467"
     inkscape:cy="563.0635"
     inkscape:window-width="1920"
     inkscape:window-height="1008"
     inkscape:window-x="0"
     inkscape:window-y="0"
     inkscape:window-maximized="1"
     inkscape:current-layer="layer1" /><defs
     id="defs1"><inkscape:path-effect
       effect="spiro"
       id="path-effect76"
       is_visible="true"
       lpeversion="1" /><rect
       x="-469.74384"
       y="113.24182"
       width="314.49252"
       height="259.81982"
       id="rect1" /><style
       id="style2656"
       type="text/css">
      .str0,.str2,.str3{stroke:#000;stroke-width:2}.str3{stroke-dasharray:5 7}.fil5{fill:none}.fil6{fill:#000}.fil2{fill:#fff}
    </style><rect
       x="-469.74384"
       y="113.24182"
       width="314.49252"
       height="259.81982"
       id="rect1-6" /><inkscape:path-effect
       effect="spiro"
       id="path-effect76-9"
       is_visible="true"
       lpeversion="1" /><inkscape:path-effect
       effect="spiro"
       id="path-effect76-9-2"
       is_visible="true"
       lpeversion="1" /><rect
       x="-469.74384"
       y="113.24182"
       width="314.49252"
       height="259.81982"
       id="rect1-6-8" /><inkscape:path-effect
       effect="spiro"
       id="path-effect76-9-2-3"
       is_visible="true"
       lpeversion="1" /><rect
       x="-469.74384"
       y="113.24182"
       width="314.49252"
       height="259.81982"
       id="rect1-6-8-6" /><inkscape:path-effect
       effect="spiro"
       id="path-effect76-9-2-3-3"
       is_visible="true"
       lpeversion="1" /><rect
       x="-469.74384"
       y="113.24182"
       width="314.49252"
       height="259.81982"
       id="rect1-65" /></defs><g
     inkscape:label="Layer 1"
     inkscape:groupmode="layer"
     id="layer1"
     transform="translate(126.89012,-17.662742)"><g
       style="fill-rule:evenodd;image-rendering:optimizeQuality;shape-rendering:geometricPrecision;text-rendering:geometricPrecision"
       id="g1"
       transform="matrix(0.26422188,0,0,0.26422188,-29.26838,48.239057)"><path
         fill="#fcfb98"
         d="m 564,54 c 13,-2 26,-1 38,6 38,-7 66,-1 83,18 14,-3 29,1 43,11 39,17 67,39 89,64 36,15 50,33 52,53 19,14 31,31 39,50 L 798,413 455,370 352,209 Z"
         id="path1" /><path
         fill="#b4d8ec"
         d="m 573,52 -15,38 c -64,5 -78,25 -58,57 12,14 -10,26 -16,42 -6,20 -13,41 -23,62 0,54 -31,50 -28,69 l 22,29 -191,199 C 169,563 118,555 104,528 75,518 57,486 51,432 36,416 35,401 40,385 c -2,-6 -3,-12 1,-18 -8,-26 -4,-40 1,-53 2,-20 12,-37 27,-52 -1,-25 14,-38 34,-46 16,-51 88,-86 117,-94 19,-17 45,-27 77,-31 16,-7 31,-12 46,-14 28,-18 60,-21 92,-21 26,-9 53,-12 81,-6 z"
         id="path2" /><path
         fill="#fff"
         stroke="#000"
         stroke-width="2"
         d="m 518,579 c 7,28 20,47 41,55 30,14 53,48 77,78 13,-7 27,-13 38,-23 L 560,553 Z"
         class="fil2 str0"
         id="path3" /><path
         fill="#fff"
         stroke="#000"
         stroke-width="2"
         d="m 551,571 c 0,6 1,12 7,18 2,34 15,45 33,45 80,51 141,54 187,24 19,-11 49,-22 51,-33 22,-11 35,-22 47,-33 19,-16 19,-44 11,-79 -190,-6 -286,19 -336,58 z"
         class="fil2 str0"
         id="path4" /><path
         fill="#b6cf9d"
         d="m 564,312 266,42 c 39,46 78,92 116,138 -28,27 -66,31 -107,25 -17,9 -43,14 -82,0 -15,9 -30,15 -45,20 -24,13 -49,17 -75,17 -24,4 -45,7 -54,0 -15,12 -28,17 -39,20 -17,10 -31,13 -45,16 -12,29 -41,41 -81,41 -27,12 -54,13 -82,-12 -20,-10 -39,-22 -49,-46 -7,-8 -13,-15 -19,-23 -3,-28 4,-53 25,-74 20,-11 23,-40 35,-60 23,-27 60,-38 99,-46 17,-17 37,-29 67,-27 17,-17 37,-32 70,-31 z"
         id="path5" /><path
         fill="#f7a6b6"
         d="m 905.55813,255.40242 c -30.54457,25.82838 -48,42 -73,72 -7,25 -3,50 7,75 -7.82326,9.7227 -21.46081,18.0795 -26.87713,27.47625 -3.07324,5.33175 -17.41927,44.70616 -23.98828,48.24916 -6.00733,3.24006 -11.61249,3.68966 -13.44478,9.80025 -0.22505,0.75054 -11.43717,11.00398 -12.9275,12.00546 -9.45919,6.35645 -13.84,6.04707 -12.23856,8.5322 2.32615,3.60974 3.16585,5.9875 6.58798,7.41601 3.42214,1.42852 30.32142,8.8332 34.30371,8.3266 4.06809,-0.51753 19.74199,1.27118 23.67569,1.02461 3.86003,-0.24194 9.1993,-2.09306 12.35817,-2.92937 4.00987,-1.06161 9.69306,-5.98194 11.91162,-5.8475 16.51772,1.00093 35.6613,1.33924 58.00849,-1.45406 34.3121,-8.8544 19.59419,-4.1938 50.63059,-21.59961 10,-12 18,-28 26,-56 7,-11 6,-29 3,-46 6,-24 -5,-33 -20,-50 -4,-15 -9,-34 -27,-49 1,-10 -4,-26 -24,-37 z"
         id="path6" /><path
         fill="none"
         stroke="#000000"
         stroke-width="4"
         d="m 436,56 c -31,-2 -66,4 -96,21 -15,1 -31,9 -44,15 -29,2 -54,12 -76,29 -19,6 -39,13 -56,28 -32,19 -53,41 -63,68 -21,7 -32,23 -32,45 -15,13 -25,30 -27,52 -8,17 -7,34 -2,51 -1,6 -5,13 0,19 -5,11 -3,22 2,33 3,0 4,13 8,15 2,29 9,48 18,62 10,16 20,30 36,34 16,32 82,30 162,19 7,11 14,19 21,27 11,23 29,37 51,46 18,16 40,27 81,11 39,-2 70,-11 80,-41 10,-1 23,-6 44,-16 15,-3 27,-11 38,-20 11,8 34,4 57,0 36,-2 61,-7 73,-17 17,-5 34,-10 47,-20 30,10 58,14 81,0 67,7 120,-7 134,-79 11,-12 8,-30 3,-48 11,-18 -4,-33 -19,-49 -2,-21 -12,-36 -27,-49 2,-14 -3,-26 -23,-36 -8,-24 -22,-39 -39,-50 0,-25 -21,-41 -52,-53 C 792,124 762,103 727,88 713,77 699,76 685,78 669,58 641,53 603,60 593,53 582,53 572,53 549,51 529,50 512,50 483,44 459,48 436,56 Z"
         class="fil5"
         id="path7" /><path
         fill="none"
         stroke="#000"
         stroke-width="2"
         d="m 149,168 c -11,10 -11,17 -4,21 m 33,-34 c 49,-34 85,-37 110,-20"
         class="fil5 str0"
         id="path8" /><path
         fill="none"
         stroke="#000"
         stroke-width="2"
         d="m 254,184 c 19,-14 27,-41 42,-60 20,-30 58,-5 82,-7 m -249,98 c -12,14 3,26 3,39"
         class="fil5 str0"
         id="path9" /><path
         fill="none"
         stroke="#000"
         stroke-width="2"
         d="m 91,256 c 17,-9 13,-29 29,-43 11,-14 47,-15 60,-34 14,-21 32,-28 53,-24"
         class="fil5 str0"
         id="path10" /><path
         fill="none"
         stroke="#000"
         stroke-width="2"
         d="m 217,174 c 11,-11 19,-22 26,-33 m 42,35 c 11,-8 16,-18 15,-29 m -26,-39 c 8,3 19,1 36,-11"
         class="fil5 str0"
         id="path11" /><path
         fill="none"
         stroke="#000"
         stroke-width="2"
         d="m 297,93 c -4,5 -7,10 -7,14 m 51,-30 c 2,4 5.84515,7 8.84515,7 M 369,65 c -4,5 -7,9 -9,13 m 97,-14 c -8,1 -16,-1 -24,-8"
         class="fil5 str0"
         id="path12" /><path
         fill="none"
         stroke="#000"
         stroke-width="2"
         d="m 471,124 c -10,-2 -18,-6 -14,-29 1,-20 -15,-26 -43,-24 -26,2 -50,4 -61,10 -9,9 -19,18 -31,28"
         class="fil5 str0"
         id="path13" /><path
         fill="none"
         stroke="#000"
         stroke-width="2"
         d="m 357,89 c -7,7 -8.73987,15.78038 -6.73987,23.78038 M 431,82 c -10,17 -24,32 -34,41 -21,22 -33.94356,46.84515 -11.94356,72.84515"
         class="fil5 str0"
         id="path14" /><path
         fill="none"
         stroke="#000"
         stroke-width="2"
         d="M 373.05644,169 C 362.05644,170 353,163 346,153 341,143 327,143 321,124 m 133,5 c -49,2 -48,33 -72,44 m 104,7.081 C 490.26013,161.73987 479,156 454,157 c -12,1 -24,1 -33,-4 m 40,29 c -26,9 -51,12 -77,14 -12,-1 -29,38 -31,51 M 48,324 c 7,-11 14,-17 23,-20"
         class="fil5 str0"
         id="path15" /><path
         fill="none"
         stroke="#000"
         stroke-width="2"
         d="m 71,311 c -4,-17 27,-22 36,-32 6,-5 11,-24 42,-31 17,-6 31,-24 51,-42 8,-9 24.05644,-13 41.05644,-14"
         class="fil5 str0"
         id="path16" /><path
         fill="none"
         stroke="#000"
         stroke-width="2"
         d="m 211,167 c -9,12 -16,27 -6,34 m -36,34.15485 c -2,12 -2,24.84515 -1,35.84515 m 31,-14 c -7,11 -19,24 -14,39"
         class="fil5 str0"
         id="path17" /><path
         fill="none"
         stroke="#000"
         stroke-width="2"
         d="m 175,292 c 18,5 28,23 41,28 M 184.52025,283.30063 C 178.52025,273.30063 169,267 157,276 c -17,10 -33,21 -50,31 -16,14 -20.788713,28.84515 -13.788713,42.84515"
         class="fil5 str0"
         id="path18" /><path
         fill="none"
         stroke="#000"
         stroke-width="2"
         d="M 49,352 C 62,337 76,330 90,331"
         class="fil5 str0"
         id="path19" /><path
         fill="none"
         stroke="#000"
         stroke-width="2"
         d="m 71,335 c -3,-3 -8,-4 -14,-5 m 46,-11 c 24,-13 36,-10 40,3 10,54 23.13862,61.13862 38.13862,75.13862"
         class="fil5 str0"
         id="path20" /><path
         fill="none"
         stroke="#000"
         stroke-width="2"
         d="m 156,299 c -4,4 -10,10 -16,17 m 66,-48 c 18,-16 43,-33 -4,-49"
         class="fil5 str0"
         id="path21" /><path
         fill="none"
         stroke="#000"
         stroke-width="2"
         d="m 229,242 c 29,-1 45,5 46,21 1,11 -6,22 -5,34"
         class="fil5 str0"
         id="path22" /><path
         fill="none"
         stroke="#000"
         stroke-width="2"
         d="m 350,386 c 25,-24 40,-46 23,-84 -6,-19 -13,-37 -20,-55 -31,0 -58,5 -78,15"
         class="fil5 str0"
         id="path23" /><path
         fill="none"
         stroke="#000"
         stroke-width="2"
         d="m 323,276 c -15,14 -47,23 -45,48 1,47 18,57 29,68 4,3 8,15 18,27 M 256,149 c -5,19 -26,39 -7,61 7,-5 26,-5 35,-7 16,-10 59,7 76,-5 m 76,71 c 8,-30 -7,-48 -36,-57 m 53,134 c -14,-2 -44,-23 -40,-44 -3,-25 -18,-34 -19,-44 -2,-5 5,-17 -1,-24"
         class="fil5 str0"
         id="path24" /><path
         fill="none"
         stroke="#000"
         stroke-width="2"
         d="m 308,393 c 8,-13 8,-25 -12,-39 m -53,-79 c 1,14 2.26013,27.78038 8.26013,41.78038"
         class="fil5 str0"
         id="path25" /><path
         fill="none"
         stroke="#000"
         stroke-width="2"
         d="m 278,324 c -16,-5 -29,-12 -34,-2 -5,4 -19,10 -15,28 -1,8 -30,12 -41,17 m 21,2 c -9,7 -6,21 -10,31 2,21 26,25 51,28 M 96,366 c 6,6 17,11 41,14 10,2 9,9 32,16 9,1 20,2 30,4"
         class="fil5 str0"
         id="path26" /><path
         fill="none"
         stroke="#000"
         stroke-width="2"
         d="m 111,336 c -6,6 -19,11 -20,19 -2,8 -8,16 -13,24 -8,15 -13,27 -12,37 1,21 24,32 36,45 M 47,371 c -3,-2 -5,-4 -7,-6 m 30,-3 c -7,7 -14,14 -19,23 -4,11 -3,20 -5,39 m 4.739874,-38.56076 C 50.739874,382.43924 49,382 47,380 m 4,52 c 2,-6 11,-12 6,-19 m 13,82 c 2,-4 1,-9 3,-11 m 31,44 c 6,-10 7,-16 3,-17 m 7,4 -6.0405,-3.52025"
         class="fil5 str0"
         id="path27" /><path
         fill="none"
         stroke="#000"
         stroke-width="2"
         d="m 87,449 c -10,20 1,34 28,43 M 84,394 c 22,12 45,37 65,44 22,8 53.21962,36 72.21962,23"
         class="fil5 str0"
         id="path28" /><path
         fill="none"
         stroke="#000"
         stroke-width="2"
         d="m 250,446 c -15,3 -33,15 -33,23 1,14 47.34113,23.47975 65.34113,19.47975 M 104,471 c 7,6 17,8 36,-1 20,-6 28.26772,1 42.26772,5"
         class="fil5 str0"
         id="path29" /><path
         fill="none"
         stroke="#000"
         stroke-width="2"
         d="m 219,473 c -24,-2 -36,-1 -44,7 -14,9 -28,7 -33,8 -6,2 -23,19 -47,7 m 59,52 c 33,2 68,1 104,-4 m -66,-36 c -8,-2 -12,-6 -12,-13 -1,14 -9,17 -15,23 -7,5 -6,13 -12,20"
         class="fil5 str0"
         id="path30" /><path
         fill="none"
         stroke="#000"
         stroke-width="2"
         d="m 228,488 c -20,0 -39,-1 -53,-8 m 42,8 c 3,17 26,19 38,25"
         class="fil5 str0"
         id="path31" /><path
         fill="none"
         stroke="#000"
         stroke-width="2"
         d="m 209,503 c 2,-4 8,-4 12,-7 m 16,4 c 5,-4 11.78038,-7.0405 15.78038,-12.0405 M 266,501 c -9,-15 19,-20 26,-36 m -28,-59 c 16,13 30.67599,17.39875 44.67599,21.39875"
         class="fil5 str0"
         id="path32" /><path
         fill="none"
         stroke="#000"
         stroke-width="2"
         d="m 249,468 c 29,0 55,-19 60,-41 1,-2 8,-3 12,-4 M 498,63 c 5,-5 12,-10 23,-13 m -5,23 c -26,0 -48,4 -59,23 m 32,-5 c 6,4 9.73987,9.30063 9.73987,14.30063 M 776,364 c 4,-46 -85,-59 -129,17 -6,16 -60,10 -88,18 -25,10 -50,24 -75,39 -10,16 -45,-10 -65,-8 -65,7 -66,104 -2,120"
         class="fil5 str0"
         id="path33" /><path
         fill="none"
         stroke="#000"
         stroke-width="2"
         d="m 536,327 c 1,20 -21,59 12,77 m -73,-35 c 11,-4 14,-21 21,-30 m -43,55 c -5,11 1,15 12,16 m 30,171 c 39,-35 33,-98 -28,-94 -21,2 -36,-3 -46,-13 m 104,-1 c 14,25 28,19 45,19 30,-1 47,-31 26,-63"
         class="fil5 str0"
         id="path34" /><path
         fill="none"
         stroke="#000"
         stroke-width="2"
         d="m 546,492 c -13,4 -23,10 -30,18 m -23,4 c -12,4 -24,17 -38,26 -12,18 -29,25 -38,35 -10,15 -15,46 -72,29 m 149,-13 c -28,16 -73,2 -79,9 M 567,452 c -10,-3 -16,-17 -21,-24 M 392,411 c 22,12 41,9 60,-6"
         class="fil5 str0"
         id="path35" /><path
         fill="none"
         stroke="#000"
         stroke-width="2"
         d="m 418,418 c -8,12 -17,17 -28,16 -12,-2 -29,11 -49,27 -16,13 -22,27 -26,42 -3,18 -6,26 -10,33"
         class="fil5 str0"
         id="path36" /><path
         fill="none"
         stroke="#000"
         stroke-width="2"
         d="m 327,442 c -2,12 2,20 10,23 m -23,122 c -10,-3 -22,-13 -30,-16 m 72,-29 c -38,18 -46,46 -17,79"
         class="fil5 str0"
         id="path37" /><path
         fill="none"
         stroke="#000"
         stroke-width="2"
         d="m 333,503 c -2,13 7,22 16,30 8,4 8,15 10,18 12,17 14,28 15,38 M 611,358 c 14,-16 39,-3 58,-5 m -107,20 c 13.94164,-13.64059 19.42706,-27.126 8.87401,-46.33953"
         class="fil5 str0"
         id="path38" /><path
         fill="none"
         stroke="#000"
         stroke-width="2"
         d="m 586,365 c -4,-3 -8,-6 -11,-10 m 6,199 c -4,-10 -1,-20 9,-29"
         class="fil5 str0"
         id="path39" /><path
         fill="none"
         stroke="#000"
         stroke-width="2"
         d="m 562,548 c 3,-5 11.9595,-5.73987 17.9595,-8.73987 M 639,509 c -3,19 10,28 38,29 m -47,2 c 5,-20 -8,-39 -34,-58 m 35,46 9,-6 m 43,-55 c -15,-3 -27,-9 -27,-25 -3,-14 -21,-28 -13,-56 m -31,94 c 12,12 36,-3 58,-3 54,-2 68,27 42,59"
         class="fil5 str0"
         id="path40" /><path
         fill="none"
         stroke="#000"
         stroke-width="2"
         d="m 724,512 c 26,-1 44,-11 55,-32 m -21,38 -9,-10 m 49,-2 c 16,0 30,3 41,12"
         class="fil5 str0"
         id="path41" /><path
         fill="none"
         stroke="#000"
         stroke-width="2"
         d="m 830,500 c -5,3 -11.0405,5.26013 -16.0405,7.26013 M 856,507 c -3,-17 8,-25 9,-35 M 675,403 c 8,7 18,13 16,21 3,17 24,19 36,21 24,10 46,21 33,41 M 549,310 c -13,-4 -26.0405,-14.081 -38.0405,-28.081"
         class="fil5 str0"
         id="path42" /><path
         fill="none"
         stroke="#000"
         stroke-width="2"
         d="m 588,152 c -9,6 -19,18 -33,27 -14,8 -29,15 -36,40 -2,22 0,37 -5,51 -4,13 -6,25 0,34"
         class="fil5 str0"
         id="path43" /><path
         fill="none"
         stroke="#000"
         stroke-width="2"
         d="m 524,140 c 33,8 44,18.52025 41,31.52025 M 727,434 c 6,-10 6,-19 6,-29 10,-16 64,6 71,-39 m -76,-2 c 5,11 6,25 5,41 M 512,183 c 6,9 9,18 11,26 m 268,269 c 16,-24 16,-58.6903 45,-68.6903 m -83.26013,48.7308 C 754.73987,452.0405 758,446 761,442 m 42,-113 c -7,-4 -10,-11 -7,-23"
         class="fil5 str0"
         id="path44" /><path
         fill="none"
         stroke="#000"
         stroke-width="2"
         d="m 773,346 c 8,-5 15,-15 22,-28 m 20,-49 c 1,25 22.2427,28.69894 18.2427,56.69894 M 762,322 c 1,-27 15,-43 32,-57 10,-11 22,-17 15,-52 4,-21 29,-44 7,-59 -26,-12 -48,-36 -88,-37 M 546,288 c 12,-21 47,-33 50,-41 8,-21 2,-42 3,-62 6,-17 22,-24 40,-29 28,-32 59.18283,-35.21145 90.18283,-11.21145"
         class="fil5 str0"
         id="path45" /><path
         fill="none"
         stroke="#000"
         stroke-width="2"
         d="m 600,220 c -4,-5 -9,-8 -14,-11 m 7.69937,41 c 9,-5 18.30063,-7 27.30063,-6 M 505,116 c 51,5 115,13 119,45 m 5,-38 c -7,-10 -24,-15 -32,-22"
         class="fil5 str0"
         id="path46" /><path
         fill="none"
         stroke="#000"
         stroke-width="2"
         d="m 597,77 c 7,12 11,23 18,35 M 603,60 c 12,17 35.78855,17.211448 36,41.57711"
         class="fil5 str0"
         id="path47" /><path
         fill="none"
         stroke="#000"
         stroke-width="2"
         d="m 634,85 c 2,-3 4,-5 6,-8 m 34,54 C 662,102 636,103 623,96 m 36,4 c 16,6 24,16 24,29 M 635,67 c 20,5 37,13 51,27"
         class="fil5 str0"
         id="path48" /><path
         fill="none"
         stroke="#000"
         stroke-width="2"
         d="m 671,106 c 5,-13 28,-16 57,-17 m -9,66 c 9,-23 60,-13 89,9 m -183,16 c 16,-8 35.63386,-9.78871 54.63386,1.21129"
         class="fil5 str0"
         id="path49" /><path
         fill="none"
         stroke="#000"
         stroke-width="2"
         d="m 695,140 c -15,15 -29,30 -10,47 35,34 56,53 26,83 m 71,-108 c 9,13 9,28 3,42"
         class="fil5 str0"
         id="path50" /><path
         fill="none"
         stroke="#000"
         stroke-width="2"
         d="m 727,201 c 14,9 22,23 24,42 10,47 -3,58 -17,68 m -93,-18 c 30,7 52,8 57,-8"
         class="fil5 str0"
         id="path51" /><path
         fill="none"
         stroke="#000"
         stroke-width="2"
         d="M 673.36614,297.78872 C 680.36614,298.78872 688,302 693,306 m 39,21 c 11,-15 0.63387,-23 -45.36613,-31 M 740,213 c 17,-13 20,-34 30,-51 m 39,52 c 21,-2 37,6 50,23 m -18,-38 c 6,2 16,5 28,8 m 43,83 c -14,5 -23,16 -28,31 -13,10 -20,25 -24,41 m 102,60 c 7,3 11,8 11,16 M 941,328 c -4,5 -9,7 -16,8 -9,8 -15,17 -15,28 7,17 8,30 4,41"
         class="fil5 str0"
         id="path52" /><path
         fill="none"
         stroke="#000"
         stroke-width="2"
         d="m 913,351.0405 c 0,-6 -2,-14.0405 -7,-20.0405 m 31,72 c 6,-9 10,-19 10,-34 1,-12 4,-22 9,-28"
         class="fil5 str0"
         id="path53" /><path
         fill="none"
         stroke="#000"
         stroke-width="2"
         d="m 947,378 c 10,1 13,7 12,15 7,6 10,15 13,23 M 677,197 c -9,18 -25,35 -27,54 -16,35 -71,32 -84,59"
         class="fil5 str0"
         id="path54" /><path
         fill="none"
         stroke="#000"
         stroke-width="2"
         d="m 771,522 c -38,14 -81.0405,30 -114.0405,61 M 663,571 699,544 m 89,-18 c -34,11 -70,25 -104,43 m 127,-42 c -52,17 -110.30063,41 -161.30063,65 M 889,523 c -44,14 -223,77 -242,77 m -2.56075,-4 C 719.43925,565 801,541 877,519 m 14,25 C 845,561 695.86138,599.21962 659.86138,603.21962 738.86138,577.21962 813,557 890,533"
         class="fil5 str2"
         id="path55" /><path
         fill="none"
         stroke="#000"
         stroke-width="2"
         d="m 669,552 c -12,52 -40,56 -72,47 -13,-10 -26,-10 -39,-10"
         class="fil5 str2"
         id="path56" /><path
         fill="none"
         stroke="#000"
         stroke-width="2"
         d="M 644.78038,595.919 C 653.78038,580.919 657,569 659,554 m -24,47 c 9,-12 14,-28 16,-47 m -28,49 c 14,-12 19,-28 18,-49 m -25,48 c 10,-13 17,-28 18,-46 m -27,46 c 10,-13 18,-28 22,-45 m -29,43 23,-42 m -29,40 c 6,-13 11.30063,-30.081 19.30063,-40.081 M 590,594 c 5,-11 7,-24 11,-34 m -16,33 c 1,-12 4,-23 7,-34 m -13,32 4,-35 m -8,34 c -2,-9 -3,-19.82088 -3,-28.82088 M 567,589 c -4,-7 -4,-15.56075 -3,-22.56075 M 561,589 557,571 m 31,22 c -2,11 3,20 12,28 m -22,-30 c -2,14 3.0405,28.52025 15.0405,37.52025 M 564,590 c 3,19 12,34 26,43"
         class="fil5 str2"
         id="path57" /><path
         fill="none"
         stroke="#000"
         stroke-width="2"
         d="m 590,633 c 9,-10 17,-22 26,-30 m 253,-52 c -28,29 -65,53 -111,72 -39,-3 -79.0405,-16.26013 -118.0405,-24.26013"
         class="fil5 str2"
         id="path58" /><path
         fill="none"
         stroke="#000"
         stroke-width="2"
         d="M 675.69937,600.73987 C 707.69937,605.73987 740,611 772,617 m 14,-7 c -29,-5 -58.56075,-10.26013 -86.56075,-14.26013 m 26.52025,-6 C 750.9595,593.73987 773,597 797,604 m -51,-19 c 22,0 43,5 62,13 m -34,-20 c 15,2 31,6 46,13"
         class="fil5 str2"
         id="path59" /><path
         fill="none"
         stroke="#000"
         stroke-width="2"
         d="m 832,583 c -9,-1 -23.38163,0 -33.38163,0 M 843,574 c -20,4 -38,4 -53,0 m 14,-4 c 9,2 28,0 47,-3 14,-4 27.78038,-9.52025 40.78038,-15.52025 m -298.56076,78 c 34,24 80.838,41 139.838,46"
         class="fil5 str2"
         id="path60" /><path
         fill="none"
         stroke="#000"
         stroke-width="2"
         d="m 597,624 c 41,31 95.17912,41.73987 157.17912,45.73987"
         class="fil5 str2"
         id="path61" /><path
         fill="none"
         stroke="#000"
         stroke-width="2"
         d="m 601,621 c 66,39 123.82088,46.47975 175.82088,37.47975"
         class="fil5 str2"
         id="path62" /><path
         fill="none"
         stroke="#000"
         stroke-width="2"
         d="m 604,616 c 65,36 127.60125,44.47975 184.60125,36.47975"
         class="fil5 str2"
         id="path63" /><path
         fill="none"
         stroke="#000"
         stroke-width="2"
         d="m 608,611 c 70,34 130.919,43 190.919,36"
         class="fil5 str2"
         id="path64" /><path
         fill="none"
         stroke="#000"
         stroke-width="2"
         d="m 613,607 c 63,31 129,41 198,34"
         class="fil5 str2"
         id="path65" /><path
         fill="none"
         stroke="#000"
         stroke-width="2"
         d="m 624,603 c 67,32 132.78038,33 197.78038,31"
         class="fil5 str2"
         id="path66" /><path
         fill="none"
         stroke="#000"
         stroke-width="2"
         d="m 758,623 c 7,9 32,9 71,3"
         class="fil5 str2"
         id="path67" /><path
         fill="none"
         stroke="#000"
         stroke-width="2"
         d="m 770,618 c 6,9 35.30063,5.73987 70.30063,0.73987 M 788,610 c 13,4 46,-4 83,-14"
         class="fil5 str2"
         id="path68" /><path
         fill="none"
         stroke="#000"
         stroke-width="2"
         d="m 777,615 c 9,6 43,1 80,-7 m 29.30063,-29.52025 C 845.30063,596.47975 813,607 797,605 m 11,-7 c 22,-1 52.0405,-13.78038 81.0405,-25.78038 M 822,590 c 22,-5 45,-14 68,-24 m 1,-8 c -18,9 -36,16 -55,22 m -202,21 c 45,16 93,25.47975 140,28.47975"
         class="fil5 str2"
         id="path69" /><path
         d="m 884,320 c -2,-30 -49,-77 -77,-68 23,-16 83,23 77,68 z M 264,547 c -4,-28 9,-53 30,-74 23,-18 18,-44 28,-52 14,-27 51,-44 103,-53 16,-19 37,-29 66,-28 20,-17 38,-33 75,-33 2,9 5,18 9,26 -4,-5 -10,-11 -14,-18 -33,-3 -56,16 -69,32 -23,-5 -43,2 -62,24 -53,10 -91,26 -104,53 -7,24 -15,44 -30,52 -17,18 -32,44 -22,82 -3,-3 -6,-8 -10,-11 z M 567,54 c -9,6 -5,21 -11,32 -48,3 -75,21 -66,54 11,13 13,22 6,28 -14,8 -19,29 -24,52 -10,13 -16,34 -16,56 -1,19 -29,30 -25,46 h 4 c 0,-7 4,-14 11,-20 9,-5 13,-17 16,-33 -1,-14 3,-28 14,-43 5,-19 7,-47 27,-56 12,-5 5,-18 -6,-34 -13,-32 22,-40 59,-45 15,-4 11,-28 21,-36 -3,-1 -7,-1 -10,-1 z"
         class="fil6"
         id="path70" /><path
         fill="none"
         stroke="#000"
         stroke-width="2"
         d="m 530,160 c -9,-3 -17,-2 -24,4"
         class="fil5 str0"
         id="path71" /><path
         d="m 903,251 c -7,8 -15,17 -23,25 7,0 16,-5 28,-20 z m -22,26 c -17,14 -34,29 -46,44 -9,12 -10,29 -7,48 2,14 4,28 7,41 4,0 7,0 11,1 16,16 56,13 68,19 7,10 13,17 17,15 7,7 12,15 15,23 -3,-10 3,-10 -18,-34 -9,-9 -30,-14 -63,-19 -23,-8 -28,-22 -30,-40 -4,-17 -6,-33 0,-50 13,-16 29,-32 46,-48 z"
         class="fil6"
         id="path72" /><path
         fill="none"
         stroke="#000"
         stroke-dasharray="5 7"
         stroke-width="2"
         d="m 567,312 263,41"
         class="fil5 str3"
         id="path73" /><path
         d="m 838,407 c 3,23 11,44 28,60 34,1 55,20 85,21 l -7,7 c -14,1 -27,-11 -40,-13 -11,-4 -33,-5 -43,-10 -15,-21 -24,-43 -23,-65 z"
         class="fil6"
         id="path74" /><path
         fill="none"
         stroke="#000"
         stroke-dasharray="5 7"
         stroke-width="2"
         d="m 432,319 23,30"
         class="fil5 str3"
         id="path75" /></g><text
       xml:space="preserve"
       transform="matrix(0.33734101,0,0,0.33734101,28.812333,-13.642223)"
       id="text1"
       style="font-style:normal;font-variant:normal;font-weight:708;font-stretch:normal;font-size:40px;line-height:1;font-family:'Cooper Hewitt';-inkscape-font-specification:'Cooper Hewitt,  weight=708';font-variant-ligatures:normal;font-variant-caps:normal;font-variant-numeric:normal;font-variant-east-asian:normal;text-align:center;text-decoration-color:#000000;writing-mode:lr-tb;direction:ltr;white-space:pre;shape-inside:url(#rect1);display:inline;fill:#3080b0;fill-opacity:1;stroke:#404040;stroke-width:11.3386;stroke-dasharray:none;stroke-dashoffset:0;stroke-opacity:1"><tspan
         x="-428.37802"
         y="143.24219"
         id="tspan7"><tspan
           style="font-weight:713;-inkscape-font-specification:'Cooper Hewitt,  weight=713'"
           id="tspan5">Frontal Lobe</tspan><tspan
           style="stroke:none"
           id="tspan6">
</tspan></tspan><tspan
         x="-312.49805"
         y="183.24219"
         id="tspan9"><tspan
           style="stroke:none"
           id="tspan8">
</tspan></tspan><tspan
         x="-462.31803"
         y="223.24219"
         id="tspan11"><tspan
           style="stroke:none"
           id="tspan10">Though, memory </tspan></tspan><tspan
         x="-439.43805"
         y="263.24219"
         id="tspan13"><tspan
           style="stroke:none"
           id="tspan12">and behaviour</tspan></tspan></text><text
       xml:space="preserve"
       transform="matrix(0.33734101,0,0,0.33734101,16.626002,77.474738)"
       id="text1-5"
       style="font-style:normal;font-variant:normal;font-weight:708;font-stretch:normal;font-size:40px;line-height:1;font-family:'Cooper Hewitt';-inkscape-font-specification:'Cooper Hewitt,  weight=708';font-variant-ligatures:normal;font-variant-caps:normal;font-variant-numeric:normal;font-variant-east-asian:normal;text-align:center;text-decoration-color:#000000;writing-mode:lr-tb;direction:ltr;white-space:pre;shape-inside:url(#rect1-65);display:inline;fill:#505050;fill-opacity:1;stroke:none;stroke-width:11.3386;stroke-dasharray:none;stroke-dashoffset:0;stroke-opacity:1"><tspan
         x="-407.35805"
         y="143.24219"
         id="tspan15"><tspan
           style="font-weight:713;-inkscape-font-specification:'Cooper Hewitt,  weight=713'"
           id="tspan14">Prefrontal </tspan></tspan><tspan
         x="-376.49802"
         y="183.24219"
         id="tspan17"><tspan
           style="font-weight:713;-inkscape-font-specification:'Cooper Hewitt,  weight=713'"
           id="tspan16">Cortex</tspan></tspan></text><path
       style="fill:none;fill-opacity:1;stroke:#404040;stroke-width:3;stroke-dasharray:none;stroke-dashoffset:0;stroke-opacity:1"
       d="M -40.227437,65.688706 23.661222,102.57484"
       id="path76"
       inkscape:path-effect="#path-effect76"
       inkscape:original-d="m -40.227437,65.688706 c 21.0761,12.16829 42.4823781,24.52721 63.888659,36.886134"
       transform="matrix(1.2573962,0,0,1.2573962,28.302634,-27.670652)" /><text
       xml:space="preserve"
       transform="matrix(0.33734101,0,0,0.33734101,46.397932,146.59786)"
       id="text1-2"
       style="font-style:normal;font-variant:normal;font-weight:708;font-stretch:normal;font-size:40px;line-height:1;font-family:'Cooper Hewitt';-inkscape-font-specification:'Cooper Hewitt,  weight=708';font-variant-ligatures:normal;font-variant-caps:normal;font-variant-numeric:normal;font-variant-east-asian:normal;text-align:center;text-decoration-color:#000000;writing-mode:lr-tb;direction:ltr;white-space:pre;shape-inside:url(#rect1-6);display:inline;fill:#30a05e;fill-opacity:1;stroke:none;stroke-width:11.3386;stroke-dasharray:none;stroke-dashoffset:0;stroke-opacity:1"><tspan
         x="-446.45797"
         y="143.24219"
         id="tspan19"><tspan
   style="font-weight:713;-inkscape-font-specification:'Cooper Hewitt,  weight=713'"
   id="tspan18">Temporal Lobe</tspan>
</tspan><tspan
         x="-312.49805"
         y="183.24219"
         id="tspan20">
</tspan><tspan
         x="-464.25803"
         y="223.24219"
         id="tspan21">Hearing, learning </tspan><tspan
         x="-434.91805"
         y="263.24219"
         id="tspan22">and emotions</tspan></text><text
       xml:space="preserve"
       transform="matrix(0.33734101,0,0,0.33734101,362.57063,-19.86381)"
       id="text1-2-8"
       style="font-style:normal;font-variant:normal;font-weight:708;font-stretch:normal;font-size:40px;line-height:1;font-family:'Cooper Hewitt';-inkscape-font-specification:'Cooper Hewitt,  weight=708';font-variant-ligatures:normal;font-variant-caps:normal;font-variant-numeric:normal;font-variant-east-asian:normal;text-align:center;text-decoration-color:#000000;writing-mode:lr-tb;direction:ltr;white-space:pre;shape-inside:url(#rect1-6-8);display:inline;fill:#b9ad6f;fill-opacity:1;stroke:none;stroke-width:11.3386;stroke-dasharray:none;stroke-dashoffset:0;stroke-opacity:1"><tspan
         x="-434.23808"
         y="143.24219"
         id="tspan24"><tspan
   style="font-weight:713;-inkscape-font-specification:'Cooper Hewitt,  weight=713'"
   id="tspan23">Parietal Lobe</tspan>
</tspan><tspan
         x="-312.49805"
         y="183.24219"
         id="tspan25">
</tspan><tspan
         x="-437.73803"
         y="223.24219"
         id="tspan26">Language and </tspan><tspan
         x="-364.99801"
         y="263.24219"
         id="tspan27">touch</tspan></text><text
       xml:space="preserve"
       transform="matrix(0.33734101,0,0,0.33734101,400.84083,108.54634)"
       id="text1-2-8-0"
       style="font-style:normal;font-variant:normal;font-weight:708;font-stretch:normal;font-size:40px;line-height:1;font-family:'Cooper Hewitt';-inkscape-font-specification:'Cooper Hewitt,  weight=708';font-variant-ligatures:normal;font-variant-caps:normal;font-variant-numeric:normal;font-variant-east-asian:normal;text-align:center;text-decoration-color:#000000;writing-mode:lr-tb;direction:ltr;white-space:pre;shape-inside:url(#rect1-6-8-6);display:inline;fill:#c680b0;fill-opacity:1;stroke:none;stroke-width:11.3386;stroke-dasharray:none;stroke-dashoffset:0;stroke-opacity:1"><tspan
         x="-444.41806"
         y="143.24219"
         id="tspan29"><tspan
   style="font-weight:713;-inkscape-font-specification:'Cooper Hewitt,  weight=713'"
   id="tspan28">Occipital Lobe</tspan>
</tspan><tspan
         x="-312.49805"
         y="183.24219"
         id="tspan30">
</tspan><tspan
         x="-367.65807"
         y="223.24219"
         id="tspan31">Visual </tspan><tspan
         x="-411.81804"
         y="263.24219"
         id="tspan32">processing</tspan></text><path
       style="fill:none;fill-opacity:1;stroke:#404040;stroke-width:3;stroke-dasharray:none;stroke-dashoffset:0;stroke-opacity:1"
       d="M -40.227437,65.688706 23.661222,102.57484"
       id="path76-6"
       inkscape:path-effect="#path-effect76-9"
       inkscape:original-d="m -40.227437,65.688706 c 21.0761,12.16829 42.4823781,24.52721 63.888659,36.886134"
       transform="matrix(0.99790828,-0.76499952,0.76499952,0.99790828,-25.615548,111.99879)" /><path
       style="fill:none;fill-opacity:1;stroke:#404040;stroke-width:3;stroke-dasharray:none;stroke-dashoffset:0;stroke-opacity:1"
       d="M -40.227437,65.688706 23.661222,102.57484"
       id="path76-6-9"
       inkscape:path-effect="#path-effect76-9-2"
       inkscape:original-d="m -40.227437,65.688706 c 21.0761,12.16829 42.4823781,24.52721 63.888659,36.886134"
       transform="matrix(0.32543807,-1.2145515,1.2145515,0.32543807,69.392344,40.348435)" /><path
       style="fill:none;fill-opacity:1;stroke:#404040;stroke-width:3;stroke-dasharray:none;stroke-dashoffset:0;stroke-opacity:1"
       d="M -40.227437,65.688706 23.661222,102.57484"
       id="path76-6-9-0"
       inkscape:path-effect="#path-effect76-9-2-3"
       inkscape:original-d="m -40.227437,65.688706 c 21.0761,12.16829 42.4823781,24.52721 63.888659,36.886134"
       transform="matrix(0.9942253,-0.30499265,0.07405395,1.1870332,240.25707,58.08595)" /><path
       style="fill:none;fill-opacity:1;stroke:#404040;stroke-width:3.23814;stroke-dasharray:none;stroke-dashoffset:0;stroke-opacity:1"
       d="M -40.227437,65.688706 23.661222,102.57484"
       id="path76-6-9-0-7"
       inkscape:path-effect="#path-effect76-9-2-3-3"
       inkscape:original-d="m -40.227437,65.688706 c 21.0761,12.16829 42.4823781,24.52721 63.888659,36.886134"
       transform="matrix(0.5880059,-0.63140063,0.3375314,1.0972752,-52.37863,32.197985)" /></g></svg>
