<?xml version="1.0" standalone="no"?>
<!DOCTYPE svg PUBLIC "-//W3C//DTD SVG 20010904//EN"
 "http://www.w3.org/TR/2001/REC-SVG-20010904/DTD/svg10.dtd">
<svg version="1.0" xmlns="http://www.w3.org/2000/svg"
 width="794.000000pt" height="1123.000000pt" viewBox="0 0 794.000000 1123.000000"
 preserveAspectRatio="xMidYMid meet">
<metadata>
Created by potrace 1.16, written by Peter Selinger 2001-2019
</metadata>
<g transform="translate(0.000000,1123.000000) scale(0.100000,-0.100000)"
fill="#000000" stroke="none">
<path d="M1746 11203 c-3 -16 -6 -55 -7 -88 -2 -60 -19 -95 -46 -95 -10 0 -13
-18 -13 -70 0 -60 3 -70 18 -71 90 -2 143 -23 127 -49 -4 -6 7 -10 27 -11 84
-2 121 -22 115 -63 -2 -17 2 -45 9 -63 9 -21 15 -90 18 -205 4 -210 1 -235
-29 -242 -20 -5 -24 -14 -30 -71 -3 -36 -4 -93 0 -128 4 -41 2 -72 -6 -92
l-12 -30 -7 30 c-4 17 -8 23 -9 13 0 -9 -7 -18 -13 -21 -19 -6 -19 -1630 0
-1649 6 -6 12 -28 12 -47 0 -26 3 -32 9 -22 7 11 11 6 15 -20 9 -58 14 -799 6
-799 -5 0 -11 -8 -13 -17 -3 -10 -5 -2 -6 17 l-1 35 -17 -30 c-12 -23 -17 -69
-21 -206 -4 -173 -4 -177 17 -188 11 -7 21 -8 22 -4 3 25 17 -51 18 -99 1 -70
8 -87 37 -99 19 -7 24 -16 24 -46 1 -35 19 -75 34 -74 20 3 24 -1 30 -24 4
-16 16 -27 33 -31 31 -8 64 -34 57 -46 -3 -4 1 -9 8 -9 51 -5 85 -20 98 -45 8
-13 18 -24 24 -25 6 -1 25 -2 42 -4 36 -3 95 -35 88 -47 -3 -4 9 -8 26 -8 54
0 70 -15 70 -65 0 -56 8 -75 31 -75 10 0 19 -4 19 -10 0 -5 9 -19 19 -29 16
-16 29 -19 83 -14 35 2 65 7 68 9 8 8 -16 39 -38 49 -26 12 -38 43 -23 58 13
13 14 56 2 76 -16 26 3 64 37 73 29 8 46 28 23 28 -12 0 -31 56 -31 90 0 35
-14 46 -70 54 -53 8 -94 32 -87 51 3 7 1 17 -5 23 -21 21 0 39 49 45 30 3 52
11 58 22 5 9 20 29 32 43 28 33 29 49 3 57 -34 11 -41 40 -43 183 -2 80 -8
149 -16 166 l-12 30 -24 -28 c-13 -15 -29 -36 -37 -47 -7 -10 -27 -22 -45 -25
-29 -6 -33 -4 -38 22 -13 58 -31 99 -45 99 -15 0 -51 -48 -91 -121 -19 -36
-21 -49 -13 -80 8 -32 18 -42 64 -67 30 -17 58 -35 62 -41 4 -6 8 -82 8 -169
0 -148 1 -161 25 -207 25 -49 31 -81 18 -93 -10 -11 -43 24 -43 45 0 11 -7 18
-19 18 -27 0 -38 17 -57 95 -10 40 -27 78 -39 90 -30 28 -34 45 -24 101 5 28
6 75 1 105 -8 60 -4 58 -101 46 -50 -6 -55 -5 -81 23 -20 22 -26 36 -22 59 2
19 0 31 -7 31 -6 0 -11 -14 -11 -31 0 -41 -23 -61 -72 -65 -65 -6 -67 -1 -66
162 1 120 4 144 15 140 21 -8 83 21 83 38 0 9 5 16 11 16 7 0 10 14 7 35 -2
19 -1 35 4 35 4 0 4 9 0 20 -4 11 -6 38 -4 59 3 33 9 42 40 57 38 20 72 51 72
66 0 5 4 7 9 3 5 -3 12 -1 16 4 3 6 38 9 77 7 70 -2 72 -3 94 -38 12 -19 31
-38 42 -40 13 -4 22 -18 27 -39 4 -19 28 -77 53 -129 39 -80 47 -91 50 -67 2
15 12 32 23 38 11 5 93 14 182 19 89 5 163 9 165 10 1 0 2 4 2 9 0 12 -40 20
-140 27 -83 6 -86 7 -121 45 -34 36 -41 39 -85 37 -37 -1 -50 3 -58 17 -6 10
-21 30 -34 43 -15 15 -20 28 -14 34 13 13 157 11 216 -2 42 -9 53 -8 83 10 58
34 246 18 293 -25 14 -13 41 -30 61 -38 35 -14 57 -51 38 -63 -34 -21 34 -40
186 -51 100 -7 110 -10 110 -28 0 -16 -11 -21 -75 -31 -41 -7 -93 -19 -115
-27 -22 -8 -56 -20 -75 -27 -69 -25 -81 -55 -27 -65 70 -13 124 -11 187 7 36
10 70 18 76 18 20 0 -8 -83 -38 -113 -23 -23 -26 -32 -17 -48 5 -11 20 -25 32
-30 12 -6 30 -21 40 -35 27 -37 8 -64 -46 -64 -89 0 -91 -44 -3 -55 87 -11 96
-44 24 -81 -15 -8 -28 -21 -28 -29 0 -9 -9 -23 -20 -32 -11 -10 -20 -21 -20
-24 0 -4 34 -17 75 -30 41 -12 75 -26 75 -30 0 -5 -19 -12 -41 -15 -23 -4 -53
-17 -67 -29 l-26 -23 34 -21 c19 -11 38 -22 41 -23 4 -2 9 -22 12 -45 3 -28
15 -54 35 -78 31 -34 32 -37 26 -108 -4 -47 -1 -90 7 -118 21 -74 20 -86 -9
-98 -22 -9 -34 -8 -66 8 -47 24 -76 50 -76 67 0 14 -46 38 -93 48 -47 11 -158
9 -170 -3 -8 -8 -3 -11 16 -12 31 -2 34 -2 65 -13 12 -4 27 -16 32 -26 14 -25
3 -68 -18 -73 -13 -3 -10 -7 11 -15 16 -7 36 -12 46 -12 10 0 35 -7 55 -15 35
-15 36 -16 30 -58 -11 -70 -18 -77 -78 -77 -50 0 -54 -2 -66 -30 -13 -31 -20
-35 -88 -45 -31 -5 -40 -10 -33 -18 5 -7 11 -23 13 -36 1 -13 11 -29 20 -35
15 -9 23 -4 48 26 17 20 36 35 43 33 7 -2 24 -6 38 -9 29 -6 46 -45 26 -58 -8
-5 -5 -8 8 -8 18 -1 19 -1 3 -11 -10 -5 -18 -15 -18 -21 0 -7 5 -6 14 1 12 10
13 8 9 -8 -4 -15 -1 -21 11 -21 9 0 16 5 16 11 0 5 4 8 8 5 4 -2 8 4 8 15 0
10 -4 19 -8 19 -4 0 -5 7 -1 16 3 9 0 20 -8 25 -19 11 -22 59 -3 59 8 0 13 3
12 8 -1 4 6 22 15 40 16 30 44 40 90 33 4 0 7 5 7 12 0 8 4 7 10 -3 8 -11 12
-12 18 -3 6 9 13 7 27 -10 20 -22 24 -35 28 -74 2 -12 6 -25 10 -29 4 -4 7
-15 7 -25 0 -10 7 -24 15 -33 9 -9 21 -59 31 -128 11 -80 21 -119 34 -133 24
-27 36 -91 20 -110 -7 -8 -21 -15 -31 -15 -21 0 -60 -19 -71 -35 -4 -6 2 -13
15 -16 12 -3 21 -12 19 -19 -2 -8 3 -10 13 -6 8 3 29 3 45 -1 27 -5 30 -9 30
-44 0 -35 -4 -41 -37 -57 -21 -9 -38 -23 -38 -29 0 -25 -24 -35 -99 -40 l-76
-6 -1 -43 c-1 -24 -2 -49 -3 -54 -1 -6 10 -16 24 -23 20 -10 27 -24 35 -72 6
-33 22 -81 38 -106 17 -30 27 -60 27 -86 0 -61 11 -103 26 -103 8 0 14 -7 14
-15 0 -8 4 -15 9 -15 4 0 11 -41 13 -91 5 -73 9 -94 27 -113 23 -25 41 -102
41 -182 0 -43 4 -56 20 -66 11 -7 20 -20 20 -30 0 -9 5 -20 10 -23 6 -3 10
-28 10 -54 0 -44 3 -50 29 -60 26 -11 29 -18 34 -74 3 -34 10 -63 16 -65 6 -2
11 -13 11 -25 0 -16 3 -18 9 -9 6 9 12 0 20 -32 6 -24 11 -52 11 -62 0 -9 14
-32 30 -51 24 -27 30 -43 30 -79 0 -38 4 -46 25 -56 27 -12 30 -24 40 -151 4
-42 10 -75 14 -73 23 15 61 -101 43 -131 -4 -6 -31 -14 -60 -18 -28 -4 -50
-11 -47 -16 13 -20 -58 -40 -143 -40 -98 0 -122 -5 -122 -23 0 -34 -31 -41
-174 -41 l-141 0 -5 -30 -5 -30 -103 0 c-101 0 -104 -1 -124 -27 -17 -25 -26
-28 -74 -28 -48 0 -54 2 -60 24 -12 51 -2 71 41 77 63 8 115 37 115 64 0 37
37 75 73 75 57 0 77 -11 93 -49 14 -32 17 -34 24 -16 5 11 9 32 9 47 1 34 19
44 101 53 73 8 158 28 189 45 23 12 28 35 10 46 -8 4 -7 9 2 15 34 21 -62 49
-167 49 -42 0 -55 4 -64 19 -22 43 -8 47 148 47 141 0 149 1 197 27 28 15 60
35 73 45 l22 17 -25 37 c-14 21 -27 51 -29 68 -4 33 -22 60 -41 60 -7 0 -23 9
-36 19 -21 17 -26 18 -40 5 -29 -26 -150 -55 -184 -45 -16 5 -50 13 -74 17
-41 6 -47 4 -67 -21 -17 -22 -35 -30 -76 -36 -106 -15 -117 -13 -134 26 -18
44 -28 39 -45 -21 -17 -55 -34 -73 -53 -53 -8 9 -11 30 -8 57 3 33 13 52 48
88 24 24 44 49 44 55 0 24 33 70 60 84 34 18 37 38 15 92 l-15 36 -23 -21
c-13 -12 -29 -22 -36 -22 -13 0 -41 59 -41 88 0 11 -8 46 -19 78 -27 87 -49
483 -27 485 23 3 39 -3 60 -22 19 -19 21 -19 33 -3 18 24 16 109 -2 148 -9 18
-28 47 -43 66 l-28 33 -32 -64 c-38 -77 -51 -133 -52 -219 0 -61 -23 -196 -35
-208 -11 -11 -19 11 -31 79 -6 39 -9 88 -7 110 4 30 2 39 -9 39 -8 0 -20 11
-26 25 -10 21 -9 26 8 35 30 16 42 80 35 184 -3 50 -8 105 -11 123 l-5 32 -82
-6 c-45 -3 -86 -9 -90 -13 -4 -4 -10 -100 -12 -214 -3 -115 -7 -212 -10 -217
-3 -5 -25 -6 -49 -3 -28 4 -53 1 -72 -8 -19 -10 -38 -12 -56 -7 -16 4 -30 3
-33 -2 -3 -4 7 -12 22 -15 31 -8 112 -74 130 -107 6 -12 15 -48 18 -79 6 -49
4 -63 -14 -92 -12 -19 -30 -60 -41 -92 -24 -68 -19 -147 10 -167 26 -18 38
-74 36 -170 -1 -69 1 -82 10 -65 11 20 12 19 30 -17 20 -42 22 -153 4 -201
-16 -41 -29 -20 -51 82 -10 49 -26 94 -34 100 -8 6 -17 31 -20 55 -7 46 -34
137 -46 154 -4 6 -13 42 -19 80 -9 54 -19 77 -41 100 -20 21 -29 41 -29 64 0
34 -61 131 -82 131 -5 0 -23 14 -39 32 -37 38 -50 29 -64 -45 l-10 -52 -67 -3
c-43 -2 -71 -8 -79 -18 -17 -21 -8 -25 63 -30 95 -6 116 -9 124 -16 8 -9 23
-84 34 -181 7 -61 15 -85 35 -108 27 -33 32 -68 14 -97 -9 -15 -7 -26 14 -59
39 -62 54 -125 56 -241 1 -60 3 -66 41 -104 30 -31 42 -53 50 -97 19 -92 31
-134 52 -175 16 -30 19 -52 15 -95 -2 -31 0 -67 5 -81 8 -22 10 -23 19 -8 6
10 8 39 5 65 -7 64 10 329 24 376 23 77 35 41 46 -137 6 -97 10 -119 25 -126
22 -12 28 -40 34 -153 3 -49 7 -92 10 -97 3 -4 14 -6 25 -3 26 7 28 -6 34
-251 3 -166 7 -212 18 -220 33 -25 42 -63 48 -217 4 -115 10 -162 21 -180 51
-80 45 -229 -9 -229 -8 0 -21 -8 -28 -17 -12 -17 -14 -17 -36 5 -22 22 -23 29
-25 195 -1 94 -6 192 -11 217 l-9 45 -12 -43 c-20 -70 -31 -38 -27 77 4 120
-3 182 -21 188 -20 7 -36 -64 -29 -135 9 -89 25 -185 41 -247 8 -27 16 -72 19
-100 3 -27 9 -68 14 -90 6 -29 3 -56 -9 -97 -24 -80 -15 -134 23 -158 58 -35
76 -83 89 -235 10 -109 10 -103 9 -189 -1 -46 4 -66 20 -88 29 -39 32 -64 37
-301 l5 -208 26 3 c20 2 29 11 35 33 5 17 23 57 40 90 l32 60 8 315 c8 326 4
846 -8 890 -4 14 -8 33 -8 43 -1 9 -4 17 -8 17 -4 0 -9 15 -12 33 -9 54 -33
153 -41 165 -4 7 -9 31 -12 54 -2 24 -9 63 -14 88 -42 203 -48 353 -14 426 15
35 105 87 204 119 30 9 70 27 88 38 29 17 44 19 107 14 87 -8 199 -46 233 -81
21 -20 27 -40 33 -96 5 -42 19 -93 35 -127 26 -55 26 -61 22 -207 -4 -138 -6
-156 -31 -210 -39 -84 -57 -174 -51 -248 13 -164 12 -195 -8 -288 -18 -82 -21
-141 -25 -440 -4 -335 2 -478 21 -483 11 -2 18 21 46 147 21 96 34 121 50 96
6 -8 10 -132 10 -280 0 -149 5 -285 11 -310 6 -25 14 -81 19 -125 4 -43 13
-81 19 -83 7 -2 11 -36 11 -90 0 -105 7 -132 30 -132 12 0 21 -10 25 -30 l7
-30 1709 0 1710 0 -6 38 c-9 58 -27 126 -36 138 -13 16 -32 355 -26 463 3 58
9 96 17 101 6 4 43 10 81 13 38 3 73 8 78 11 5 4 12 41 16 84 8 95 13 112 30
112 15 0 22 -24 30 -105 9 -85 14 -107 25 -100 6 3 10 0 10 -7 0 -10 2 -10 9
1 14 21 25 -108 18 -202 -4 -43 -13 -93 -22 -110 -19 -38 -19 -60 0 -98 17
-33 32 -210 21 -253 -4 -16 -13 -26 -25 -26 -11 0 -21 -9 -24 -22 -14 -52 29
-51 88 3 24 22 47 48 50 57 3 10 22 24 41 34 35 16 37 16 82 -8 26 -14 68 -39
95 -55 55 -36 77 -33 77 11 0 35 23 49 51 31 18 -11 19 -7 19 80 l0 91 -42 -6
c-119 -18 -128 -18 -128 -4 0 36 88 70 111 42 13 -16 29 -18 29 -4 0 6 -7 10
-15 10 -8 0 -12 6 -9 14 3 8 1 17 -5 20 -5 4 -13 26 -16 49 -5 31 -13 46 -28
52 -12 6 -22 17 -22 25 0 23 73 15 102 -12 l23 -21 0 896 c0 493 -3 898 -7
898 -5 1 -108 3 -231 5 -135 2 -231 8 -243 15 -32 17 -69 51 -69 64 0 19 -28
70 -50 90 -11 10 -20 25 -20 34 0 9 -7 27 -16 39 -9 13 -14 26 -11 29 3 3 2
16 -4 30 -5 13 -11 36 -14 51 -2 15 -9 51 -15 81 -5 29 -10 85 -10 122 0 77 7
86 88 110 68 20 72 35 12 48 -28 6 -73 11 -99 11 -30 0 -53 5 -61 15 -14 17
-5 51 15 59 20 7 19 35 -1 57 -24 27 -31 107 -10 115 30 11 61 -5 81 -43 23
-42 43 -51 129 -52 66 -1 68 6 6 20 -39 9 -110 67 -110 90 0 5 -14 23 -31 40
l-31 32 4 106 c2 58 8 114 14 125 11 17 12 17 33 -5 18 -19 21 -20 21 -5 0 33
17 6 23 -36 4 -26 1 -52 -8 -69 -14 -26 -10 -103 5 -94 4 2 10 23 14 46 6 36
27 68 46 69 4 0 25 -19 49 -42 37 -35 45 -39 52 -25 15 26 -59 144 -113 181
-23 15 -32 29 -31 44 2 12 -1 22 -6 22 -19 0 -33 80 -30 168 3 78 7 94 27 115
14 15 26 44 31 76 5 29 17 61 29 74 11 12 23 38 27 58 4 20 20 51 36 68 16 18
29 43 29 56 0 24 33 68 98 130 17 17 32 37 32 43 0 7 6 12 14 12 7 0 27 16 43
35 17 19 34 35 39 35 6 0 17 13 27 29 13 22 27 30 61 35 24 4 54 16 67 27 12
11 33 22 46 25 l23 6 0 1424 0 1424 -130 0 c-105 0 -132 -3 -136 -14 -3 -8
-27 -22 -53 -31 -42 -14 -121 -15 -632 -13 -555 3 -585 4 -612 22 -21 14 -25
21 -15 27 7 5 -27 9 -82 9 -107 1 -170 10 -173 25 -2 16 -30 44 -37 40 -4 -3
-15 13 -25 35 -10 22 -26 42 -36 45 -11 4 -19 13 -19 21 0 8 -11 19 -24 25
-30 14 -66 -3 -66 -31 0 -13 -7 -20 -20 -20 -13 0 -20 7 -20 19 0 23 -26 31
-108 31 -73 0 -102 12 -102 41 0 19 -5 20 -67 16 -38 -3 -102 -2 -143 2 -91 9
-120 1 -120 -34 0 -29 -14 -33 -26 -7 -5 9 -10 164 -12 344 l-3 327 -30 6 -29
7 -2 291 c-2 161 -3 329 -3 375 l1 82 -28 0 c-19 0 -29 6 -34 22 -8 26 -28 48
-43 48 -18 0 -21 37 -23 353 l-3 309 -24 19 c-20 17 -26 33 -32 97 -8 84 -3
510 6 535 8 20 37 15 46 -9 4 -10 8 -93 8 -183 1 -157 2 -166 28 -220 26 -54
28 -63 34 -278 6 -226 14 -268 44 -243 24 20 27 84 26 452 l-2 368 401 2 c221
2 404 0 405 -3 7 -10 8 -440 1 -446 -4 -4 -36 -8 -72 -10 -36 -2 -76 -9 -87
-15 -20 -11 -17 -13 32 -20 74 -11 76 -18 5 -18 -213 -2 -342 -8 -364 -17 -28
-12 -25 -14 45 -32 61 -16 151 -13 240 9 44 11 88 20 98 20 11 0 31 7 47 16
55 33 56 28 63 -230 9 -332 13 -326 -197 -327 -78 0 -191 -4 -252 -8 -95 -7
-118 -12 -162 -37 -42 -24 -53 -26 -66 -15 -17 14 -22 86 -8 108 4 6 36 14 72
18 83 9 142 24 135 34 -7 12 -79 23 -147 21 -65 -1 -78 12 -78 77 0 50 -15 75
-25 42 -4 -13 -23 -37 -41 -54 l-33 -30 -3 -150 -3 -150 32 -3 31 -3 -5 -138
c-7 -169 1 -251 25 -251 15 0 15 2 2 10 -13 9 -13 10 0 11 8 1 18 1 23 0 11
-2 9 323 -3 335 -33 33 26 54 148 54 45 0 64 6 96 28 l39 27 181 0 180 0 3
-145 c3 -189 7 -208 61 -236 l42 -22 11 41 c7 23 13 116 14 206 l2 164 34 28
34 28 160 1 c88 0 198 3 245 5 47 3 177 10 290 16 113 6 268 12 345 14 77 1
187 6 245 10 85 6 115 4 160 -9 32 -10 111 -19 188 -23 l132 -6 0 45 0 44 -62
14 c-88 19 -1003 27 -1103 10 -38 -7 -75 -17 -82 -22 -20 -16 -186 -27 -395
-28 l-198 0 0 29 c0 15 10 43 23 62 l23 34 209 6 c126 4 224 11 245 19 71 25
237 33 735 36 281 1 531 2 558 3 43 1 47 3 47 25 0 20 -6 24 -40 30 -22 3
-335 6 -695 6 l-655 -1 -92 -31 c-84 -28 -106 -31 -220 -32 -69 -1 -129 2
-133 6 -15 14 5 53 33 66 26 11 30 19 35 65 4 29 4 75 1 103 -6 50 -6 52 32
80 22 15 40 29 41 29 3 2 -28 62 -53 101 -10 17 -24 29 -31 27 -6 -2 -22 6
-33 17 -20 20 -22 30 -18 119 3 74 9 106 25 137 15 30 23 69 28 135 3 52 8
101 10 109 4 12 24 15 92 16 180 3 173 2 203 34 l29 31 643 -3 c634 -3 644 -3
689 -24 26 -12 61 -25 78 -29 l31 -7 0 61 c0 56 -2 61 -22 62 -13 0 -351 1
-753 1 l-730 1 -60 -25 c-33 -14 -88 -29 -122 -33 -56 -6 -62 -5 -72 14 -13
24 -5 68 17 94 39 44 82 60 210 74 76 8 136 20 150 29 19 12 66 17 222 21 190
5 199 4 246 -18 48 -22 54 -23 482 -25 l432 -2 0 39 c0 37 -2 39 -31 39 -17 0
-70 10 -117 23 -110 28 -344 31 -385 4 -32 -21 -178 -16 -222 7 -26 14 -79 16
-382 16 -341 0 -353 -1 -371 -20 -10 -11 -34 -25 -53 -30 -39 -12 -189 -13
-204 -2 -13 9 -16 287 -4 320 9 23 9 23 -69 20 -72 -3 -77 -5 -80 -26 -4 -30
-36 -25 -40 6 -3 18 -10 22 -37 22 l-33 0 -7 -62 c-7 -66 -40 -129 -77 -149
-21 -11 -58 -3 -58 12 0 18 -45 26 -176 32 -140 7 -159 11 -168 32 -8 21 -84
39 -101 25 -20 -17 -9 -35 36 -55 21 -10 39 -22 39 -27 0 -20 72 -37 189 -42
99 -5 128 -10 147 -25 13 -10 54 -25 90 -32 67 -13 104 -41 104 -78 0 -9 9
-29 20 -46 13 -19 20 -47 20 -78 0 -27 5 -57 10 -67 16 -29 -26 -35 -103 -16
-36 9 -127 19 -208 21 -79 3 -175 8 -214 10 -38 2 -94 5 -124 5 l-53 0 4 218
c4 214 4 218 31 266 15 27 27 50 27 52 0 2 -248 4 -550 4 l-550 0 12 -22 c26
-45 171 -176 200 -180 15 -3 26 -2 23 0 -3 3 2 13 11 23 9 10 14 25 11 34 -6
14 27 55 44 55 11 0 25 -22 37 -57 6 -18 16 -38 22 -45 5 -7 26 -34 45 -60 31
-42 38 -46 72 -45 60 3 70 35 27 86 -19 23 -25 39 -22 68 3 43 27 52 43 16 5
-13 15 -23 22 -23 28 0 43 -32 43 -95 0 -57 -3 -66 -30 -92 l-30 -28 0 -132
c0 -72 3 -139 6 -148 4 -9 17 -20 30 -25 19 -8 23 -18 29 -77 3 -37 7 -77 8
-88 1 -11 7 -20 14 -20 35 0 38 -21 38 -308 0 -155 -4 -294 -8 -308 -5 -22
-14 -28 -44 -31 -38 -5 -82 8 -95 26 -14 20 -220 -54 -278 -100 -8 -6 -39 -24
-68 -39 -29 -15 -54 -31 -57 -35 -7 -11 63 -34 93 -32 31 2 240 92 342 147 14
8 31 11 36 7 7 -4 15 -78 20 -177 13 -281 7 -320 -56 -320 -59 -1 -140 -47
-185 -104 -22 -28 -44 -51 -48 -51 -5 0 -7 -6 -4 -14 3 -7 -3 -20 -14 -29 -10
-9 -19 -25 -19 -35 0 -11 -14 -33 -30 -50 -17 -18 -30 -39 -30 -47 0 -8 -9
-24 -20 -35 -11 -11 -20 -33 -20 -50 0 -16 0 -33 -1 -37 -1 -18 32 -13 39 6
12 34 143 140 187 151 61 16 85 28 85 43 0 8 8 22 19 31 22 20 26 13 30 -54 3
-54 16 -80 39 -80 13 0 21 -13 29 -47 15 -66 6 -73 -98 -78 -68 -3 -86 -8 -99
-24 -27 -34 -106 -40 -525 -38 l-400 2 -50 26 c-46 24 -63 27 -215 32 -91 4
-299 7 -462 7 -327 0 -327 0 -269 57 24 25 30 40 36 99 3 38 7 76 8 84 3 22
101 26 133 5 13 -8 24 -12 25 -8 1 5 2 20 3 36 2 15 11 36 22 48 26 28 5 40
-66 37 -46 -3 -57 -7 -65 -25 -14 -32 -35 -29 -79 12 l-38 35 4 72 c6 89 9
101 29 110 22 9 29 88 29 314 0 115 4 184 10 185 6 1 16 2 22 3 18 2 27 64 27
194 1 67 5 112 11 112 23 0 50 41 50 78 0 20 12 80 26 132 30 107 29 195 -1
285 -34 98 -1 241 65 284 50 32 62 47 101 126 22 44 52 97 67 119 l27 38 31
-36 c29 -34 34 -36 58 -25 25 12 29 10 62 -25 40 -42 32 -41 169 -16 33 6 75
13 94 16 18 2 43 10 55 16 64 36 70 12 61 -262 -6 -216 -7 -226 -30 -260 -25
-36 -34 -87 -35 -202 0 -38 -5 -62 -16 -73 -9 -9 -20 -33 -25 -53 -7 -30 -5
-42 12 -65 l20 -27 -26 -24 c-14 -13 -25 -28 -25 -34 0 -23 -31 -21 -42 3 -6
14 -22 28 -35 31 -16 4 -26 17 -33 43 -10 38 -37 69 -77 90 -13 6 -23 21 -23
31 0 29 -17 24 -25 -7 -3 -15 -18 -37 -31 -50 -14 -13 -21 -23 -16 -23 11 0
32 -45 32 -68 0 -9 14 -23 30 -30 17 -8 30 -20 30 -27 0 -8 10 -20 23 -26 12
-7 37 -27 55 -46 19 -18 37 -33 41 -33 7 0 71 -122 71 -136 0 -4 12 -21 28
-37 23 -24 28 -39 32 -105 l5 -77 41 -20 c22 -11 55 -30 71 -42 17 -13 38 -23
45 -23 35 0 30 -36 -7 -50 -28 -11 -38 -83 -25 -167 6 -32 10 -61 10 -65 0 -4
18 -17 40 -29 22 -13 40 -27 40 -32 0 -6 8 -3 18 6 9 8 30 19 45 22 16 4 34
19 42 35 8 15 28 33 45 38 35 13 39 36 9 68 -19 21 -20 24 -5 52 9 17 16 40
16 51 0 11 8 28 19 38 26 26 41 98 41 204 0 90 1 94 31 125 21 21 32 45 36 74
6 45 37 73 95 85 42 10 32 65 -12 65 -9 0 -24 6 -34 13 -16 12 -16 14 4 40 18
22 21 35 15 65 -13 70 -36 89 -69 56 -19 -18 -13 -83 12 -125 14 -25 14 -29
-6 -54 -12 -15 -22 -34 -22 -41 0 -7 -9 -18 -20 -24 -11 -6 -27 -34 -36 -65
-19 -59 -27 -66 -44 -35 -6 10 -29 24 -51 30 -56 15 -78 65 -79 173 0 78 0 78
31 91 l30 13 4 119 c8 195 4 331 -11 388 -5 19 -3 31 7 37 22 14 56 11 73 -7
15 -14 17 -13 26 11 25 66 8 85 -67 73 -90 -14 -89 -13 -97 -130 -7 -112 -25
-208 -37 -208 -18 0 -29 43 -29 118 0 109 -8 142 -36 153 -32 11 -31 46 0 60
22 11 24 18 31 128 4 75 12 124 22 139 9 15 11 27 5 35 -5 7 -13 36 -17 65
l-7 52 -1038 0 -1038 0 -6 -27z m4344 -122 c2 -208 0 -384 -5 -389 -15 -15
-40 19 -50 69 -14 70 -31 100 -51 92 -14 -5 -15 7 -9 103 3 60 8 123 11 141 5
32 23 46 48 37 8 -3 17 0 22 7 12 19 34 -19 34 -60z m-3222 -87 c2 -38 0 -89
-3 -114 -6 -41 -8 -43 -21 -25 -14 19 -20 167 -8 200 14 35 29 6 32 -61z
m-513 -284 c4 -6 22 -17 41 -25 37 -15 40 -25 22 -95 -10 -41 -13 -63 -17
-112 -1 -13 -10 -18 -30 -18 -16 0 -31 -5 -33 -10 -2 -6 -18 -11 -36 -13 -17
-1 -32 -6 -32 -12 0 -5 -7 -1 -16 10 -12 17 -17 18 -35 7 -11 -7 -25 -10 -31
-6 -5 4 -14 1 -18 -6 -5 -8 -10 -3 -14 14 -4 15 -11 24 -16 21 -6 -3 -10 -1
-10 4 0 6 5 11 10 11 6 0 10 7 10 16 0 8 -4 13 -9 10 -15 -10 -18 15 -9 69 14
84 18 95 31 95 8 0 24 11 37 25 20 22 32 25 86 25 35 0 66 -5 69 -10z m3076
-114 c67 -21 99 -24 334 -31 143 -4 263 -9 268 -12 8 -5 9 -49 1 -89 l-6 -29
-326 -2 c-180 -1 -349 1 -377 5 l-50 7 4 80 c1 44 5 83 8 88 8 14 71 7 144
-17z m-2814 -63 c5 -16 8 -125 8 -243 0 -163 -3 -223 -14 -249 l-14 -33 -16
28 c-12 24 -15 72 -15 264 -1 129 3 241 7 248 14 21 36 13 44 -15z m-469 -359
c1 -1 5 -12 8 -25 16 -77 20 -107 19 -127 -1 -12 2 -22 6 -22 12 0 19 -48 10
-72 -9 -24 0 -65 39 -173 12 -33 23 -84 26 -114 2 -30 7 -58 10 -62 3 -5 0 -9
-6 -9 -6 0 -8 -5 -4 -12 11 -17 13 -48 3 -48 -4 0 -11 -17 -16 -37 -8 -32 -13
-38 -34 -35 -13 1 -33 12 -44 25 -11 12 -29 23 -40 25 -29 5 -139 125 -157
171 -5 15 -10 72 -11 128 -2 91 0 104 21 132 20 28 37 97 45 188 1 11 5 19 10
16 4 -2 10 4 14 14 3 10 15 28 26 40 18 20 36 20 75 -3z m1612 -24 c9 -17 8
-20 -10 -20 -13 0 -20 7 -20 20 0 11 4 20 10 20 5 0 14 -9 20 -20z m40 -24 c0
-3 -4 -8 -10 -11 -5 -3 -10 -1 -10 4 0 6 5 11 10 11 6 0 10 -2 10 -4z m3 -88
c23 -146 29 -173 37 -176 26 -9 47 -88 41 -154 -2 -29 -44 -22 -74 12 -15 17
-31 30 -36 30 -11 0 -41 56 -41 75 0 7 6 18 14 24 9 8 16 39 19 84 10 136 28
183 40 105z m207 -195 c0 -26 -16 -47 -29 -39 -12 8 -15 39 -4 49 13 13 33 7
33 -10z m-140 -261 c0 -13 -12 -22 -22 -16 -10 6 -1 24 13 24 5 0 9 -4 9 -8z
m-1635 -322 c-3 -4 2 -10 10 -14 8 -3 15 -15 15 -26 0 -17 -4 -20 -20 -15 -13
4 -20 2 -20 -7 0 -10 -3 -9 -9 2 -6 8 -7 18 -5 22 3 4 -2 5 -10 2 -22 -9 -20
4 6 31 20 21 45 25 33 5z m250 -110 c10 -20 15 -58 15 -127 0 -82 -4 -102 -20
-123 -17 -21 -21 -23 -30 -10 -11 17 -13 193 -4 253 8 45 18 47 39 7z m2278
-66 c3 -4 2 -16 -4 -26 -13 -24 -35 -9 -26 16 7 17 19 21 30 10z m-2489 -291
c-10 -42 -21 -47 -16 -8 2 19 8 35 13 35 5 0 6 -12 3 -27z m151 -59 c24 -52
17 -361 -9 -412 -10 -18 -22 -30 -27 -27 -12 8 -12 10 -10 -205 1 -222 -7
-309 -31 -324 -13 -8 -21 -6 -35 6 -16 15 -17 28 -11 130 3 62 7 172 8 243 1
128 14 195 38 203 7 2 12 -3 12 -12 0 -9 3 -16 8 -16 4 0 7 84 7 188 1 185 8
262 24 262 5 0 16 -16 26 -36z m-195 16 c0 -5 -2 -10 -4 -10 -3 0 -8 5 -11 10
-3 6 -1 10 4 10 6 0 11 -4 11 -10z m-3 -149 c13 -1 15 -59 2 -67 -5 -2 -6 -11
-2 -19 3 -8 0 -15 -6 -15 -6 0 -11 -4 -11 -10 0 -5 6 -7 13 -4 17 6 20 -77 5
-163 -9 -53 -13 -63 -31 -63 -19 0 -19 -1 3 -20 13 -11 20 -20 17 -20 -3 0 -1
-15 5 -32 5 -18 11 -85 13 -148 2 -63 8 -140 13 -170 15 -85 -20 -115 -85 -73
-23 15 -34 51 -11 37 7 -4 8 -3 4 5 -4 6 -16 9 -27 6 -17 -6 -18 -4 -8 19 11
24 21 30 42 27 4 0 8 7 8 17 3 38 6 58 13 80 5 16 4 22 -6 20 -7 -2 -13 4 -14
12 0 8 -7 29 -14 45 -24 54 -35 362 -12 358 6 -2 12 6 12 18 0 11 -4 18 -8 15
-5 -3 -19 6 -30 19 -12 14 -18 25 -12 25 5 0 7 7 3 16 -4 10 0 20 10 26 10 5
17 16 17 25 0 9 3 13 7 10 3 -4 12 1 19 12 8 10 23 17 36 16 13 -1 28 -3 35
-4z m2984 -750 c9 -29 8 -55 -1 -109 -12 -76 -19 -82 -87 -82 -32 0 -63 21
-63 44 0 7 7 34 16 59 11 34 25 52 45 63 17 8 35 26 41 39 16 36 36 31 49 -14z
m-192 -16 c31 -41 38 -139 12 -197 -11 -26 -28 -51 -39 -57 -11 -6 -25 -25
-32 -43 -7 -18 -23 -44 -35 -58 -13 -14 -25 -34 -29 -45 -3 -11 -19 -28 -36
-37 -25 -14 -30 -23 -30 -56 0 -24 -6 -45 -16 -53 -32 -26 -282 -23 -379 6
-15 5 -25 -2 -38 -24 -10 -17 -31 -45 -46 -62 -16 -17 -34 -43 -41 -57 -7 -15
-19 -41 -27 -59 -9 -18 -37 -45 -64 -62 -54 -33 -58 -42 -30 -70 19 -19 31
-19 203 -15 227 6 264 10 272 31 12 29 -12 37 -148 45 -132 8 -186 18 -186 37
0 5 8 12 18 15 40 12 187 36 226 37 l41 1 -38 8 c-32 6 -77 38 -77 54 0 11 72
25 156 31 110 7 122 0 103 -64 -7 -22 -20 -43 -29 -46 -23 -7 -28 -60 -29
-270 -1 -118 3 -167 13 -187 8 -14 11 -30 7 -35 -4 -4 -13 -27 -20 -50 -7 -25
-18 -43 -26 -43 -8 0 -24 -18 -35 -40 -12 -23 -27 -43 -35 -46 -8 -3 -23 -23
-34 -44 -52 -100 -106 -122 -289 -118 -116 3 -117 3 -130 31 -11 23 -19 27
-57 27 -38 0 -75 -18 -75 -36 0 -15 32 -34 57 -34 18 0 41 -11 60 -29 23 -20
47 -31 83 -36 27 -4 50 -11 50 -15 0 -5 -26 -16 -57 -25 -56 -16 -97 -38 -99
-53 -4 -32 -48 -95 -59 -84 -5 4 -5 2 -1 -5 4 -7 -7 -38 -24 -69 -16 -31 -30
-62 -30 -69 0 -16 -19 -31 -50 -38 -21 -5 -26 -3 -27 15 -1 12 2 27 6 33 10
11 8 51 -2 61 -14 15 -7 100 11 124 14 20 17 48 18 140 0 63 1 211 2 328 l2
213 29 27 c34 32 44 83 25 129 -24 57 -18 89 21 113 32 19 35 26 35 66 0 41 4
48 56 97 31 28 65 70 76 92 53 103 187 259 233 271 29 7 33 29 8 39 -10 3 -46
9 -81 12 -60 6 -64 5 -95 -24 -22 -21 -46 -33 -78 -37 -26 -4 -52 -15 -62 -26
-9 -11 -25 -20 -35 -20 -10 0 -24 -6 -30 -12 -10 -10 -15 -10 -22 2 -15 23
-12 30 15 40 14 5 25 14 25 19 0 13 45 61 57 61 5 0 18 10 29 21 10 12 43 32
72 45 38 17 53 29 52 41 -4 37 1 49 39 91 38 42 39 42 108 42 45 0 76 -5 90
-15 34 -24 236 -12 333 19 101 32 133 32 159 1z m-1499 -167 c22 -17 42 -40
46 -51 11 -34 97 -157 110 -157 13 0 19 23 29 111 3 31 12 65 19 75 13 17 14
16 26 -6 9 -17 11 -57 5 -156 -5 -97 -3 -139 6 -155 6 -13 22 -64 34 -114 21
-87 24 -163 9 -255 l-6 -35 -14 34 c-13 31 -20 88 -23 194 -1 21 -5 36 -10 33
-5 -4 -29 9 -53 27 -46 34 -93 117 -123 215 -9 28 -20 52 -25 52 -5 0 -16 21
-26 48 -9 26 -30 60 -46 75 -38 38 -38 86 0 96 2 1 21 -13 42 -31z m1939 -366
c41 -29 72 -34 288 -37 215 -4 220 -5 289 -61 53 -42 69 -95 61 -199 -6 -69
-4 -75 13 -75 22 0 30 -36 32 -154 2 -75 3 -80 29 -95 16 -9 30 -24 33 -33 2
-11 14 -18 28 -18 13 0 29 -5 36 -12 16 -16 -3 -38 -34 -38 -12 0 -26 -5 -30
-11 -11 -18 -24 11 -24 52 0 39 -24 59 -44 39 -14 -14 -243 -13 -251 1 -13 20
7 24 125 27 115 4 119 4 116 25 -6 54 -7 54 -179 61 -169 7 -214 0 -246 -38
-7 -9 -17 -13 -22 -11 -4 3 -17 -3 -27 -13 -18 -18 -19 -17 -36 5 -9 13 -25
23 -34 23 -10 0 -28 7 -41 17 -20 14 -50 16 -199 14 -174 -2 -212 -8 -212 -37
0 -22 -41 -73 -55 -68 -7 3 -19 -14 -30 -43 -10 -26 -25 -63 -32 -82 l-14 -33
-31 31 c-17 17 -34 31 -39 31 -4 0 -13 9 -19 20 -9 16 -5 24 18 47 16 15 35
46 42 68 7 22 24 55 37 73 54 72 70 148 62 297 -2 42 3 71 15 97 20 42 78 84
130 93 20 4 52 18 70 30 19 13 42 26 53 28 32 10 95 -1 122 -21z m-2920 -240
c1 -13 -3 -20 -9 -17 -5 3 -10 23 -9 43 0 30 2 33 9 17 5 -11 9 -30 9 -43z
m1321 -274 c0 -32 -3 -39 -10 -28 -13 20 -13 70 0 70 6 0 10 -19 10 -42z
m1562 -109 c20 -11 20 -12 3 -22 -25 -14 -263 -11 -281 4 -23 19 -16 28 24 32
60 8 232 -2 254 -14z m321 -51 c62 -14 55 -31 -14 -39 -57 -6 -177 -1 -192 8
-5 3 15 18 44 33 45 22 59 26 84 18 16 -6 52 -15 78 -20z m-3193 -89 c0 -23
-23 -25 -41 -3 -10 13 -10 17 1 24 19 12 40 1 40 -21z m3624 -34 c16 -12 17
-18 7 -46 -14 -41 -14 -45 5 -64 23 -23 36 -98 23 -132 -14 -38 -28 -44 -56
-26 -15 10 -66 18 -145 24 -146 11 -155 13 -164 42 -4 12 -16 41 -27 65 -25
54 -14 66 38 42 49 -24 98 -25 116 -4 7 8 29 24 48 35 20 11 54 33 76 49 46
33 53 35 79 15z m-1029 -11 c27 -5 55 -20 136 -75 26 -17 28 -17 65 2 41 21
104 25 134 9 19 -10 19 -11 -1 -44 -16 -28 -18 -38 -8 -60 7 -14 18 -26 25
-26 22 0 94 112 94 146 0 50 18 66 75 62 l50 -3 7 -65 c6 -51 12 -70 31 -86
13 -11 27 -32 31 -47 3 -15 17 -34 31 -43 26 -17 34 -49 13 -55 -7 -2 -89 -4
-183 -4 l-170 0 0 35 c0 19 -4 38 -8 41 -5 4 -31 0 -58 -8 -44 -13 -153 -14
-213 -2 -13 3 -20 -3 -22 -19 -6 -35 -28 -51 -78 -61 -79 -15 -90 -8 -141 85
-47 87 -57 141 -31 163 10 9 20 9 39 0 27 -12 62 -6 53 10 -4 5 -2 21 4 36 9
25 13 26 53 20 23 -4 56 -9 72 -11z m-385 -98 c-3 -56 0 -64 30 -74 18 -7 32
-20 35 -34 10 -38 1 -131 -12 -135 -13 -5 -43 57 -43 88 0 22 -21 28 -110 31
-50 2 -65 7 -68 19 -2 13 10 18 60 25 l63 9 12 55 c6 30 12 56 12 58 1 2 6 0
12 -3 6 -4 10 -21 9 -39z m1581 -39 c5 -37 4 -78 -3 -102 -9 -37 -11 -38 -24
-20 -8 10 -14 38 -14 62 0 49 19 137 28 128 3 -3 9 -33 13 -68z m1008 -37 c4
0 11 -118 14 -262 6 -261 14 -323 45 -360 11 -13 16 -56 20 -164 3 -87 9 -150
16 -157 42 -45 58 -101 34 -125 -15 -15 -191 -16 -219 -2 -10 6 -19 19 -19 30
0 30 30 98 46 104 12 5 14 76 14 460 0 250 3 462 6 471 4 9 13 14 21 11 8 -3
18 -6 22 -6z m-2463 -228 c-3 -2 -11 -2 -19 1 -9 3 -12 16 -9 37 l5 33 13 -33
c8 -18 12 -35 10 -38z m-246 -37 c7 -67 11 -80 34 -99 22 -17 29 -34 36 -86 5
-36 16 -79 24 -96 9 -16 18 -57 21 -89 10 -97 13 -104 53 -123 35 -16 37 -20
40 -70 3 -51 2 -52 -24 -52 -30 0 -64 -25 -64 -47 0 -10 -25 -13 -116 -13
l-116 0 -11 -30 c-11 -29 -13 -30 -79 -30 -70 0 -72 -1 -116 -54 -10 -13 -34
-16 -117 -16 l-103 0 -41 39 c-23 22 -41 46 -41 55 0 25 30 46 65 46 46 0 52
15 15 36 -16 10 -33 26 -36 36 -3 10 -9 18 -13 18 -12 0 -31 48 -31 79 0 37
13 46 84 61 32 7 67 20 77 29 23 21 39 64 39 103 0 23 10 40 40 67 27 25 40
45 40 63 0 28 61 86 116 110 53 23 144 90 171 125 34 44 44 33 53 -62z m631
-106 c18 -9 279 -19 599 -23 64 -1 104 -5 103 -11 -6 -28 -41 -120 -68 -177
-20 -41 -82 -85 -138 -98 -58 -13 -292 -11 -347 3 -29 8 -48 20 -56 35 -6 13
-17 29 -23 35 -6 6 -11 17 -11 25 0 16 -17 57 -61 148 -38 79 -38 85 2 63z
m-252 -229 c23 -62 21 -94 -4 -104 -12 -4 -12 -11 -1 -44 15 -42 19 -159 6
-167 -5 -3 -12 -30 -15 -60 -7 -49 -4 -60 19 -95 14 -22 26 -44 26 -49 0 -5 4
-11 9 -13 5 -1 12 -21 15 -43 3 -22 3 -33 0 -25 -3 12 -14 15 -40 12 -30 -4
-40 1 -70 32 -19 20 -39 36 -44 36 -6 0 -10 7 -10 15 0 9 -11 27 -25 40 -39
36 -48 79 -27 137 15 45 21 50 60 60 49 12 54 24 12 33 -38 8 -46 38 -26 86
10 24 24 39 41 43 16 4 26 14 27 29 3 39 5 71 7 105 2 48 16 39 40 -28z
m-1147 3 c10 -9 18 -22 18 -29 0 -7 15 -28 34 -46 l34 -33 4 -178 3 -178 -23
-6 c-26 -6 -139 0 -147 9 -3 3 -1 16 4 29 6 15 11 18 12 9 5 -34 15 125 18
263 3 183 6 194 43 160z m2148 -168 c0 -16 -3 -41 -7 -55 -7 -24 -8 -23 -13
10 -7 49 0 106 11 89 5 -8 9 -27 9 -44z m70 -219 c0 -10 18 -17 58 -21 49 -6
63 -13 100 -48 35 -34 42 -48 42 -78 0 -36 -20 -69 -41 -69 -5 0 -15 -11 -21
-25 -6 -14 -17 -25 -24 -25 -7 0 -27 -12 -45 -27 -21 -18 -46 -28 -75 -31 -53
-4 -63 11 -41 60 33 73 39 211 10 254 -15 23 -14 24 11 24 16 0 26 -6 26 -14z
m1378 -162 c8 -2 12 -29 12 -90 l0 -87 -42 9 c-24 5 -74 9 -113 8 -39 0 -73 4
-77 10 -9 13 -10 128 -2 150 5 14 21 15 108 10 55 -3 107 -7 114 -10z m-3578
-24 c13 -7 12 -10 -5 -16 -11 -4 -34 -22 -51 -41 -18 -18 -36 -33 -42 -33 -16
0 -25 38 -17 77 l6 35 47 -7 c26 -4 54 -11 62 -15z m3184 -116 c29 -11 17 -24
-23 -24 -44 0 -71 8 -71 21 0 10 70 12 94 3z m-797 -320 c-3 -3 -12 -4 -19 -1
-8 3 -5 6 6 6 11 1 17 -2 13 -5z m50 0 c-3 -3 -12 -4 -19 -1 -8 3 -5 6 6 6 11
1 17 -2 13 -5z m50 0 c-3 -3 -12 -4 -19 -1 -8 3 -5 6 6 6 11 1 17 -2 13 -5z
m1023 -70 c0 -8 -5 -12 -10 -9 -6 4 -8 11 -5 16 9 14 15 11 15 -7z m-4660
-177 c0 -58 -12 -97 -30 -97 -11 0 -13 105 -3 164 6 38 6 38 19 15 7 -13 13
-50 14 -82z m2729 -278 c72 -23 82 -29 79 -46 -2 -10 -22 -24 -46 -33 -24 -9
-48 -23 -53 -31 -8 -12 -11 -11 -20 4 -6 11 -26 25 -45 33 -40 17 -45 45 -12
68 27 19 49 20 97 5z m176 -44 c0 -36 -31 -47 -52 -19 -11 15 -10 21 4 36 24
27 48 19 48 -17z m136 12 c14 -30 -2 -91 -24 -95 -26 -5 -52 90 -30 111 14 15
44 6 54 -16z m123 7 c33 -33 13 -114 -28 -114 -35 0 -47 49 -26 104 11 30 31
33 54 10z m118 -1 c8 -10 18 -35 21 -56 5 -33 3 -39 -18 -49 -40 -18 -55 -4
-55 50 0 65 22 89 52 55z m-804 -16 c5 -24 -33 -36 -80 -24 -69 17 -41 47 42
43 25 -1 36 -6 38 -19z m110 -64 c-5 -25 -28 -28 -28 -4 0 12 6 21 16 21 9 0
14 -7 12 -17z m-2290 -106 l32 -24 -24 -22 c-14 -13 -30 -36 -37 -52 -23 -57
-56 -22 -58 62 -2 61 33 76 87 36z m2296 4 c3 -5 6 -75 7 -157 1 -82 5 -138 9
-124 6 24 7 24 28 -17 13 -24 22 -61 22 -85 0 -24 5 -70 10 -103 11 -66 5 -77
-35 -77 -35 0 -39 5 -36 60 2 56 -19 95 -41 74 -7 -7 -13 -35 -13 -63 0 -62
-20 -81 -80 -77 -37 3 -40 5 -40 33 0 23 5 31 21 33 19 3 22 12 28 79 3 42 6
111 6 155 0 81 14 133 43 157 11 8 17 28 17 51 0 21 3 45 6 54 7 17 39 22 48
7z m184 -4 c6 -7 14 -31 18 -54 3 -22 10 -46 14 -53 14 -23 37 -2 43 40 7 54
22 70 67 70 54 0 64 -18 65 -114 0 -68 3 -81 17 -84 22 -4 38 -60 38 -137 0
-33 3 -84 7 -113 5 -46 9 -53 27 -50 25 4 34 33 35 116 1 68 14 83 54 65 22
-10 23 -13 14 -119 -10 -126 -18 -139 -82 -129 -107 16 -118 33 -123 194 -4
123 -5 124 -41 177 -42 63 -71 72 -71 22 0 -37 34 -118 48 -118 15 0 15 -249
1 -266 -15 -18 -24 -18 -43 2 -12 11 -16 37 -16 97 -1 88 -21 160 -35 122 -3
-11 -10 -29 -14 -40 -4 -11 -9 -54 -10 -95 -3 -88 -16 -110 -56 -92 -25 12
-33 36 -15 47 6 4 10 101 10 260 0 250 1 260 31 264 4 1 11 -5 17 -12z m-827
-7 c1 -5 2 -15 3 -22 0 -6 17 -16 36 -23 l35 -12 5 -84 c3 -46 4 -200 2 -341
-3 -254 -3 -257 -24 -260 -12 -2 -29 -16 -38 -33 -19 -35 -46 -44 -53 -18 -24
87 -32 113 -38 113 -14 0 -32 -62 -39 -143 -7 -72 -13 -93 -32 -112 -13 -12
-30 -33 -39 -46 -10 -15 -21 -20 -32 -16 -36 14 -11 227 27 227 6 0 20 36 30
81 11 44 26 87 34 96 12 12 16 60 19 271 3 252 7 282 38 282 7 0 20 11 29 25
17 26 35 33 37 15z m295 -32 c36 -35 44 -50 44 -80 0 -49 -8 -68 -32 -68 -12
0 -24 12 -34 36 -12 27 -20 35 -37 32 -20 -3 -22 -9 -25 -79 -3 -92 8 -109 73
-109 30 0 45 -5 49 -16 9 -22 7 -267 -2 -280 -4 -6 -17 -16 -29 -22 -12 -7
-23 -22 -25 -34 -3 -21 -8 -23 -63 -23 l-60 0 -5 70 c-7 98 -3 117 23 113 12
-2 27 -14 34 -27 13 -28 39 -45 53 -36 11 7 14 143 4 169 -7 19 -37 21 -64 4
-16 -10 -23 -10 -37 4 -15 15 -17 40 -17 180 1 204 2 208 60 208 40 0 51 -5
90 -42z m912 5 l20 -27 216 3 216 3 0 -64 c0 -34 -5 -83 -11 -108 -6 -25 -12
-54 -14 -65 -2 -11 -10 -58 -19 -105 -20 -107 -20 -140 0 -168 20 -28 31 -21
44 28 9 33 15 40 35 40 20 0 25 -6 30 -42 3 -24 5 -79 3 -123 -3 -77 -4 -80
-27 -80 -13 0 -29 9 -35 20 -16 30 -27 35 -74 35 -36 0 -44 4 -52 26 -11 28
-12 164 -2 294 10 124 6 146 -29 167 -16 10 -35 32 -41 50 -15 41 -33 42 -53
2 -9 -17 -29 -35 -46 -41 -38 -13 -34 -38 8 -52 52 -18 59 -30 40 -70 -9 -19
-28 -43 -42 -52 -22 -14 -25 -23 -25 -75 0 -54 2 -59 23 -59 13 0 33 13 48 32
l26 32 13 -24 c7 -12 15 -49 17 -81 8 -81 -4 -93 -80 -86 -81 7 -104 25 -111
84 -8 65 -9 205 -2 275 5 56 5 58 -23 72 -15 8 -34 29 -41 46 -10 25 -18 31
-34 27 -86 -20 -86 -20 -92 -2 -4 9 -3 34 2 54 7 29 16 38 44 48 47 16 46 16
68 -14z m-1444 -64 c-1 -20 -11 -57 -23 -81 -11 -24 -21 -52 -21 -61 0 -9 -4
-19 -10 -22 -5 -3 -10 -17 -10 -30 0 -37 -18 -39 -36 -3 -18 34 -32 192 -20
223 4 13 18 15 63 13 l58 -3 -1 -36z m2206 15 c11 -28 13 -130 4 -186 -5 -28
-12 -38 -25 -38 -13 0 -22 15 -35 60 -19 67 -28 79 -42 53 -18 -33 -19 -163
-1 -163 22 0 39 -30 39 -68 0 -53 -8 -72 -31 -72 -26 0 -32 -34 -27 -137 4
-75 7 -88 28 -105 29 -24 44 -109 24 -136 -12 -15 -17 -13 -51 24 -21 22 -44
43 -51 45 -11 4 -13 76 -12 368 0 200 3 368 6 372 3 5 41 9 85 9 76 0 80 -1
89 -26z m194 -50 c8 -21 8 -233 0 -273 -5 -25 -11 -31 -28 -29 -17 2 -23 14
-32 68 -13 77 -21 97 -46 122 -11 11 -18 33 -18 57 0 65 6 71 65 71 39 0 54
-4 59 -16z m-3168 -125 c22 -18 18 -24 -36 -64 l-50 -37 -39 34 c-37 31 -51
65 -33 82 10 12 141 -1 158 -15z m-169 -65 c9 -25 -19 -44 -76 -51 -35 -4 -55
-11 -59 -22 -3 -9 -17 -28 -31 -42 -14 -14 -33 -36 -41 -48 -19 -29 -44 -20
-61 22 -7 18 -19 38 -27 46 -21 22 -1 33 73 39 58 4 68 8 75 28 6 14 21 26 37
30 15 3 33 7 38 9 28 9 66 4 72 -11z m913 -13 c0 -9 5 -22 11 -28 17 -17 18
-325 2 -330 -7 -3 -13 -11 -13 -19 0 -27 -18 -14 -24 17 -8 40 -8 337 0 366 7
26 24 21 24 -6z m2299 -124 c1 -49 4 -60 20 -64 33 -8 51 -123 26 -163 -12
-20 -24 -10 -31 26 -4 22 -14 38 -23 41 -35 9 -43 42 -43 170 1 68 4 129 8
135 12 20 42 -82 43 -145z m-4189 91 c0 -51 -6 -47 -14 10 -3 27 -2 41 4 37 6
-3 10 -25 10 -47z m3558 -540 l-3 -153 -470 0 -470 0 -3 139 c-2 76 -1 144 2
152 4 12 84 14 476 14 l471 0 -3 -152z m620 102 c6 -26 6 -55 0 -84 -8 -41
-11 -44 -28 -34 -15 10 -18 22 -15 64 6 97 25 122 43 54z m-61 -131 c15 -28
17 -98 4 -117 -5 -8 -17 -12 -27 -10 -15 2 -20 14 -22 48 -7 95 16 136 45 79z
m-1197 -215 c22 -56 1 -121 -34 -108 -12 5 -16 20 -16 63 0 32 3 61 7 64 14
15 34 6 43 -19z m194 -16 c13 -51 1 -88 -28 -88 -37 0 -46 19 -35 70 16 70 48
79 63 18z m186 13 c14 -28 12 -77 -4 -90 -8 -7 -36 -11 -63 -9 l-48 3 1 44 c1
51 21 71 71 71 22 0 36 -6 43 -19z m-1962 -86 c4 -40 -15 -115 -28 -115 -17 0
-26 91 -14 138 11 38 38 23 42 -23z m-58 -184 c23 -108 -1 -591 -29 -591 -16
0 -21 -65 -26 -375 -6 -379 -15 -525 -31 -525 -3 0 -13 8 -24 18 -16 14 -17
26 -12 77 10 84 1 140 -27 162 -32 26 -40 81 -40 283 0 146 2 172 13 158 12
-16 14 -16 24 5 22 46 24 67 31 254 6 181 7 193 28 212 26 25 30 47 38 211 5
115 20 185 36 175 3 -3 12 -31 19 -64z m3910 -976 c15 -18 8 -101 -9 -118 -16
-16 -28 5 -37 61 -9 58 18 91 46 57z m-632 -284 c-2 -17 -2 -30 1 -29 3 0 40
0 82 -1 l75 -1 23 -40 c31 -56 23 -74 -31 -66 -24 4 -49 13 -58 20 -8 8 -36
23 -62 34 -27 12 -48 26 -48 33 0 7 -7 20 -16 30 -21 23 -11 49 17 49 18 0 21
-5 17 -29z m506 -1064 c-3 -9 -10 -17 -15 -17 -11 0 -12 34 -2 44 11 11 24 -9
17 -27z m47 2 c15 -7 24 -7 35 2 23 19 16 -2 -8 -22 -29 -26 -45 -24 -50 6 -6
28 -4 29 23 14z m199 -69 c0 -5 -9 -10 -20 -10 -11 0 -20 5 -20 10 0 6 9 10
20 10 11 0 20 -4 20 -10z"/>
<path d="M4586 7635 c-16 -12 -18 -19 -8 -40 14 -31 42 -32 70 -2 28 30 28 43
0 51 -33 8 -41 7 -62 -9z"/>
<path d="M4510 7518 c-19 -10 -31 -18 -26 -18 5 0 3 -6 -3 -14 -7 -8 -13 -34
-14 -58 -1 -23 -8 -49 -16 -57 -11 -13 -11 -16 5 -21 25 -9 53 9 49 32 -2 9 0
20 6 23 5 4 9 17 9 30 0 17 8 26 30 34 20 6 30 17 30 30 0 32 -30 40 -70 19z"/>
<path d="M4165 6823 c-39 -6 -58 -22 -50 -42 13 -33 14 -69 1 -74 -8 -3 -16
-18 -19 -34 -9 -47 -15 -71 -25 -90 -6 -11 -6 -27 -1 -42 9 -23 11 -24 95 -17
47 3 94 11 105 16 23 13 15 36 -14 44 -35 9 -8 25 58 32 55 7 125 36 125 53 0
21 -75 41 -155 41 -80 0 -109 10 -89 30 5 5 45 11 89 14 72 5 144 22 161 38 3
4 -18 14 -47 22 -49 15 -163 19 -234 9z"/>
<path d="M4265 6437 c-24 -8 -44 -21 -50 -35 -5 -12 -18 -25 -28 -28 -14 -4
-16 -9 -6 -20 14 -17 87 -18 144 -3 131 35 175 51 175 64 0 32 -153 46 -235
22z"/>
<path d="M5942 6978 c18 -11 68 -10 68 2 0 5 -18 9 -40 8 -26 -1 -36 -4 -28
-10z"/>
<path d="M5106 6423 c-9 -9 -7 -33 3 -33 12 0 22 28 12 34 -5 3 -11 3 -15 -1z"/>
<path d="M4311 5671 c-36 -10 -36 -27 -1 -40 25 -8 36 -7 56 6 14 9 23 21 21
27 -4 13 -43 17 -76 7z"/>
<path d="M5566 5890 c-89 -9 -114 -25 -118 -79 -4 -52 21 -61 180 -61 l134 0
28 29 c30 29 46 71 37 95 -10 26 -97 31 -261 16z"/>
<path d="M4665 3850 c-8 -14 -14 -109 -20 -342 -5 -220 -2 -233 43 -221 22 5
22 6 22 252 0 232 -8 321 -30 321 -5 0 -11 -4 -15 -10z"/>
<path d="M5828 3161 c-80 -3 -149 -9 -153 -13 -12 -12 -24 -152 -14 -162 12
-13 279 -17 302 -5 21 12 23 49 2 49 -25 0 -54 36 -48 60 7 27 39 19 70 -18
l22 -26 16 37 c21 51 19 74 -7 81 -13 3 -27 5 -33 4 -5 -1 -76 -4 -157 -7z"/>
<path d="M5225 3152 c-5 -5 -7 -172 -2 -172 1 0 41 -3 90 -7 l87 -6 0 56 c0
31 5 68 10 83 17 43 0 52 -95 52 -47 -1 -87 -3 -90 -6z m121 -67 c8 -31 -12
-57 -40 -53 -16 2 -22 11 -24 36 -4 43 13 65 39 52 10 -6 22 -22 25 -35z"/>
<path d="M5464 3083 c8 -82 19 -113 40 -113 17 0 26 44 26 126 l0 64 -36 0
-37 0 7 -77z"/>
<path d="M3950 11062 c0 -124 3 -172 13 -179 6 -6 31 -13 55 -16 39 -5 44 -3
53 21 5 14 11 82 12 151 2 165 -6 185 -81 189 l-52 3 0 -169z"/>
<path d="M4157 11198 c-5 -32 6 -58 24 -58 17 0 42 38 44 64 1 23 -3 26 -31
26 -28 0 -32 -4 -37 -32z"/>
<path d="M5460 11220 c0 -20 42 -30 130 -30 57 0 104 -5 126 -15 32 -13 38
-13 74 6 88 46 79 49 -134 49 -119 0 -196 -4 -196 -10z"/>
<path d="M4585 10218 c-19 -11 -18 -12 10 -20 34 -9 59 7 35 22 -19 12 -21 12
-45 -2z"/>
<path d="M6192 10080 c0 -19 2 -27 5 -17 2 9 2 25 0 35 -3 9 -5 1 -5 -18z"/>
<path d="M7488 10033 c-54 -8 -27 -21 61 -27 88 -7 161 -1 161 14 0 17 -140
25 -222 13z"/>
<path d="M6408 9973 c-21 -2 -38 -8 -38 -13 0 -14 102 -23 200 -18 87 4 111
10 96 25 -8 9 -201 13 -258 6z"/>
<path d="M7845 9971 l-30 -7 40 -12 c60 -18 85 -16 85 8 0 16 -6 20 -32 19
-18 -1 -46 -5 -63 -8z"/>
<path d="M4365 9900 c-4 -6 10 -10 35 -10 25 0 39 4 35 10 -3 6 -19 10 -35 10
-16 0 -32 -4 -35 -10z"/>
<path d="M5344 9773 c-17 -17 -16 -18 31 -21 27 -2 59 -1 73 3 40 10 19 30
-35 33 -38 2 -55 -1 -69 -15z"/>
<path d="M5277 9724 l-28 -15 32 -30 c17 -16 33 -29 34 -29 2 0 9 16 15 36 10
30 10 38 -1 45 -18 11 -19 11 -52 -7z"/>
<path d="M5708 9653 c-16 -2 -28 -9 -28 -14 0 -11 111 -12 190 -2 l55 7 -40 7
c-42 8 -131 9 -177 2z"/>
<path d="M2842 9503 c1 -10 -1 -24 -6 -31 -5 -8 -4 -18 2 -24 12 -12 78 -6 75
7 -2 6 -6 10 -10 10 -18 1 -33 17 -33 36 0 11 -7 19 -16 19 -9 0 -14 -7 -12
-17z"/>
<path d="M5735 9480 c-118 -6 -161 -12 -200 -28 l-50 -21 85 -2 c47 -1 96 -3
110 -4 26 -3 227 -7 268 -6 20 1 23 5 20 34 -3 30 -5 32 -43 33 -22 1 -107 -2
-190 -6z"/>
<path d="M4027 9084 c-20 -20 47 -33 88 -18 13 5 14 8 3 15 -15 10 -82 12 -91
3z"/>
<path d="M643 8971 c-56 -3 -105 -10 -110 -14 -9 -10 35 -46 57 -47 9 0 39 -6
68 -13 55 -15 89 -12 200 18 55 16 78 35 55 48 -16 9 -172 14 -270 8z"/>
<path d="M2960 8951 c0 -16 19 -23 43 -15 21 7 21 7 2 15 -28 11 -45 11 -45 0z"/>
<path d="M364 8884 c-6 -25 -34 -35 -79 -30 -28 4 -65 -22 -65 -46 0 -4 -7 -8
-15 -8 -9 0 -18 -7 -21 -15 -4 -8 -11 -12 -18 -8 -6 3 -8 3 -4 -2 10 -10 -9
-45 -25 -45 -7 0 -22 -16 -35 -35 -12 -19 -29 -35 -37 -35 -8 0 -15 -5 -15
-11 0 -5 -5 -7 -12 -3 -6 4 -8 3 -5 -4 10 -15 -3 -42 -19 -42 -20 0 -21 -1042
-1 -1058 6 -5 26 -13 44 -17 27 -5 33 -12 39 -40 7 -41 -3 -95 -21 -101 -20
-8 -55 27 -55 56 0 14 -5 32 -10 40 -7 10 -10 -9 -10 -62 0 -75 1 -78 23 -78
56 0 137 -121 137 -205 0 -22 9 -40 30 -60 16 -16 30 -39 30 -51 0 -37 19 -76
39 -81 21 -5 30 -46 32 -148 1 -85 2 -83 -30 -90 -39 -8 -49 -22 -53 -70 l-3
-40 40 0 c39 0 40 1 55 47 10 32 19 45 27 40 16 -10 26 -80 15 -116 -5 -19 -3
-55 4 -96 15 -78 16 -116 8 -312 -6 -145 -7 -148 -29 -148 -16 0 -30 11 -44
35 -13 22 -28 35 -41 35 -13 0 -20 7 -20 20 0 25 -29 38 -41 19 -13 -20 -12
-23 16 -53 14 -15 25 -33 25 -40 0 -7 9 -21 21 -32 35 -32 59 -89 53 -124 -5
-25 -2 -34 14 -46 11 -8 26 -30 32 -49 6 -19 15 -35 20 -35 10 0 91 -105 110
-141 7 -13 21 -32 31 -42 17 -16 24 -42 20 -74 -1 -7 3 -13 9 -13 5 0 10 -6
10 -12 0 -22 53 -73 115 -113 33 -21 85 -60 116 -86 30 -27 59 -49 63 -49 7 0
36 62 36 76 0 10 -203 209 -233 229 -36 23 -24 45 25 45 63 0 81 15 73 58 -9
48 -29 70 -72 78 -42 8 -55 -3 -68 -58 -14 -54 -29 -58 -43 -10 -6 21 -25 51
-42 67 -16 16 -30 36 -30 45 0 10 -11 33 -25 53 -13 20 -29 56 -35 79 -6 24
-18 58 -28 75 -16 31 -16 33 6 53 19 18 22 31 22 98 0 104 10 118 52 71 59
-66 207 -170 259 -183 31 -7 114 26 122 49 4 8 32 22 64 31 32 9 70 23 85 30
24 13 28 12 37 -4 6 -11 10 -62 10 -115 0 -109 15 -149 53 -139 18 4 20 2 15
-17 -6 -26 7 -71 22 -71 16 0 22 51 9 78 -7 15 -13 58 -13 97 0 64 2 70 21 71
38 2 43 12 37 65 -7 59 2 69 58 69 88 0 117 28 128 125 l6 50 45 0 45 0 3 45
c2 24 1 59 -3 77 -5 30 -9 33 -40 33 -22 0 -35 -5 -37 -16 -2 -8 -8 1 -14 20
-6 19 -7 33 -2 30 12 -8 10 4 -7 29 -14 22 -13 24 16 41 19 11 29 24 26 34 -2
10 2 28 8 42 7 14 15 42 19 63 4 23 13 37 21 37 8 0 15 -6 15 -14 0 -7 12 -16
28 -19 18 -4 32 -17 42 -39 17 -37 46 -44 64 -16 13 22 -7 46 -44 51 -16 3
-25 10 -25 23 0 11 -8 20 -20 22 -39 8 -43 19 -38 110 3 48 10 92 15 99 6 7 4
13 -4 16 -8 3 -2 9 14 15 27 11 37 34 53 125 3 21 12 37 20 37 16 0 25 48 30
157 2 43 4 81 4 85 1 4 10 10 21 13 17 6 20 12 14 41 -3 19 -15 51 -25 71 -23
46 -27 151 -5 159 20 8 76 -23 76 -41 0 -8 4 -15 10 -15 15 0 23 66 11 88 -16
31 -14 107 4 122 11 9 15 35 15 106 l0 94 -30 0 c-17 0 -39 -5 -50 -12 -10 -7
-23 -9 -27 -4 -4 4 -13 96 -19 205 -9 180 -12 201 -34 236 l-23 38 17 76 c29
124 29 121 3 142 -14 10 -28 30 -31 44 -4 15 -16 27 -32 31 -14 4 -30 17 -35
32 -9 23 -13 24 -66 19 -37 -4 -60 -12 -66 -22 -8 -14 -12 -13 -32 9 -22 24
-31 26 -100 26 -79 0 -115 11 -115 34 0 18 -22 26 -69 26 -30 0 -43 -7 -79
-45 -23 -25 -42 -49 -42 -55 0 -16 32 -27 94 -33 70 -7 91 -22 52 -37 -15 -5
-36 -10 -46 -10 -10 0 -28 -8 -41 -19 l-23 -19 19 -36 c11 -19 32 -45 47 -56
28 -21 36 -44 18 -55 -5 -3 -51 -10 -102 -15 -51 -5 -142 -18 -203 -29 -137
-25 -233 -27 -242 -6 -8 22 -3 25 56 32 48 5 54 9 69 42 l17 36 105 3 c57 2
110 8 117 14 20 16 15 34 -12 46 -32 15 -32 28 3 40 34 12 79 48 71 57 -4 3
-32 9 -62 12 -53 5 -56 4 -92 -32 -35 -34 -41 -36 -80 -31 -56 9 -66 -5 -74
-97 -1 -4 -29 -5 -63 -2 -35 3 -108 2 -163 -2 -118 -10 -135 -8 -135 16 0 13
17 25 51 40 29 11 57 21 64 21 7 0 16 7 19 16 3 8 10 12 16 9 5 -3 7 0 4 8 -4
11 11 18 60 28 36 7 66 17 66 21 0 5 -4 7 -9 3 -5 -3 -12 -1 -16 5 -4 6 6 10
24 10 63 0 114 39 54 41 -41 1 -63 12 -76 39 -11 21 -21 26 -70 30 -53 5 -58
4 -63 -16z m1127 -261 c8 -39 -4 -120 -20 -136 -16 -16 -60 11 -84 51 -25 42
-14 78 32 102 47 25 64 22 72 -17z m-309 -131 c-22 -3 -23 -5 -7 -22 18 -20
17 -21 -40 -50 -43 -22 -43 -46 -1 -71 20 -11 36 -27 36 -35 0 -17 38 -42 70
-45 14 -1 55 1 91 5 82 10 100 1 127 -61 27 -63 39 -201 22 -244 -13 -31 -14
-31 -68 -26 -32 3 -86 21 -131 42 -71 34 -84 37 -198 42 -102 5 -130 3 -168
-11 -54 -21 -65 -39 -65 -105 0 -27 -5 -53 -11 -56 -13 -9 -49 23 -49 43 0 7
-15 29 -34 48 -31 31 -39 34 -94 34 -86 0 -161 -17 -202 -45 -19 -13 -51 -26
-70 -27 -31 -3 -37 1 -49 30 -17 38 -27 40 -35 10 -10 -38 -54 -79 -104 -98
l-47 -18 -3 -67 c-4 -87 -21 -82 -46 14 -16 64 -17 75 -3 104 8 17 18 41 21
53 4 13 21 25 45 33 21 6 41 17 44 25 3 8 26 22 51 31 26 10 46 24 46 32 0 8
9 17 20 20 12 3 20 14 20 27 0 56 75 123 125 110 29 -7 28 -5 15 -39 -5 -14
-21 -30 -35 -35 -14 -5 -25 -16 -25 -23 0 -7 -10 -23 -21 -36 -14 -15 -18 -26
-11 -33 18 -18 56 -4 70 25 7 15 19 27 27 27 33 0 48 87 20 110 -8 7 -15 21
-15 32 0 17 5 20 38 16 39 -5 71 12 136 74 17 16 33 28 37 28 4 0 14 6 21 13
28 28 64 47 86 47 13 0 47 11 75 25 29 13 95 31 151 39 54 9 100 17 103 19 2
2 16 2 31 -2 26 -5 26 -6 4 -9z m-807 -98 c13 -5 9 -13 -21 -40 -20 -19 -42
-34 -49 -34 -18 0 -28 49 -14 66 12 15 55 19 84 8z m1295 -519 c4 -39 0 -55
-15 -55 -18 0 -35 31 -35 64 0 45 46 37 50 -9z m-116 -120 c11 -57 13 -90 6
-113 -5 -18 -12 -97 -16 -175 -3 -78 -10 -146 -14 -151 -5 -5 -6 -15 -3 -24 4
-10 2 -13 -5 -8 -6 4 -19 -1 -30 -12 -17 -17 -19 -17 -36 -1 -12 12 -14 19 -6
24 7 5 -2 16 -24 32 -21 14 -34 29 -30 35 5 7 0 9 -14 6 -12 -3 -36 2 -54 12
-18 9 -46 20 -63 24 -16 4 -46 20 -65 34 -19 15 -43 32 -54 37 -44 23 -8 42
85 44 54 1 79 13 79 38 0 22 -34 32 -130 38 -122 9 -158 22 -176 64 -13 31
-13 32 9 29 14 -2 22 -10 22 -23 0 -16 8 -21 40 -23 64 -5 103 7 138 43 19 19
39 35 44 35 6 0 16 7 23 15 7 8 32 24 55 34 24 11 46 28 50 40 11 35 22 24 35
-39 l13 -60 -37 -40 c-20 -22 -36 -46 -36 -54 0 -20 27 -38 47 -32 25 8 68 97
83 171 14 69 28 101 40 89 4 -5 15 -45 24 -89z m-705 -8 c6 -12 25 -30 41 -39
25 -14 30 -24 30 -53 0 -28 7 -43 30 -63 17 -15 30 -32 30 -38 0 -7 16 -21 36
-33 26 -16 35 -27 32 -44 -3 -21 -8 -22 -123 -27 -94 -5 -131 -11 -169 -28
-74 -33 -92 -30 -87 18 4 43 14 61 41 75 21 11 33 27 41 58 7 23 16 47 20 52
6 9 18 49 33 118 8 33 28 35 45 4z m-485 -132 c30 -23 42 -25 133 -25 96 0
101 1 117 25 9 14 24 25 32 25 14 0 15 -8 9 -47 -4 -27 -8 -49 -9 -50 -1 -2
-54 -8 -117 -15 -97 -11 -114 -16 -117 -32 -6 -29 8 -35 88 -37 117 -3 141
-24 65 -58 -25 -11 -45 -25 -45 -31 0 -12 -53 -2 -58 12 -2 4 -14 8 -26 8 -13
0 -31 9 -41 20 -13 15 -21 17 -31 9 -16 -14 -48 3 -70 36 -13 20 -15 40 -10
98 3 39 6 75 6 80 0 16 43 6 74 -18z m754 -225 c48 -34 58 -51 66 -105 5 -33
3 -42 -14 -53 -35 -21 -86 -5 -111 34 -20 33 -21 71 -3 137 7 23 14 22 62 -13z
m-444 -55 c31 -13 36 -20 36 -48 -1 -36 -14 -58 -48 -76 -33 -18 -65 11 -57
51 19 102 13 96 69 73z m550 -345 c-1 -110 -15 -260 -24 -260 -4 0 -13 -13
-20 -30 -25 -61 -84 -77 -122 -32 -46 54 -78 72 -125 70 -38 -1 -44 -5 -50
-27 -7 -29 -40 -60 -65 -61 -9 0 -25 -11 -35 -24 -37 -49 -103 -3 -103 71 0
16 -9 47 -21 68 -11 22 -22 65 -25 95 -2 30 -6 72 -9 92 -6 42 -4 44 47 52 43
7 58 -8 26 -25 -38 -20 -48 -36 -48 -74 0 -29 5 -37 27 -46 15 -6 31 -16 35
-22 16 -27 261 -13 282 15 7 9 30 21 52 27 47 13 66 32 83 80 17 53 4 60 -126
62 -145 2 -220 15 -200 35 11 11 166 21 297 20 l125 -1 -1 -85z"/>
<path d="M360 8066 c0 -9 5 -16 10 -16 6 0 10 4 10 9 0 6 -4 13 -10 16 -5 3
-10 -1 -10 -9z"/>
<path d="M680 8854 c0 -12 7 -14 33 -9 51 11 56 25 9 25 -32 0 -42 -4 -42 -16z"/>
<path d="M410 8712 c0 -5 7 -9 15 -9 8 0 15 4 15 9 0 4 -7 8 -15 8 -8 0 -15
-4 -15 -8z"/>
<path d="M5806 8701 c-4 -5 -2 -12 3 -15 5 -4 12 -2 15 3 4 5 2 12 -3 15 -5 4
-12 2 -15 -3z"/>
<path d="M5980 8525 c-10 -12 -9 -20 4 -40 9 -14 19 -25 22 -25 13 0 44 22 44
31 0 6 -5 7 -12 3 -7 -5 -9 -2 -5 8 12 32 -31 50 -53 23z"/>
<path d="M5681 8459 c-31 -12 -14 -34 33 -43 42 -8 66 1 66 24 0 29 -50 39
-99 19z"/>
<path d="M7785 8463 c-44 -6 -53 -21 -21 -33 38 -14 89 -13 112 4 18 14 18 15
-9 25 -16 6 -34 10 -40 10 -7 -1 -25 -4 -42 -6z"/>
<path d="M6050 8453 c0 -5 7 -17 15 -27 14 -19 15 -19 15 7 0 17 -5 27 -15 27
-8 0 -15 -3 -15 -7z"/>
<path d="M6090 8396 c0 -19 43 -66 60 -66 5 0 7 -6 4 -13 -8 -22 105 -125 124
-113 16 10 10 55 -10 73 -17 15 -21 15 -29 3 -9 -13 -10 -13 -6 0 2 8 -5 28
-15 43 -17 23 -22 26 -35 15 -14 -11 -15 -10 -9 10 6 18 4 21 -10 15 -13 -5
-16 -3 -12 9 9 23 -12 41 -30 26 -10 -9 -16 -8 -23 3 -7 11 -9 10 -9 -5z"/>
<path d="M5660 8265 c-16 -19 -7 -31 35 -45 19 -6 37 -20 40 -31 4 -11 15 -19
30 -19 25 0 35 -17 35 -60 0 -15 7 -30 15 -33 31 -13 27 24 -15 116 -12 27
-19 51 -16 54 3 4 1 12 -5 20 -16 18 -103 17 -119 -2z"/>
<path d="M7815 8250 c3 -5 33 -10 66 -10 33 0 59 4 59 10 0 6 -29 10 -66 10
-41 0 -63 -4 -59 -10z"/>
<path d="M6295 8190 c-3 -6 1 -13 9 -16 9 -3 16 -16 17 -28 1 -16 3 -15 9 8 5
16 7 33 4 38 -7 11 -32 10 -39 -2z"/>
<path d="M6605 8130 c-7 -11 39 -25 55 -15 5 3 8 11 5 16 -8 12 -52 12 -60 -1z"/>
<path d="M7191 8076 c-14 -17 -7 -36 14 -36 22 0 29 20 13 36 -13 13 -16 13
-27 0z"/>
<path d="M6380 8070 c0 -13 18 -22 24 -11 3 5 -1 11 -9 15 -8 3 -15 1 -15 -4z"/>
<path d="M5867 7999 c4 -13 8 -18 11 -10 2 7 -1 18 -6 23 -8 8 -9 4 -5 -13z"/>
<path d="M6825 7968 c-27 -6 -175 -8 -442 -4 -221 3 -404 2 -407 -3 -7 -11 11
-218 20 -232 11 -18 24 12 24 54 0 21 7 53 14 72 18 43 35 44 131 9 175 -64
216 -76 310 -90 116 -19 282 -21 375 -6 37 7 212 11 405 12 330 0 442 7 483
29 11 6 46 13 78 16 33 3 74 8 92 11 l32 5 0 66 0 65 -392 -2 c-216 -1 -413
-2 -438 -3 -90 -2 -166 0 -205 6 -22 3 -58 1 -80 -5z"/>
<path d="M2820 7384 c-8 -1 -41 -6 -73 -9 -32 -4 -57 -9 -54 -11 17 -17 212
-27 247 -12 l25 10 -35 13 c-33 13 -77 16 -110 9z"/>
<path d="M2854 7179 c-11 -18 13 -26 78 -28 54 -1 88 12 88 33 0 11 -159 6
-166 -5z"/>
<path d="M2864 7081 c-31 -14 -37 -29 -17 -39 21 -12 54 -15 141 -13 54 1 62
3 62 20 0 10 -8 22 -17 26 -31 11 -147 15 -169 6z"/>
<path d="M2990 6808 c-25 -11 -25 -11 15 -24 22 -7 47 -13 56 -13 9 -1 26 -10
38 -20 13 -12 30 -17 43 -13 19 5 19 6 5 11 -16 6 -15 8 3 21 25 18 26 40 3
41 -10 0 -45 2 -78 4 -33 3 -71 0 -85 -7z"/>
<path d="M3260 6610 c-13 -8 -12 -10 5 -10 15 -1 11 -6 -15 -18 -56 -27 -66
-40 -44 -57 11 -8 26 -15 35 -15 9 0 19 -9 22 -20 4 -16 12 -20 35 -18 30 2
30 2 17 35 -8 18 -10 35 -6 38 13 8 -3 70 -19 72 -8 2 -22 -1 -30 -7z"/>
<path d="M2842 6419 c2 -7 17 -14 32 -16 20 -3 27 0 24 9 -3 7 -17 14 -32 16
-19 2 -27 0 -24 -9z"/>
<path d="M2832 6168 c5 -15 37 -18 41 -3 1 6 -9 12 -22 13 -16 3 -22 -1 -19
-10z"/>
<path d="M3050 6124 c-103 -12 -101 -27 7 -43 85 -13 143 -14 143 -3 0 38 -61
56 -150 46z"/>
<path d="M2905 6110 c-18 -7 -19 -8 -2 -15 21 -9 50 1 42 15 -7 12 -13 12 -40
0z"/>
<path d="M1382 6057 c-12 -14 -5 -57 8 -57 14 0 32 29 28 46 -4 23 -22 28 -36
11z"/>
<path d="M1321 5959 c-14 -40 -14 -109 -1 -109 16 0 30 46 30 96 0 51 -13 57
-29 13z"/>
<path d="M3181 5876 c-1 -14 -4 -16 -15 -7 -11 9 -15 7 -19 -9 -3 -11 -1 -17
4 -14 6 3 7 -4 4 -18 -3 -12 -1 -29 3 -36 11 -17 41 -5 40 16 0 9 3 25 7 35 4
10 3 17 -3 17 -6 0 -13 8 -15 18 -4 15 -5 15 -6 -2z m-1 -77 c0 -6 -4 -7 -10
-4 -5 3 -10 11 -10 16 0 6 5 7 10 4 6 -3 10 -11 10 -16z"/>
<path d="M1262 5821 c-9 -15 -11 -36 -7 -58 9 -52 27 -27 23 33 -3 47 -4 48
-16 25z"/>
<path d="M3210 5743 c0 -21 5 -45 10 -53 9 -13 11 -13 20 0 7 11 10 11 10 2 0
-7 5 -10 10 -7 6 4 8 15 5 26 -4 11 -2 19 5 19 6 0 10 6 7 13 -2 6 -10 11 -17
9 -8 -2 -10 3 -7 13 5 11 0 15 -18 15 -22 0 -25 -4 -25 -37z"/>
<path d="M1391 5684 c0 -11 3 -14 6 -6 3 7 2 16 -1 19 -3 4 -6 -2 -5 -13z"/>
<path d="M3284 5634 c-11 -29 -11 -95 0 -113 8 -13 77 -5 87 10 4 8 8 28 7 46
-1 26 -7 34 -31 42 -16 6 -33 8 -37 6 -5 -3 -10 5 -12 17 -3 21 -4 20 -14 -8z"/>
<path d="M1320 5594 c0 -8 5 -12 10 -9 6 3 10 10 10 16 0 5 -4 9 -10 9 -5 0
-10 -7 -10 -16z"/>
<path d="M365 5550 c-9 -15 4 -30 26 -30 22 0 24 11 7 28 -15 15 -25 15 -33 2z"/>
<path d="M1248 5530 c-7 -16 -20 -30 -28 -30 -25 0 -40 -21 -40 -57 0 -24 -7
-37 -26 -50 -15 -9 -33 -32 -41 -50 -7 -19 -25 -39 -38 -45 -14 -6 -25 -17
-25 -24 0 -15 75 -38 96 -30 14 5 70 119 81 166 3 14 14 31 24 38 17 11 39 69
39 100 0 24 -28 12 -42 -18z"/>
<path d="M3097 5543 c-13 -13 -7 -45 20 -99 26 -53 53 -80 67 -67 13 14 6 109
-11 133 -26 38 -58 52 -76 33z"/>
<path d="M3324 5374 c-7 -51 2 -64 46 -64 37 0 100 19 100 31 0 17 -30 42 -73
61 -58 26 -65 24 -73 -28z"/>
<path d="M944 5239 c-32 -41 -44 -141 -21 -173 18 -24 48 -17 63 14 39 81 38
77 13 108 -13 16 -29 37 -34 47 -9 14 -12 15 -21 4z"/>
<path d="M607 5224 c-13 -13 5 -24 38 -24 37 0 54 14 29 24 -21 8 -59 8 -67 0z"/>
<path d="M2516 5037 c-9 -35 -7 -40 9 -27 17 14 20 36 6 44 -5 3 -11 -4 -15
-17z"/>
<path d="M3147 5045 c-18 -13 -18 -15 -2 -39 21 -31 35 -25 35 14 0 35 -10 42
-33 25z"/>
<path d="M2454 4975 c-4 -15 -1 -32 7 -41 12 -14 14 -14 20 3 4 10 8 28 8 41
1 31 -27 28 -35 -3z"/>
<path d="M1175 4862 c-35 -4 -68 -30 -61 -48 3 -9 -13 -17 -49 -25 -30 -7 -52
-16 -49 -21 3 -4 33 -8 68 -8 54 0 65 3 84 25 22 25 53 31 136 26 29 -1 46 12
46 36 0 12 -114 21 -175 15z"/>
<path d="M816 4839 c-2 -8 -9 -29 -15 -48 -6 -19 -11 -35 -11 -36 0 -8 39 -11
58 -4 21 8 21 8 3 49 -22 49 -29 57 -35 39z"/>
<path d="M627 4783 c-7 -11 10 -40 18 -31 4 4 3 14 -3 24 -5 9 -12 12 -15 7z"/>
<path d="M1942 4781 c-20 -13 9 -21 74 -21 41 0 54 4 54 15 0 12 -13 15 -57
15 -32 0 -64 -4 -71 -9z"/>
<path d="M640 4732 c0 -5 11 -19 24 -31 27 -25 63 -23 121 7 l30 16 -40 7
c-55 11 -135 11 -135 1z"/>
<path d="M938 4682 c-10 -2 -18 -8 -18 -13 0 -5 -13 -23 -30 -41 -34 -35 -39
-66 -12 -74 9 -3 30 -12 47 -20 28 -15 30 -14 47 6 26 32 22 133 -5 142 -7 3
-20 3 -29 0z"/>
<path d="M514 4669 c-72 -9 -84 -19 -44 -35 39 -17 67 -18 109 -3 63 22 17 49
-65 38z"/>
<path d="M1305 4650 c-4 -11 -19 -27 -35 -35 -16 -8 -33 -22 -38 -31 -6 -10
-31 -20 -62 -25 -59 -9 -91 -32 -73 -50 6 -6 48 -15 93 -20 101 -11 132 -1
156 53 9 21 32 54 51 73 19 19 31 40 28 45 -3 6 -30 10 -60 10 -45 0 -55 -3
-60 -20z"/>
<path d="M1800 4651 c0 -13 27 -21 45 -15 25 10 17 24 -15 24 -16 0 -30 -4
-30 -9z"/>
<path d="M1968 4473 c-29 -7 -21 -20 20 -34 55 -19 89 -8 76 24 -6 17 -53 21
-96 10z"/>
<path d="M1806 4404 c-8 -21 11 -44 35 -44 10 0 20 -4 23 -9 13 -20 -7 -38
-54 -50 -55 -14 -63 -30 -25 -55 14 -9 25 -22 25 -29 0 -8 15 -32 32 -56 28
-35 37 -41 58 -36 14 4 33 14 43 22 26 24 70 3 62 -30 -3 -12 -2 -42 4 -66 14
-66 9 -71 -73 -71 -91 0 -110 12 -96 60 12 42 12 50 2 50 -4 0 -13 -14 -19
-31 -12 -31 -12 -31 -67 -24 -62 7 -96 0 -96 -20 0 -17 52 -29 93 -21 38 7 49
0 68 -38 8 -16 34 -39 58 -52 25 -13 50 -32 55 -41 6 -10 11 -93 12 -189 0
-94 4 -176 8 -182 15 -25 26 2 26 66 0 58 3 69 22 81 20 12 24 11 51 -19 l29
-33 -7 -102 c-6 -94 -4 -110 24 -218 17 -65 31 -119 31 -121 0 -2 11 -1 25 2
l25 4 0 232 c1 127 4 250 9 272 5 29 4 49 -5 65 -7 13 -13 35 -14 48 0 24 0
24 -89 18 -94 -6 -111 0 -105 36 3 23 33 57 50 57 19 0 23 23 7 42 -13 14 -12
26 7 97 12 45 19 88 16 97 -4 9 -2 22 3 28 12 14 18 83 8 92 -4 4 -36 6 -71 5
-44 -1 -67 2 -73 11 -4 7 -9 41 -9 75 -1 35 -7 70 -14 78 -17 21 -86 20 -94
-1z"/>
<path d="M3070 4405 c-12 -14 -11 -18 1 -26 23 -15 54 -6 54 16 0 26 -37 32
-55 10z"/>
<path d="M720 4339 c-27 -30 -34 -32 -130 -40 -116 -10 -142 -24 -171 -89 -10
-22 -22 -40 -27 -40 -4 0 -16 -6 -25 -13 -15 -10 -16 -17 -6 -45 9 -25 15 -31
28 -26 9 4 41 12 71 17 62 12 87 31 99 73 l8 29 16 -32 c19 -35 46 -48 84 -38
21 5 24 10 19 30 -5 19 0 30 19 47 14 12 25 32 25 45 0 17 8 26 28 33 43 16
57 26 60 45 9 44 -59 47 -98 4z"/>
<path d="M1313 4345 c-13 -10 -15 -17 -7 -25 16 -16 48 -9 52 11 4 23 -22 31
-45 14z"/>
<path d="M2516 4352 c-4 -4 -12 -7 -17 -7 -12 0 -12 -7 -4 -55 7 -41 27 -66
45 -55 5 3 14 -4 19 -17 8 -22 9 -21 15 12 10 52 -35 146 -58 122z"/>
<path d="M37 4298 c-35 -19 -37 -23 -37 -67 0 -35 5 -49 20 -59 14 -8 20 -23
20 -47 0 -19 7 -53 16 -75 9 -22 14 -54 12 -71 -4 -22 -1 -29 9 -25 8 3 11 1
8 -4 -4 -6 1 -17 9 -26 9 -8 16 -22 16 -30 0 -8 5 -14 11 -14 5 0 7 -4 4 -10
-3 -5 -2 -10 3 -10 14 0 21 72 10 87 -5 7 -7 17 -3 23 3 5 -5 14 -18 19 -23 9
-24 13 -21 83 2 41 10 87 18 102 12 24 12 34 0 67 -7 22 -19 48 -26 58 -13 17
-14 17 -51 -1z"/>
<path d="M1100 4280 c-13 -9 -13 -11 0 -20 22 -15 65 -8 65 10 0 18 -43 25
-65 10z"/>
<path d="M247 4260 c8 -29 25 -37 21 -9 -1 12 -8 24 -15 26 -7 3 -9 -3 -6 -17z"/>
<path d="M244 4155 c-7 -18 2 -45 15 -45 13 0 22 27 15 45 -4 8 -10 15 -15 15
-5 0 -12 -7 -15 -15z"/>
<path d="M2212 4152 c-7 -5 -10 -16 -6 -25 9 -25 24 -20 24 8 0 28 0 28 -18
17z"/>
<path d="M880 4080 c0 -13 120 -13 140 0 10 7 -9 10 -62 10 -46 0 -78 -4 -78
-10z"/>
<path d="M2209 4065 c0 -11 0 -34 1 -52 1 -17 -4 -41 -10 -52 -10 -20 2 -31
14 -12 12 18 16 102 7 119 -10 16 -11 15 -12 -3z"/>
<path d="M306 4037 c-16 -12 -18 -24 -13 -114 5 -92 -1 -130 -16 -121 -4 1
-16 -5 -27 -15 -28 -24 -22 -51 13 -55 21 -3 27 -9 27 -26 0 -18 -7 -25 -30
-30 -24 -4 -32 -12 -36 -35 -5 -23 -14 -33 -40 -41 -19 -7 -34 -16 -34 -22 0
-7 -7 -19 -16 -29 -23 -25 -44 -160 -37 -235 6 -61 5 -63 -30 -97 -19 -20 -38
-45 -42 -57 -3 -11 -11 -20 -16 -20 -5 0 -9 -125 -9 -310 0 -245 3 -310 13
-310 7 0 27 13 45 29 26 24 32 37 32 70 0 37 -3 41 -24 41 -32 0 -34 12 -32
221 2 195 1 192 77 274 37 40 39 46 49 141 5 54 16 115 24 134 7 19 19 53 26
75 16 50 47 95 65 95 22 0 55 87 54 139 -1 25 4 71 10 101 14 63 11 202 -4
207 -6 2 -19 -3 -29 -10z"/>
<path d="M495 4030 c-4 -6 -4 -28 0 -50 5 -31 3 -42 -14 -59 -12 -12 -28 -21
-36 -21 -27 0 -16 -20 15 -27 21 -4 32 -13 36 -29 3 -13 9 -24 13 -24 10 0 31
71 25 82 -4 5 -6 33 -5 63 0 53 -19 90 -34 65z"/>
<path d="M7905 3900 c-27 -29 -30 -36 -29 -103 0 -75 -5 -87 -43 -87 -21 0
-35 -29 -15 -31 4 0 17 -2 30 -3 16 -2 22 3 22 16 0 11 7 18 18 18 15 0 21
-15 33 -92 l14 -93 3 103 c1 56 1 147 0 203 l-3 100 -30 -31z"/>
<path d="M1637 3863 c-23 -23 8 -103 40 -103 9 0 36 -10 61 -21 32 -16 46 -19
55 -10 6 6 19 11 29 11 24 0 34 26 17 46 -7 9 -18 26 -24 38 -9 18 -19 21 -72
21 -36 0 -67 5 -75 13 -14 14 -22 15 -31 5z"/>
<path d="M856 3847 c-55 -17 -55 -32 1 -43 120 -25 238 -1 203 40 -15 19 -144
21 -204 3z"/>
<path d="M97 3708 c8 -13 9 -18 12 -38 2 -15 31 -12 31 3 0 7 -9 20 -20 30
-24 20 -34 22 -23 5z"/>
<path d="M2243 3712 c-9 -6 -6 -16 12 -37 21 -25 26 -28 35 -15 25 36 -11 76
-47 52z"/>
<path d="M7687 3706 c-6 -15 11 -36 29 -36 7 0 20 7 29 16 13 14 14 19 3 25
-20 13 -55 10 -61 -5z"/>
<path d="M66 3591 c-4 -7 -5 -15 -2 -18 9 -9 19 4 14 18 -4 11 -6 11 -12 0z"/>
<path d="M2266 3349 c-3 -13 -7 -73 -9 -134 -2 -60 -8 -119 -14 -130 -9 -15
-8 -25 3 -40 8 -10 14 -32 14 -49 l0 -30 21 23 c18 19 20 30 14 69 -3 26 -6
67 -5 92 6 145 4 200 -7 211 -9 9 -13 7 -17 -12z"/>
<path d="M310 3324 c0 -14 4 -23 9 -20 5 3 7 15 4 26 -7 28 -13 25 -13 -6z"/>
<path d="M0 3303 c0 -28 3 -34 10 -23 13 20 13 60 0 60 -5 0 -10 -17 -10 -37z"/>
<path d="M308 3260 c-3 -16 -1 -30 4 -30 4 0 8 14 8 30 0 17 -2 30 -4 30 -2 0
-6 -13 -8 -30z"/>
<path d="M7375 3270 c-8 -13 3 -30 20 -30 23 0 27 18 6 30 -13 7 -22 7 -26 0z"/>
<path d="M300 3195 c0 -8 2 -15 4 -15 2 0 6 7 10 15 3 8 1 15 -4 15 -6 0 -10
-7 -10 -15z"/>
<path d="M311 3140 c-1 -3 -4 -54 -6 -114 -2 -59 -7 -126 -10 -148 -10 -60 -8
-216 5 -278 6 -32 8 -94 4 -150 -7 -103 6 -164 29 -141 15 15 20 614 5 681 -5
25 -13 70 -17 100 -5 30 -9 53 -10 50z"/>
<path d="M1634 3083 c-9 -22 -26 -46 -39 -53 -21 -11 -22 -18 -18 -69 5 -64
-2 -77 -37 -82 -25 -4 -72 -57 -63 -72 3 -5 18 -5 34 -2 25 6 30 3 39 -20 9
-25 5 -230 -6 -282 -4 -19 0 -23 20 -23 30 0 34 12 41 115 3 44 10 122 17 173
9 71 9 95 0 104 -7 7 -12 26 -11 43 0 21 2 25 7 13 10 -26 28 -8 37 37 8 46 9
144 1 153 -4 3 -13 -13 -22 -35z"/>
<path d="M179 3100 c-1 -5 -3 -14 -4 -20 -1 -5 -3 -29 -4 -52 -1 -39 -2 -41
-16 -22 -13 16 -16 17 -25 4 -17 -25 -12 -80 8 -87 9 -4 23 -15 30 -25 12 -16
15 -17 29 -3 12 12 14 26 8 58 -8 48 -7 56 1 115 5 34 3 42 -10 42 -9 0 -17
-4 -17 -10z"/>
<path d="M7738 3083 c-21 -5 -23 -19 -6 -29 14 -9 97 -8 106 1 4 4 -2 13 -12
21 -19 14 -53 16 -88 7z"/>
<path d="M886 3053 c-8 -26 -9 -186 -2 -263 3 -36 5 -68 6 -72 0 -5 4 -8 10
-8 5 0 12 27 16 60 4 40 11 60 20 60 7 0 19 10 25 22 10 19 8 25 -15 43 -23
19 -29 33 -37 95 -10 79 -14 92 -23 63z"/>
<path d="M1766 3032 c-4 -13 -5 -26 -2 -29 10 -11 18 4 14 29 l-4 23 -8 -23z"/>
<path d="M2206 2988 c-16 -37 -21 -132 -10 -175 4 -14 14 -23 25 -23 11 0 21
9 24 23 7 28 -1 130 -13 177 l-9 35 -17 -37z"/>
<path d="M2640 2918 c-1 -169 1 -196 12 -248 l12 -55 7 75 c4 50 13 87 28 110
24 39 27 62 9 55 -25 -9 -36 11 -40 69 -2 35 -9 61 -16 64 -9 3 -12 -17 -12
-70z"/>
<path d="M1767 2973 c-4 -3 -7 -43 -7 -88 0 -45 -3 -116 -6 -158 -6 -65 -10
-77 -30 -87 -12 -7 -23 -20 -23 -29 -1 -9 -2 -117 -3 -241 -3 -194 -5 -230
-20 -252 -10 -14 -19 -37 -22 -51 -7 -38 -48 -127 -58 -127 -6 0 -7 -10 -3
-22 22 -71 23 -104 5 -172 -10 -39 -16 -77 -13 -86 3 -10 -1 -8 -11 4 -9 11
-16 24 -16 29 0 17 -55 2 -58 -16 -3 -12 5 -19 27 -23 36 -7 56 -45 64 -122 6
-48 4 -54 -16 -61 -39 -15 -51 -36 -38 -72 6 -18 11 -46 11 -64 0 -17 6 -40
14 -50 22 -30 43 -12 50 44 4 27 13 65 21 83 l14 33 16 -39 c13 -31 16 -71 14
-217 -2 -134 1 -182 11 -194 11 -13 10 -19 -9 -37 -18 -16 -27 -18 -44 -10
-12 6 -30 13 -40 16 -17 5 -17 7 -1 31 15 23 15 27 -2 53 -11 15 -21 52 -24
87 l-5 60 -42 3 c-40 3 -83 -10 -83 -26 0 -4 10 -12 23 -17 21 -10 22 -16 28
-185 5 -126 10 -175 19 -178 31 -11 52 -44 47 -75 -18 -105 -39 -183 -52 -193
-18 -13 -19 -44 -4 -78 9 -19 9 -32 0 -53 -15 -36 -21 -369 -7 -383 6 -6 63
-10 128 -10 l118 0 0 83 c0 119 29 142 75 60 23 -42 25 -52 16 -79 -20 -56
-16 -64 34 -64 l45 0 2 78 c1 42 3 86 4 97 1 11 2 32 3 48 1 22 6 27 25 27 19
0 26 7 31 29 8 37 -9 71 -35 71 -11 0 -25 9 -32 20 -12 19 -13 19 -23 -1 -7
-13 -9 -42 -4 -82 9 -73 -1 -97 -39 -97 -24 0 -30 7 -45 51 -16 44 -17 53 -4
72 10 15 13 39 10 72 -6 67 8 103 44 107 30 3 32 13 18 81 -12 61 20 83 79 52
15 -8 32 -13 37 -10 4 3 13 -4 19 -16 8 -15 8 -19 1 -15 -7 4 -9 1 -5 -8 6
-16 -60 -89 -84 -92 -21 -4 -24 -9 -16 -38 l6 -27 13 23 c6 13 18 21 26 19 16
-4 22 -4 67 5 23 5 32 12 32 26 0 15 -5 18 -19 13 -11 -3 -22 -2 -25 4 -6 9
89 21 111 13 32 -10 28 -145 -6 -246 -12 -32 -24 -99 -27 -150 -6 -82 -6 -90
9 -78 9 7 19 28 23 45 8 38 33 79 44 72 12 -8 20 42 26 170 6 145 -3 208 -31
210 -84 8 -100 8 -98 -1 3 -16 -25 -13 -31 3 -3 8 1 16 10 20 20 8 10 52 -17
71 -15 10 -17 17 -9 33 6 11 15 17 19 14 22 -13 30 28 30 141 -1 65 1 128 4
139 3 11 6 23 6 27 1 4 7 5 15 2 30 -11 39 35 33 164 -3 68 -1 139 5 159 5 19
6 58 3 85 l-7 50 -37 -7 c-20 -3 -51 -8 -69 -9 -32 -2 -32 -1 -26 34 8 42 21
60 43 60 10 0 26 6 36 14 19 13 17 15 -18 21 -49 9 -59 31 -56 116 3 44 -1 73
-9 81 -7 7 -45 12 -95 14 -123 2 -133 -11 -142 -205 -2 -47 -7 -68 -19 -77
-14 -10 -15 -17 -7 -33 6 -11 11 -24 11 -30 0 -12 -30 -15 -31 -3 -3 42 -9 85
-12 89 -2 2 0 24 4 49 5 25 5 62 1 82 -10 47 3 264 18 291 6 12 16 21 23 21 7
0 19 22 26 49 12 47 11 52 -10 80 -20 28 -22 35 -11 65 10 26 10 40 -1 67 -14
36 -15 55 -3 239 9 148 13 168 34 166 21 -1 32 59 25 139 -3 33 -6 95 -6 138
1 42 0 77 -1 77 -2 0 -6 -3 -9 -7z m167 -1272 c3 -4 7 -65 10 -135 2 -70 6
-130 10 -133 3 -3 23 -9 43 -12 34 -5 41 -12 62 -56 13 -27 24 -61 23 -75 0
-14 -1 -45 -1 -70 -1 -74 -22 -181 -37 -187 -8 -3 -14 -11 -14 -18 0 -7 -10
-19 -22 -28 -19 -12 -21 -18 -10 -28 15 -16 15 -157 -1 -219 -11 -43 -14 -45
-50 -48 -55 -5 -87 19 -87 64 0 49 21 128 30 114 4 -7 10 4 15 27 3 21 14 46
22 56 13 14 14 22 5 43 -25 53 -11 151 24 164 12 5 24 19 26 32 2 16 13 26 38
34 l35 11 -53 8 c-65 9 -82 30 -82 102 0 28 -4 54 -9 58 -13 7 -35 -33 -37
-67 -4 -59 -13 -78 -39 -78 -14 0 -25 3 -26 8 -1 4 -2 47 -3 97 -2 77 1 96 20
135 13 25 26 63 30 86 5 36 3 42 -20 57 -27 18 -35 52 -13 60 21 9 106 7 111
-2z m-73 -507 c15 -9 11 -90 -6 -104 -8 -6 -36 -12 -62 -13 l-48 -2 -3 59 c-2
40 1 62 10 68 13 9 91 3 109 -8z m-56 -194 c28 -31 13 -52 -37 -48 -36 2 -44
7 -46 26 -2 16 3 25 20 31 34 14 43 13 63 -9z m55 -85 c0 -8 -7 -15 -15 -15
-9 0 -12 6 -9 15 4 8 10 15 15 15 5 0 9 -7 9 -15z m-255 -54 c0 -28 -25 -47
-49 -38 -21 8 -21 31 0 52 23 22 49 15 49 -14z m195 14 c5 -3 10 -30 10 -59 0
-94 -33 -147 -60 -96 -6 11 -17 20 -25 20 -26 0 -55 50 -55 95 0 23 3 45 8 49
8 9 105 1 122 -9z m-70 -250 c8 -10 11 -39 8 -86 -3 -56 -8 -74 -24 -87 -14
-12 -21 -31 -23 -62 -4 -70 -47 -105 -72 -58 -12 22 -7 108 8 131 4 6 6 42 4
79 -3 64 -2 67 26 82 36 19 57 20 73 1z m150 -535 c0 -5 -4 -10 -10 -10 -5 0
-10 5 -10 10 0 6 5 10 10 10 6 0 10 -4 10 -10z"/>
<path d="M7549 2955 c-3 -2 -19 -5 -37 -7 -52 -4 -22 -17 66 -29 65 -9 90 -8
114 2 28 12 29 13 12 26 -17 12 -144 19 -155 8z"/>
<path d="M7778 2903 c-22 -3 -28 -10 -28 -29 0 -13 9 -29 20 -36 11 -7 20 -20
20 -30 0 -19 -39 -50 -52 -42 -14 9 -78 -65 -85 -97 -3 -16 -9 -29 -14 -29 -5
0 -9 -7 -9 -17 0 -22 -48 -123 -59 -123 -5 0 -9 -16 -9 -35 0 -32 3 -36 38
-45 39 -11 127 -4 147 12 13 10 143 13 173 3 20 -6 20 -2 20 204 l0 211 -24 6
c-13 3 -33 17 -45 30 -20 23 -34 26 -93 17z"/>
<path d="M192 2678 c-5 -7 -13 -35 -17 -63 -11 -85 -15 -95 -41 -105 -28 -11
-24 -30 6 -30 10 0 22 -4 25 -10 3 -5 14 -10 24 -10 22 0 31 41 31 153 0 75
-7 90 -28 65z"/>
<path d="M875 2644 c-3 -20 -5 -149 -3 -287 3 -283 6 -297 63 -271 17 7 24 13
17 14 -8 0 -10 5 -5 13 23 36 26 182 5 218 -11 20 -13 38 -7 75 15 93 9 151
-19 185 -15 18 -26 43 -26 60 0 41 -16 36 -25 -7z"/>
<path d="M2324 2668 c-4 -6 -7 -73 -8 -148 0 -101 3 -142 13 -154 7 -9 17 -14
21 -11 7 5 20 48 27 95 3 24 -12 159 -24 208 -6 24 -18 29 -29 10z"/>
<path d="M2211 2601 c-10 -18 -12 -56 -9 -141 5 -120 13 -154 29 -129 10 17
10 233 0 269 l-7 25 -13 -24z"/>
<path d="M2710 2576 c0 -25 5 -48 10 -51 6 -4 10 13 10 44 0 28 -4 51 -10 51
-5 0 -10 -20 -10 -44z"/>
<path d="M2024 2585 c-15 -27 -20 -124 -16 -355 3 -176 11 -240 27 -199 3 8 4
140 3 294 -2 211 -6 275 -14 260z"/>
<path d="M500 2555 c0 -14 5 -25 10 -25 6 0 10 11 10 25 0 14 -4 25 -10 25 -5
0 -10 -11 -10 -25z"/>
<path d="M1890 2556 c0 -8 5 -18 10 -21 6 -3 10 3 10 14 0 12 -4 21 -10 21 -5
0 -10 -6 -10 -14z"/>
<path d="M1892 2495 c0 -16 2 -22 5 -12 2 9 2 23 0 30 -3 6 -5 -1 -5 -18z"/>
<path d="M0 2423 c0 -48 4 -65 18 -75 34 -25 47 -103 52 -305 0 -7 3 -13 8
-13 4 0 6 82 5 182 -2 159 -4 184 -19 195 -9 7 -21 10 -25 7 -5 -3 -9 3 -9 13
0 11 -7 28 -15 39 -13 17 -14 14 -15 -43z"/>
<path d="M180 2375 c-2 -191 -1 -317 3 -322 9 -9 -25 -94 -40 -100 -8 -3 -27
4 -43 15 -22 16 -29 18 -33 8 -3 -8 -19 -20 -36 -27 -17 -8 -31 -17 -31 -20 0
-14 68 -47 77 -38 5 5 37 12 71 15 87 9 92 3 91 -110 -2 -125 -8 -148 -42
-160 -35 -13 -47 2 -47 61 0 32 -5 45 -20 53 -18 9 -20 8 -20 -15 0 -14 -9
-52 -20 -84 -11 -34 -16 -68 -13 -82 6 -22 8 -21 18 15 13 47 26 55 40 24 6
-13 24 -26 43 -30 45 -12 55 -43 48 -149 l-6 -87 30 -5 c23 -5 31 -14 39 -44
19 -66 12 -113 -17 -113 -13 0 -13 -2 0 -17 8 -10 18 -26 21 -36 7 -19 -8 -68
-24 -78 -6 -3 -2 -23 10 -50 10 -24 22 -70 25 -103 3 -32 7 -60 9 -63 16 -16
29 89 33 271 3 115 9 217 15 227 13 25 58 25 60 2 1 -10 3 -47 4 -83 4 -105
17 -231 24 -225 3 4 6 37 7 75 0 41 6 75 13 84 9 11 11 28 6 54 -26 138 -25
154 15 167 23 7 27 35 6 35 -17 0 -40 64 -32 87 6 15 -9 43 -24 43 -4 0 -12
-18 -19 -40 -8 -27 -20 -44 -35 -50 -13 -5 -33 -20 -44 -35 l-21 -26 -16 25
c-22 33 -12 74 20 86 30 11 33 40 5 40 -27 0 -40 30 -40 97 -1 32 -7 81 -14
108 -7 28 -12 55 -11 60 16 83 30 133 41 146 19 21 8 29 -36 29 -59 0 -62 11
-56 167 5 135 -2 205 -23 226 -8 8 -11 0 -11 -28z"/>
<path d="M1506 2338 c-4 -35 -9 -142 -13 -239 -6 -180 0 -219 32 -219 23 0 48
45 37 67 -10 17 -20 202 -21 376 -1 58 -4 77 -15 77 -9 0 -15 -20 -20 -62z"/>
<path d="M501 2285 c1 -64 15 -132 20 -95 4 39 -4 146 -12 154 -5 6 -8 -17 -8
-59z"/>
<path d="M757 2344 c-4 -4 -7 -17 -7 -28 0 -12 -6 -30 -14 -41 -16 -24 -10
-118 12 -185 3 -8 6 -55 7 -105 3 -112 3 -115 13 -115 11 0 14 404 4 448 -4
19 -10 30 -15 26z"/>
<path d="M2444 2295 c-9 -14 -24 -24 -33 -23 -13 3 -17 -12 -24 -87 -9 -102
-3 -233 11 -247 18 -18 29 24 34 127 5 93 22 155 50 175 10 8 -2 80 -13 80 -5
0 -16 -11 -25 -25z"/>
<path d="M1059 2293 c0 -10 -1 -99 -1 -198 -1 -134 -4 -187 -15 -208 -8 -15
-17 -26 -21 -23 -4 2 -8 -7 -9 -22 -1 -15 1 -21 4 -14 12 29 22 8 16 -33 -5
-38 -3 -45 11 -45 9 0 16 -4 16 -10 0 -5 4 -10 9 -10 21 0 27 65 25 248 -2
127 1 192 7 192 12 0 4 69 -13 113 -12 30 -28 36 -29 10z"/>
<path d="M2575 2248 c-3 -18 -5 -56 -3 -83 l3 -50 14 30 c18 38 20 127 4 132
-7 3 -14 -9 -18 -29z"/>
<path d="M1300 2241 c0 -6 17 -7 38 -4 51 8 53 13 4 13 -23 0 -42 -4 -42 -9z"/>
<path d="M368 2155 c-4 -37 7 -144 12 -110 2 11 4 48 5 83 3 66 -10 86 -17 27z"/>
<path d="M1827 2140 c-6 -53 -31 -102 -40 -78 -2 7 -8 9 -13 4 -5 -5 1 -15 14
-23 23 -16 31 -70 13 -88 -22 -23 -9 -103 19 -120 6 -4 18 -1 27 6 13 11 14
27 10 84 -5 49 -2 78 7 96 12 23 13 34 6 64 -7 29 1 38 15 19 14 -18 14 -17
15 16 0 26 -3 31 -12 22 -21 -21 -38 -13 -38 18 0 49 -17 34 -23 -20z"/>
<path d="M2537 2173 c-14 -22 -55 -168 -59 -209 -3 -38 -2 -39 28 -38 24 1 35
-5 48 -26 9 -16 16 -35 16 -43 0 -16 27 -43 36 -35 2 3 9 30 13 59 10 58 2 79
-30 79 -23 0 -33 32 -24 86 4 27 2 44 -4 44 -5 0 -11 21 -13 48 -2 28 -6 42
-11 35z"/>
<path d="M558 2015 c0 -11 -2 -24 -3 -30 -2 -5 -3 -15 -4 -22 0 -7 -7 -10 -15
-7 -8 3 -19 -4 -26 -16 -10 -18 -9 -22 9 -27 24 -6 36 -78 32 -193 -4 -111 -4
-129 -1 -199 2 -43 -1 -66 -10 -71 -7 -4 -10 -15 -7 -23 5 -13 12 -14 39 -6
42 12 57 11 38 -1 -10 -7 -11 -10 -2 -10 15 0 19 10 26 68 4 33 2 42 -9 42 -8
0 -15 5 -15 11 0 6 7 8 15 5 20 -7 16 24 -4 40 -11 9 -17 54 -23 180 -13 237
-15 255 -27 267 -8 8 -11 6 -13 -8z"/>
<path d="M2150 1933 c-1 -21 -5 -83 -10 -138 -14 -154 -18 -268 -9 -292 6 -15
19 -24 46 -28 21 -4 50 -10 65 -15 23 -7 32 -4 57 22 37 38 46 33 97 -55 55
-94 38 -164 -31 -127 -13 7 -28 11 -34 9 -8 -3 -13 -69 -15 -212 -3 -170 -1
-210 10 -214 19 -7 44 15 44 39 0 24 27 78 39 78 11 0 31 -55 31 -86 0 -39
-21 -72 -49 -78 -14 -3 -41 -8 -59 -12 -18 -3 -35 -10 -38 -15 -7 -13 14 -49
30 -49 31 0 44 -33 40 -100 -7 -113 -17 -129 -57 -93 -18 17 -19 17 -33 -2
-13 -17 -11 -22 11 -45 23 -24 25 -34 24 -111 -1 -126 -13 -229 -28 -239 -13
-7 -31 -135 -23 -159 6 -17 52 -13 52 4 0 8 9 32 20 52 27 52 38 121 38 230 0
88 1 95 33 145 l34 53 -2 115 c-3 128 7 171 43 197 19 14 27 34 38 100 31 174
95 226 127 102 7 -27 16 -46 20 -42 8 8 29 114 29 144 0 10 -9 21 -20 24 -11
4 -31 17 -43 30 -14 15 -39 26 -68 30 l-46 7 -12 -79 c-16 -99 -17 -103 -34
-103 -24 0 -39 85 -31 167 3 40 9 73 13 74 3 0 26 3 51 5 47 5 67 21 77 64 3
14 14 34 24 45 9 11 20 32 24 47 8 32 -15 48 -69 48 -19 0 -38 5 -42 11 -3 6
-22 17 -41 25 -24 11 -35 23 -40 44 -7 37 -28 56 -45 43 -7 -6 -30 -13 -51
-17 -30 -6 -41 -13 -48 -34 -8 -22 -16 -27 -48 -30 -63 -4 -66 4 -68 237 -2
113 -3 209 -3 214 0 4 -4 7 -10 7 -5 0 -10 -17 -10 -37z"/>
<path d="M366 1918 c-16 -74 -20 -308 -6 -322 5 -5 21 -6 35 -2 l27 7 -2 97
c-3 134 -2 142 18 149 29 11 45 47 18 41 -8 -2 -25 9 -39 25 -32 33 -45 34
-51 5z"/>
<path d="M1390 1908 c0 -19 2 -20 10 -8 13 19 13 30 0 30 -5 0 -10 -10 -10
-22z"/>
<path d="M1954 1896 c-6 -37 1 -60 17 -51 12 8 12 85 -1 85 -5 0 -12 -15 -16
-34z"/>
<path d="M760 1840 c0 -11 5 -20 10 -20 6 0 10 9 10 20 0 11 -4 20 -10 20 -5
0 -10 -9 -10 -20z"/>
<path d="M947 1853 c-2 -5 -3 -16 -2 -25 2 -10 -1 -18 -6 -18 -6 0 -7 -5 -4
-11 4 -6 7 -46 7 -89 0 -90 6 -122 22 -117 9 3 14 48 17 152 0 17 -3 46 -10
108 -1 4 -5 7 -10 7 -6 0 -12 -3 -14 -7z"/>
<path d="M65 1800 c3 -5 8 -10 11 -10 2 0 4 5 4 10 0 6 -5 10 -11 10 -5 0 -7
-4 -4 -10z"/>
<path d="M759 1783 c0 -5 -4 -21 -7 -38 -4 -16 -7 -80 -7 -142 0 -103 2 -113
23 -131 18 -16 23 -30 23 -80 1 -33 -2 -66 -6 -72 -4 -6 -2 -23 4 -38 6 -15
12 -62 15 -105 5 -90 -7 -112 -67 -120 -46 -7 -62 13 -72 90 -6 46 -4 53 14
63 12 6 21 20 21 32 0 17 -3 19 -12 10 -7 -7 -20 -12 -30 -12 -27 0 -37 -30
-47 -148 l-10 -110 31 -64 c17 -35 33 -79 35 -98 2 -19 8 -61 14 -92 8 -50 7
-62 -10 -96 -20 -40 -14 -72 14 -72 8 0 15 -9 15 -21 0 -11 3 -18 8 -16 16 11
10 -57 -8 -80 -21 -27 -17 -49 10 -58 32 -10 40 -97 13 -148 -9 -18 -16 -45
-15 -60 2 -26 0 -28 -25 -26 -16 2 -33 1 -38 -3 -6 -3 -21 -2 -34 3 -22 9 -23
11 -7 27 20 23 20 36 0 67 -23 35 -45 128 -34 139 16 16 11 25 -10 19 -15 -4
-20 0 -20 15 0 12 -4 23 -9 27 -5 3 -8 16 -5 30 3 19 1 23 -11 19 -10 -4 -15
-20 -15 -51 0 -57 -36 -98 -78 -89 -40 9 -53 -5 -59 -67 -10 -98 16 -142 41
-67 8 25 19 36 42 42 17 4 36 18 43 30 7 14 22 24 36 24 24 2 25 -1 25 -51 0
-30 4 -65 10 -79 8 -21 6 -27 -10 -36 -19 -10 -129 -17 -164 -9 -20 4 -25 -8
-39 -103 l-6 -38 66 0 c56 0 64 2 59 16 -11 29 13 44 71 44 51 0 55 -2 64 -30
15 -42 55 -42 64 0 7 34 30 44 80 34 40 -7 54 -26 35 -49 -11 -13 -3 -15 64
-15 74 0 76 1 76 25 0 14 -6 25 -13 25 -30 0 -44 34 -42 95 2 33 -1 84 -7 114
-7 42 -7 56 4 62 7 4 13 26 13 48 0 46 24 59 25 14 1 -60 5 -93 12 -93 5 0 7
-3 7 -7 -6 -34 4 -113 15 -128 28 -38 37 15 42 228 2 111 6 238 8 282 l4 80
-31 20 c-29 18 -32 26 -35 77 -4 70 17 119 48 111 11 -3 23 -10 26 -15 9 -15
34 12 34 38 0 30 -12 36 -46 24 -35 -14 -74 10 -74 44 0 35 24 50 69 42 25 -4
42 -2 49 7 6 7 8 71 6 167 -4 185 -6 201 -19 197 -23 -8 -32 -47 -23 -109 11
-76 4 -194 -13 -214 -33 -40 -62 -3 -74 91 -12 100 -14 111 -33 160 -34 86
-40 112 -30 126 10 16 0 179 -13 195 -5 6 -6 13 -3 16 3 3 1 9 -5 13 -6 3 -11
1 -11 -5 0 -22 -18 0 -23 30 -6 26 -26 43 -28 23z m64 -781 c22 -20 22 -33 -3
-65 -17 -21 -18 -26 -4 -31 27 -10 42 -69 45 -176 2 -102 0 -130 -15 -178 -6
-18 -2 -25 24 -40 26 -14 30 -22 28 -52 -2 -27 -8 -36 -28 -41 -37 -9 -58 7
-65 49 -3 20 -8 48 -11 60 -3 13 -1 21 4 18 5 -3 5 13 -1 37 -5 23 -12 84 -14
136 -4 82 -7 94 -24 98 -22 6 -34 42 -25 71 4 12 -2 37 -15 61 -17 33 -19 44
-9 56 22 26 80 25 113 -3z"/>
<path d="M2579 1688 c-2 -44 3 -93 9 -100 4 -4 13 -3 21 1 11 7 12 20 5 62 -9
54 -33 80 -35 37z"/>
<path d="M2524 1549 c-3 -6 -1 -16 5 -22 8 -8 11 -5 11 11 0 24 -5 28 -16 11z"/>
<path d="M2714 1518 c-6 -18 -10 -62 -9 -98 1 -36 -3 -78 -10 -95 -41 -100
-39 -116 15 -128 44 -10 55 4 41 56 -6 25 -11 94 -12 154 -1 126 -9 162 -25
111z"/>
<path d="M118 1480 c-15 -32 -16 -53 -10 -120 5 -44 5 -85 2 -90 -4 -6 -30
-12 -58 -13 l-52 -2 0 -227 c0 -126 4 -229 9 -232 5 -4 11 0 14 6 3 10 7 10
20 0 18 -15 34 -9 55 20 16 22 45 23 62 3 31 -38 79 9 60 59 -4 13 -7 49 -5
80 2 31 -1 58 -7 62 -5 3 -23 -8 -40 -26 -26 -29 -28 -34 -14 -42 20 -11 21
-48 2 -73 -13 -18 -18 -18 -48 -7 -19 6 -41 12 -50 12 -30 0 -37 26 -40 168
-3 161 -3 162 70 162 26 0 42 -5 43 -12 0 -7 10 21 20 62 17 65 18 86 9 154
-5 44 -10 83 -10 88 0 21 -17 4 -32 -32z"/>
<path d="M631 1370 c0 -36 2 -41 10 -27 7 12 7 27 0 45 -9 25 -9 24 -10 -18z"/>
<path d="M1257 1379 c-7 -25 2 -51 14 -43 12 7 12 51 0 58 -5 3 -11 -4 -14
-15z"/>
<path d="M2 1370 c0 -14 2 -19 5 -12 2 6 2 18 0 25 -3 6 -5 1 -5 -13z"/>
<path d="M2206 959 c-12 -11 -33 -19 -53 -19 -26 0 -33 -4 -33 -20 0 -12 7
-21 18 -22 9 0 22 -2 28 -2 22 -2 45 -30 43 -50 -4 -32 11 -86 23 -86 8 0 9
29 4 93 -4 50 -7 100 -7 110 0 20 1 21 -23 -4z"/>
<path d="M499 938 c-9 -23 -13 -78 -12 -189 1 -145 10 -201 31 -198 21 4 31
-4 40 -28 10 -28 10 -28 35 26 22 47 24 56 11 68 -8 8 -14 20 -14 27 0 7 -11
24 -23 38 -19 20 -25 42 -31 104 -14 162 -16 177 -20 181 -2 2 -9 -11 -17 -29z"/>
<path d="M2570 875 c-12 -22 -11 -30 4 -62 17 -36 19 -37 32 -18 8 10 14 25
14 32 0 7 9 13 20 13 11 0 20 3 20 8 0 6 -64 52 -73 52 -2 0 -10 -11 -17 -25z"/>
<path d="M3542 808 c-27 -35 -35 -86 -25 -159 9 -57 18 -499 14 -626 0 -14 5
-23 14 -23 11 0 15 14 16 58 3 98 7 125 21 133 10 7 11 12 0 29 -7 12 -8 20
-2 20 6 0 3 15 -7 33 -16 29 -18 59 -16 290 1 141 1 257 -1 257 -2 0 -8 -6
-14 -12z"/>
<path d="M175 676 c-7 -80 -5 -120 10 -192 6 -27 3 -32 -22 -43 -16 -7 -44 -9
-62 -6 -40 7 -71 -2 -71 -20 0 -24 22 -29 106 -26 82 2 82 2 100 -28 21 -35
34 -32 34 8 0 50 -12 93 -29 99 -10 4 -17 21 -18 42 -2 19 -8 54 -14 78 -7 23
-9 65 -6 93 3 27 4 56 0 64 -12 33 -22 10 -28 -69z"/>
<path d="M2830 700 c-8 -5 -27 -11 -42 -15 -16 -3 -28 -12 -28 -20 0 -8 6 -12
13 -9 25 9 48 -33 59 -105 6 -40 12 -70 14 -68 3 2 10 24 17 48 10 33 19 45
37 49 31 7 40 40 12 40 -15 0 -25 12 -38 45 -18 47 -20 49 -44 35z"/>
<path d="M1258 688 c-7 -21 3 -98 13 -98 5 0 9 25 9 55 0 51 -12 73 -22 43z"/>
<path d="M0 608 c1 -73 2 -81 14 -65 13 17 15 17 35 -4 19 -20 21 -21 27 -5 4
10 -2 33 -14 54 -12 20 -29 52 -37 70 -8 17 -17 32 -20 32 -3 0 -5 -37 -5 -82z"/>
<path d="M371 474 c0 -11 3 -14 6 -6 3 7 2 16 -1 19 -3 4 -6 -2 -5 -13z"/>
<path d="M2836 445 c-9 -25 -7 -128 4 -145 24 -39 34 102 10 149 -6 10 -8 10
-14 -4z"/>
<path d="M1260 305 c0 -30 5 -55 10 -55 6 0 10 25 10 55 0 30 -4 55 -10 55 -5
0 -10 -25 -10 -55z"/>
<path d="M7 314 c-14 -15 -7 -54 10 -54 9 0 24 -7 34 -16 16 -14 19 -14 35 11
13 20 15 31 7 44 -10 16 -73 28 -86 15z"/>
<path d="M1065 218 c-8 -62 0 -113 15 -103 11 7 12 98 1 135 -7 21 -9 15 -16
-32z"/>
<path d="M2934 208 l-32 -33 18 -55 c10 -30 19 -70 19 -87 l1 -33 65 0 c65 0
65 0 65 28 0 16 6 37 14 47 10 13 11 26 3 49 -22 68 -41 106 -52 106 -7 0 -25
3 -41 6 -24 4 -35 -1 -60 -28z"/>
<path d="M54 176 c-11 -34 22 -47 111 -44 75 3 80 4 81 26 2 32 -11 37 -104
37 -72 0 -83 -2 -88 -19z"/>
<path d="M2773 128 c-18 -19 -23 -36 -23 -76 l0 -52 35 0 35 0 0 60 c0 33 -4
60 -9 60 -5 0 -11 7 -13 16 -2 13 -7 11 -25 -8z"/>
<path d="M0 40 l0 -41 77 3 c125 5 99 42 -49 73 -27 5 -28 4 -28 -35z"/>
<path d="M1316 53 c-3 -4 -58 -6 -121 -4 -117 2 -143 -7 -90 -31 19 -9 44 -9
98 0 45 7 76 7 82 1 5 -5 42 -9 82 -9 65 0 73 2 73 19 0 14 -10 20 -37 25 -50
8 -78 8 -87 -1z"/>
<path d="M2088 3 c7 -3 16 -2 19 1 4 3 -2 6 -13 5 -11 0 -14 -3 -6 -6z"/>
</g>
</svg>
