<?xml version="1.0" encoding="UTF-8" standalone="no"?>
<!-- Created with Inkscape (http://www.inkscape.org/) -->

<svg
   width="3.6220806in"
   height="2.5035439in"
   viewBox="0 0 347.71973 240.34021"
   version="1.1"
   id="svg1"
   inkscape:version="1.4 (e7c3feb100, 2024-10-09)"
   sodipodi:docname="completeClean.svg"
   xml:space="preserve"
   inkscape:export-filename="last.pdf"
   inkscape:export-xdpi="96"
   inkscape:export-ydpi="96"
   xmlns:inkscape="http://www.inkscape.org/namespaces/inkscape"
   xmlns:sodipodi="http://sodipodi.sourceforge.net/DTD/sodipodi-0.dtd"
   xmlns="http://www.w3.org/2000/svg"
   xmlns:svg="http://www.w3.org/2000/svg"><sodipodi:namedview
     id="namedview1"
     pagecolor="#ffffff"
     bordercolor="#000000"
     borderopacity="0.25"
     inkscape:showpageshadow="2"
     inkscape:pageopacity="0.0"
     inkscape:pagecheckerboard="0"
     inkscape:deskcolor="#d1d1d1"
     inkscape:document-units="in"
     inkscape:zoom="0.8902827"
     inkscape:cx="1766.2929"
     inkscape:cy="28.642587"
     inkscape:window-width="1920"
     inkscape:window-height="1008"
     inkscape:window-x="0"
     inkscape:window-y="0"
     inkscape:window-maximized="1"
     inkscape:current-layer="layer1"
     showgrid="false"><inkscape:page
       x="0"
       y="0"
       width="347.71973"
       height="240.34021"
       id="page48"
       margin="0"
       bleed="0" /></sodipodi:namedview><defs
     id="defs1"><marker
       style="overflow:visible"
       id="RoundedArrow-46-7"
       refX="0"
       refY="0"
       orient="auto-start-reverse"
       inkscape:stockid="Rounded arrow"
       markerWidth="0.5"
       markerHeight="0.5"
       viewBox="0 0 1 1"
       inkscape:isstock="true"
       inkscape:collect="always"
       preserveAspectRatio="xMidYMid"><path
         transform="scale(0.7)"
         d="m -0.21114562,-4.1055728 6.42229122,3.21114561 a 1,1 90 0 1 0,1.78885438 L -0.21114562,4.1055728 A 1.236068,1.236068 31.717474 0 1 -2,3 v -6 a 1.236068,1.236068 148.28253 0 1 1.78885438,-1.1055728 z"
         style="fill:context-stroke;fill-rule:evenodd;stroke:none"
         id="path8-49-5" /></marker><inkscape:path-effect
       effect="spiro"
       id="path-effect2-0-3"
       is_visible="true"
       lpeversion="1" /><inkscape:path-effect
       effect="spiro"
       id="path-effect6-6-8-2"
       is_visible="true"
       lpeversion="1" /><inkscape:path-effect
       effect="spiro"
       id="path-effect8-9-27"
       is_visible="true"
       lpeversion="1" /><inkscape:path-effect
       effect="spiro"
       id="path-effect10-2-3"
       is_visible="true"
       lpeversion="1" /></defs><g
     inkscape:label="Layer 1"
     inkscape:groupmode="layer"
     id="layer1"
     transform="translate(-17115.254,-1105.8445)"><g
       id="g89"
       inkscape:export-filename="../AKR/flows.svg"
       inkscape:export-xdpi="96"
       inkscape:export-ydpi="96"><rect
         style="fill:#f0f0f0;fill-opacity:1;stroke-width:2.77982"
         id="rect1-22-8"
         width="345.72357"
         height="341.85065"
         x="17129.229"
         y="1102.6123"
         transform="matrix(1.0057723,0,0,0.70305633,-112.84829,330.64592)" /><ellipse
         style="fill:none;fill-opacity:1;stroke:#606060;stroke-width:9.96096;stroke-dasharray:none;stroke-opacity:1"
         id="ellipse3-6-6"
         cx="17290.121"
         cy="1226.5903"
         rx="28.007841"
         ry="101.60986" /><path
         style="fill:none;fill-opacity:1;stroke:#404040;stroke-width:2;stroke-dasharray:none;stroke-opacity:1;marker-end:url(#RoundedArrow-46-7)"
         d="m 38.562073,128.17034 c 6.310378,-5.13678 14.348085,-8.11228 22.482151,-8.32275 6.936061,-0.17947 13.781752,1.58558 20.341574,3.84609 6.559821,2.2605 12.947053,5.02979 19.607622,6.97349 7.09989,2.0719 14.52158,3.19106 21.90585,2.77425 11.89464,-0.67141 23.5197,-5.44066 32.45872,-13.3164"
         id="path4-1-2"
         inkscape:path-effect="#path-effect2-0-3"
         inkscape:original-d="m 38.562073,128.17034 c 7.120575,-2.5893 15.08415,-5.45602 22.482151,-8.32275 7.397999,-2.86672 26.629222,7.21305 39.949196,10.81958 13.31997,3.60652 14.41895,1.8495 21.90585,2.77425 7.48689,0.92474 21.63915,-8.8776 32.45872,-13.3164"
         transform="matrix(2.7216086,0,0,2.7216086,17016.767,804.91568)" /><path
         style="fill:none;fill-opacity:1;stroke:#404040;stroke-width:2;stroke-dasharray:none;stroke-opacity:1;marker-end:url(#RoundedArrow-46-7)"
         d="m 38.562073,128.17034 c 6.310378,-5.13678 14.348085,-8.11228 22.482151,-8.32275 6.936061,-0.17947 13.781752,1.58558 20.341574,3.84609 6.559821,2.2605 12.947053,5.02979 19.607622,6.97349 7.09989,2.0719 14.52158,3.19106 21.90585,2.77425 11.89464,-0.67141 23.5197,-5.44066 32.45872,-13.3164"
         id="path5-12-6"
         inkscape:path-effect="#path-effect6-6-8-2"
         inkscape:original-d="m 38.562073,128.17034 c 7.120575,-2.5893 15.08415,-5.45602 22.482151,-8.32275 7.397999,-2.86672 26.629222,7.21305 39.949196,10.81958 13.31997,3.60652 14.41895,1.8495 21.90585,2.77425 7.48689,0.92474 21.63915,-8.8776 32.45872,-13.3164"
         transform="matrix(2.7216086,0,0,2.7216086,17016.767,848.12122)" /><path
         style="fill:none;fill-opacity:1;stroke:#404040;stroke-width:2;stroke-dasharray:none;stroke-opacity:1;marker-end:url(#RoundedArrow-46-7)"
         d="m 38.562073,128.17034 c 6.310378,-5.13678 14.348085,-8.11228 22.482151,-8.32275 6.936061,-0.17947 13.781752,1.58558 20.341574,3.84609 6.559821,2.2605 12.947053,5.02979 19.607622,6.97349 7.09989,2.0719 14.52158,3.19106 21.90585,2.77425 11.89464,-0.67141 23.5197,-5.44066 32.45872,-13.3164"
         id="path6-8-1"
         inkscape:path-effect="#path-effect8-9-27"
         inkscape:original-d="m 38.562073,128.17034 c 7.120575,-2.5893 15.08415,-5.45602 22.482151,-8.32275 7.397999,-2.86672 26.629222,7.21305 39.949196,10.81958 13.31997,3.60652 14.41895,1.8495 21.90585,2.77425 7.48689,0.92474 21.63915,-8.8776 32.45872,-13.3164"
         transform="matrix(2.7216086,0,0,2.7216086,17016.767,891.32677)" /><path
         style="fill:none;fill-opacity:1;stroke:#404040;stroke-width:2;stroke-dasharray:none;stroke-opacity:1;marker-end:url(#RoundedArrow-46-7)"
         d="m 38.562073,128.17034 c 6.310378,-5.13678 14.348085,-8.11228 22.482151,-8.32275 6.936061,-0.17947 13.781752,1.58558 20.341574,3.84609 6.559821,2.2605 12.947053,5.02979 19.607622,6.97349 7.09989,2.0719 14.52158,3.19106 21.90585,2.77425 11.89464,-0.67141 23.5197,-5.44066 32.45872,-13.3164"
         id="path9-8-8"
         inkscape:path-effect="#path-effect10-2-3"
         inkscape:original-d="m 38.562073,128.17034 c 7.120575,-2.5893 15.08415,-5.45602 22.482151,-8.32275 7.397999,-2.86672 26.629222,7.21305 39.949196,10.81958 13.31997,3.60652 14.41895,1.8495 21.90585,2.77425 7.48689,0.92474 21.63915,-8.8776 32.45872,-13.3164"
         transform="matrix(2.7216086,0,0,2.7216086,17016.767,934.5323)" /></g></g></svg>
