<?xml version="1.0" encoding="UTF-8" standalone="no"?>
<!-- Created with Inkscape (http://www.inkscape.org/) -->

<svg
   width="127.02914mm"
   height="101.22324mm"
   viewBox="0 0 127.02914 101.22325"
   version="1.1"
   id="svg1"
   inkscape:version="1.4 (e7c3feb100, 2024-10-09)"
   sodipodi:docname="rayChaudhuriFlows.svg"
   inkscape:export-filename="rayChaudhuriFlows.png"
   inkscape:export-xdpi="96"
   inkscape:export-ydpi="96"
   xmlns:inkscape="http://www.inkscape.org/namespaces/inkscape"
   xmlns:sodipodi="http://sodipodi.sourceforge.net/DTD/sodipodi-0.dtd"
   xmlns="http://www.w3.org/2000/svg"
   xmlns:svg="http://www.w3.org/2000/svg">
  <sodipodi:namedview
     id="namedview1"
     pagecolor="#ffffff"
     bordercolor="#000000"
     borderopacity="0.25"
     inkscape:showpageshadow="2"
     inkscape:pageopacity="0.0"
     inkscape:pagecheckerboard="0"
     inkscape:deskcolor="#d1d1d1"
     inkscape:document-units="mm"
     inkscape:zoom="1.3487514"
     inkscape:cx="267.65496"
     inkscape:cy="202.78014"
     inkscape:window-width="1920"
     inkscape:window-height="1008"
     inkscape:window-x="0"
     inkscape:window-y="0"
     inkscape:window-maximized="1"
     inkscape:current-layer="layer1" />
  <defs
     id="defs1">
    <rect
       x="0"
       y="-48.232628"
       width="545.68988"
       height="89.125504"
       id="rect10" />
    <inkscape:path-effect
       effect="spiro"
       id="path-effect10"
       is_visible="true"
       lpeversion="1" />
    <inkscape:path-effect
       effect="spiro"
       id="path-effect8"
       is_visible="true"
       lpeversion="1" />
    <inkscape:path-effect
       effect="spiro"
       id="path-effect6"
       is_visible="true"
       lpeversion="1" />
    <inkscape:path-effect
       effect="spiro"
       id="path-effect4"
       is_visible="true"
       lpeversion="1" />
    <marker
       style="overflow:visible"
       id="RoundedArrow"
       refX="0"
       refY="0"
       orient="auto-start-reverse"
       inkscape:stockid="Rounded arrow"
       markerWidth="0.5"
       markerHeight="0.5"
       viewBox="0 0 1 1"
       inkscape:isstock="true"
       inkscape:collect="always"
       preserveAspectRatio="xMidYMid">
      <path
         transform="scale(0.7)"
         d="m -0.21114562,-4.1055728 6.42229122,3.21114561 a 1,1 90 0 1 0,1.78885438 L -0.21114562,4.1055728 A 1.236068,1.236068 31.717474 0 1 -2,3 v -6 a 1.236068,1.236068 148.28253 0 1 1.78885438,-1.1055728 z"
         style="fill:context-stroke;fill-rule:evenodd;stroke:none"
         id="path8" />
    </marker>
    <inkscape:path-effect
       effect="spiro"
       id="path-effect2"
       is_visible="true"
       lpeversion="1" />
  </defs>
  <g
     inkscape:label="Layer 1"
     inkscape:groupmode="layer"
     id="layer1"
     transform="translate(-36.924004,-87.099075)">
    <rect
       style="fill:#f0f0f0;fill-opacity:1;stroke-width:0.916907"
       id="rect1"
       width="127.02914"
       height="101.22324"
       x="36.924004"
       y="87.099075" />
    <ellipse
       style="fill:none;fill-opacity:1;stroke:#606060;stroke-width:3.65996;stroke-dasharray:none;stroke-opacity:1"
       id="path1"
       cx="100.43857"
       cy="145.94"
       rx="10.290915"
       ry="37.334484" />
    <path
       style="fill:none;fill-opacity:1;stroke:#404040;stroke-width:2;stroke-dasharray:none;stroke-opacity:1;marker-end:url(#RoundedArrow)"
       d="m 38.562073,128.17034 c 6.310378,-5.13678 14.348085,-8.11228 22.482151,-8.32275 6.936061,-0.17947 13.781752,1.58558 20.341574,3.84609 6.559821,2.2605 12.947053,5.02979 19.607622,6.97349 7.09989,2.0719 14.52158,3.19106 21.90585,2.77425 11.89464,-0.67141 23.5197,-5.44066 32.45872,-13.3164"
       id="path2"
       inkscape:path-effect="#path-effect2"
       inkscape:original-d="m 38.562073,128.17034 c 7.120575,-2.5893 15.08415,-5.45602 22.482151,-8.32275 7.397999,-2.86672 26.629222,7.21305 39.949196,10.81958 13.31997,3.60652 14.41895,1.8495 21.90585,2.77425 7.48689,0.92474 21.63915,-8.8776 32.45872,-13.3164"
       transform="translate(0,-8.9958326)" />
    <path
       style="fill:none;fill-opacity:1;stroke:#404040;stroke-width:2;stroke-dasharray:none;stroke-opacity:1;marker-end:url(#RoundedArrow)"
       d="m 38.562073,128.17034 c 6.310378,-5.13678 14.348085,-8.11228 22.482151,-8.32275 6.936061,-0.17947 13.781752,1.58558 20.341574,3.84609 6.559821,2.2605 12.947053,5.02979 19.607622,6.97349 7.09989,2.0719 14.52158,3.19106 21.90585,2.77425 11.89464,-0.67141 23.5197,-5.44066 32.45872,-13.3164"
       id="path4"
       inkscape:path-effect="#path-effect6"
       inkscape:original-d="m 38.562073,128.17034 c 7.120575,-2.5893 15.08415,-5.45602 22.482151,-8.32275 7.397999,-2.86672 26.629222,7.21305 39.949196,10.81958 13.31997,3.60652 14.41895,1.8495 21.90585,2.77425 7.48689,0.92474 21.63915,-8.8776 32.45872,-13.3164"
       transform="translate(0,6.8791664)" />
    <path
       style="fill:none;fill-opacity:1;stroke:#404040;stroke-width:2;stroke-dasharray:none;stroke-opacity:1;marker-end:url(#RoundedArrow)"
       d="m 38.562073,128.17034 c 6.310378,-5.13678 14.348085,-8.11228 22.482151,-8.32275 6.936061,-0.17947 13.781752,1.58558 20.341574,3.84609 6.559821,2.2605 12.947053,5.02979 19.607622,6.97349 7.09989,2.0719 14.52158,3.19106 21.90585,2.77425 11.89464,-0.67141 23.5197,-5.44066 32.45872,-13.3164"
       id="path6"
       inkscape:path-effect="#path-effect8"
       inkscape:original-d="m 38.562073,128.17034 c 7.120575,-2.5893 15.08415,-5.45602 22.482151,-8.32275 7.397999,-2.86672 26.629222,7.21305 39.949196,10.81958 13.31997,3.60652 14.41895,1.8495 21.90585,2.77425 7.48689,0.92474 21.63915,-8.8776 32.45872,-13.3164"
       transform="translate(0,22.754168)" />
    <path
       style="fill:none;fill-opacity:1;stroke:#404040;stroke-width:2;stroke-dasharray:none;stroke-opacity:1;marker-end:url(#RoundedArrow)"
       d="m 38.562073,128.17034 c 6.310378,-5.13678 14.348085,-8.11228 22.482151,-8.32275 6.936061,-0.17947 13.781752,1.58558 20.341574,3.84609 6.559821,2.2605 12.947053,5.02979 19.607622,6.97349 7.09989,2.0719 14.52158,3.19106 21.90585,2.77425 11.89464,-0.67141 23.5197,-5.44066 32.45872,-13.3164"
       id="path9"
       inkscape:path-effect="#path-effect10"
       inkscape:original-d="m 38.562073,128.17034 c 7.120575,-2.5893 15.08415,-5.45602 22.482151,-8.32275 7.397999,-2.86672 26.629222,7.21305 39.949196,10.81958 13.31997,3.60652 14.41895,1.8495 21.90585,2.77425 7.48689,0.92474 21.63915,-8.8776 32.45872,-13.3164"
       transform="translate(0,38.629169)" />
    <text
       xml:space="preserve"
       transform="matrix(0.26458333,0,0,0.26458333,42.772079,100.82828)"
       id="text10"
       style="font-weight:706;font-size:33.3333px;line-height:1.2;font-family:'Cooper Hewitt';-inkscape-font-specification:'Cooper Hewitt,  weight=706';text-align:justify;text-decoration-color:#000000;writing-mode:lr-tb;direction:ltr;white-space:pre;shape-inside:url(#rect10);display:inline;fill:none;fill-opacity:1;stroke:#404040;stroke-width:7.55906;stroke-dasharray:none;stroke-opacity:1"><tspan
         x="0"
         y="-19.899115"
         id="tspan2"><tspan
           style="font-size:32px;fill:#303030;stroke:none"
           id="tspan1">Area enclosing set of flow lines</tspan></tspan></text>
  </g>
</svg>
